<?xml version="1.0" standalone="no"?>
<!DOCTYPE svg PUBLIC "-//W3C//DTD SVG 1.1//EN" "http://www.w3.org/Graphics/SVG/1.1/DTD/svg11.dtd" >
<svg xmlns="http://www.w3.org/2000/svg" xmlns:xlink="http://www.w3.org/1999/xlink" version="1.1">
<metadata>
Created by FontForge 20161003 at Wed May  2 19:34:53 2018
 By www-data
Copyright (c) ipython/xkcd-font contributors, Creative Commons Attribution-NonCommercial 3.0 License
</metadata>
<defs>
<font id="xkcdScript" horiz-adv-x="428" >
  <font-face 
    font-family="xkcd Script"
    font-weight="400"
    font-stretch="normal"
    units-per-em="856"
    panose-1="3 0 5 3 0 0 0 0 0 0"
    ascent="600"
    descent="-256"
    x-height="356"
    cap-height="565"
    bbox="18.7451 -267.103 1186.04 852.882"
    underline-thickness="51"
    underline-position="-153"
    unicode-range="U+0020-1F382"
  />
<missing-glyph 
 />
    <glyph glyph-name=".notdef" 
 />
    <glyph glyph-name=".null" horiz-adv-x="0" 
 />
    <glyph glyph-name="nonmarkingreturn" horiz-adv-x="285" 
 />
    <glyph glyph-name="space" unicode=" " horiz-adv-x="256" 
 />
    <glyph glyph-name="exclam" unicode="!" horiz-adv-x="186" 
d="M74 584q20 7 27 3q11 -6 19 -31q10 -33 11.5 -47.5t1.5 -87.5v-74v-74.5v-46.5q0 -23 -12 -30q-5 -2 -5 -5q0 -8 -16 -10q-7 -1 -23 6.5t-20 12.5q-7 10 -5 108q3 171 -1 179q-2 5 -4 25.5t-3 23.5q-6 25 -1.5 32.5t31.5 15.5zM103 89q2 0 11.5 -12.5t10.5 -12.5t9 -8
q9 -9 13 -35q1 -8 -1.5 -14.5t-10.5 -15.5t-9 -10q-18 -21 -23 -21q-2 0 -9 -5q-5 -4 -21 -4q-15 0 -22 5q-8 6 -10 6q-9 0 -18 28q-9 30 4 57q12 22 33 38q16 12 27 12t12 -4q2 -4 4 -4z" />
    <glyph glyph-name="quotedbl" unicode="&#x22;" horiz-adv-x="262" 
d="M161 700q28 10 37 1q4 -4 15.5 -34.5t9.5 -32.5q-1 -1 -1.5 -6.5t-1.5 -6.5q-2 -2 -4 -15q-11 -85 -11 -114v-18q-13 -10 -29 -13q-33 -5 -43 6l-6 6q-9 11 2 101q8 61 6 70q-1 5 -2.5 9t-1 6.5t2.5 8.5q1 4 2.5 11.5t3 9t6.5 5t15 6.5zM38 689q6 6 28 6q23 0 28 -5
q6 -6 8 -11.5t2 -15t1 -16.5q3 -13 0 -45q0 -8 -0.5 -21t-1.5 -29.5t-1 -25.5q-1 -45 -6 -52q-2 -3 -4.5 -5t-6 -3.5t-5.5 -2t-9 -1.5t-10 -1q-18 -3 -23 0q-13 8 -16 20.5t-1 50.5q1 19 2.5 44.5t2.5 45.5q0 16 5 54q2 8 7 13z" />
    <glyph glyph-name="numbersign" unicode="#" horiz-adv-x="531" 
d="M400 145q-7 0 -17 -2t-16 -2q-8 0 -10 -2q-3 -4 -5 -54t0 -52q4 -4 0 -17q-2 -4 -13.5 -10.5t-12.5 -7.5q-6 -5 -24 -3q-16 1 -29 23q-3 5 -2 54q0 10 0.5 24t1 21t0.5 8q0 3 -1 3t-14.5 -2t-25.5 -4.5t-12 -4.5q0 -4 -3.5 -51t-3.5 -52q0 -13 -7 -42q-3 -15 -14 -18
q-4 -2 -6 -4q-2 -3 -17 -3q-16 0 -21 3q-10 7 -10 10q0 2 -8 10q-7 7 -7 16t2 11q6 8 9 58q4 48 4 50l-13 -1q-4 0 -25 -2.5t-34 -1.5t-21 6q-12 7 -15 28q-1 12 5 19q10 11 32 16q9 2 18 6t25 6q26 4 30 5.5t6 8.5q3 13 8 57t1 44q-15 0 -70 -11q-7 -2 -16 -2.5t-15 -3.5
q-14 -8 -26 10q-9 12 -8 22q0 11 2 13q3 3 24 17t28 14q4 0 20 4q37 10 43 10q5 0 5 2q0 1 12 3q13 1 15 5q1 2 2.5 16t3 30.5t2.5 22.5q2 10 6 35.5t6 34.5q4 22 4 25q0 4 4.5 10.5t7.5 7.5q2 1 22 1q19 0 23 -5q6 -7 7 -55q0 -5 2 -29t-2 -32q-1 -10 -2.5 -26.5
t-1.5 -19.5q-1 -10 0.5 -11.5t8.5 1.5q3 1 28 3l24 2l6 32q4 21 8 33t7 23q15 56 27 64l8 5l17 -5q22 -6 24.5 -20t-7.5 -78q-7 -39 -9 -55h11q8 0 34 2q34 3 36 -7l2 -5q2 0 4.5 -5t2.5 -9q0 -2 4 -12q11 -21 -13 -33q-12 -7 -37 -9t-39.5 -1t-18.5 -1q-1 -1 -7 -43.5
t-5 -43.5q8 1 18 2q20 2 49 2q26 0 33 -2t12 -13q3 -6 3.5 -25t-2.5 -24q-5 -9 -11.5 -11.5t-29.5 -3.5q-34 -2 -41 -2zM284 211q0 3 6.5 44.5t7.5 44.5q1 8 -3 8q-1 0 -5 -0.5t-11 -1.5t-13 -1l-25 -1l-3 -23q-1 -11 -4.5 -30.5t-4.5 -31.5q0 -3 -0.5 -6.5t-1 -6t-0.5 -3.5
q-1 -2 2 -2l15 3q40 6 40 7z" />
    <glyph glyph-name="dollar" unicode="$" horiz-adv-x="458" 
d="M181 602q4 6 13 5q8 -1 13 -9q4 -8 4 -34l1 -26h10q4 0 9 -0.5t6 -0.5q2 0 3 4t1.5 8.5t1.5 5.5l1 2q1 2 1.5 4t1.5 5l2 6q5 15 8.5 18.5t13.5 1.5q12 -3 14 -10t0 -34q-1 -12 1 -15t10 -3q9 0 33 -4.5t26 -6.5t5 -2q5 0 11 -18q2 -6 -6 -24t-17.5 -20.5t-49.5 3.5l-18 3
l1 -10q3 -29 -4 -49q-1 -3 2 -3h8q5 1 9 1q22 2 52 -10q20 -9 36 -27q27 -30 33 -69q6 -53 0 -92q-7 -45 -24 -73q-5 -7 -5 -9q0 -4 -16.5 -22.5t-26.5 -26.5q-8 -6 -21 -13q-38 -17 -40 -17q-1 0 -5 -4q-4 -3 -3 -28q1 -24 -2 -29q-2 -4 -2 -12.5t-1.5 -13t-9.5 -3.5
q-6 1 -7 8t-7 15.5t-8 12.5q-8 18 -8 20q0 5 -1 8t-5 4t-7 1t-10.5 -0.5t-12.5 -0.5h-23v-19q-3 -44 -14 -60q-4 -5 -14 -4q-12 10 -13 14q0 9 -3 12q-2 2 -3 37l-1 35l-13 9q-18 12 -39.5 35t-27.5 39q-2 4 -6 9q-1 1 -11 29q-3 9 -4 13t-2 7.5t-1 6t0.5 4.5t1 6t1.5 9
q0 3 0.5 5.5t1.5 4.5t2 3t3.5 2t3.5 1.5t5.5 1.5t6.5 2q22 8 22 -3q0 -8 12 -23q3 -3 9 -15q12 -22 28 -40q11 -11 12 -6q2 5 2.5 19.5t1.5 18.5q3 14 8 71q1 9 1 13.5t-0.5 7t-2 2.5h-4.5q-2 -1 -13.5 4t-12.5 5q-2 0 -12.5 7t-10.5 8t-2 3q-2 3 -3 4q-15 17 -20 37
q-3 12 -4 41t1 30q2 2 2 6q0 3 1.5 9.5t3.5 13t2 8.5q1 8 12 26.5t17 24.5q3 3 6.5 9t9.5 9q1 1 3 1l5 5q-2 2 1 2t8 4q5 3 18.5 8t17.5 5q5 0 6 21q2 33 10 45zM227 441q0 4 1 10.5t1.5 9.5t-0.5 5q-2 1 -11 1h-8v-10q0 -11 -2.5 -29.5t-2.5 -32.5l-2 -28l9 5q9 4 9 8
q0 12 3 31t3 30zM156 400l5 56q-5 0 -17 -27q-9 -20 -10 -41q-1 -22 3 -29q6 -13 12 -13q4 0 7 54zM328 305q-9 11 -14 13.5t-16 1.5q-28 -3 -28 -13q0 -58 -2 -66q-3 -5 -1 -111v-12l12 6q12 6 28 22t21 34q12 37 9 92q0 3 -0.5 6.5t-0.5 6.5t-0.5 5t-0.5 4v1q0 1 -7 10z
M213 152q0 13 0.5 44.5t0.5 42.5l-1 42q-4 0 -9 -2q-8 -3 -9.5 -9.5t-6.5 -52.5q-8 -97 -12 -119l18 -1h11.5t6.5 1t2.5 2.5t-0.5 3.5t-1 48z" />
    <glyph glyph-name="percent" unicode="%" horiz-adv-x="556" 
d="M113 499q18 7 45 6q6 0 11.5 -1t10.5 -2.5t8.5 -3t8.5 -4.5t7 -4t7.5 -5t6.5 -5q3 -2 3.5 -4.5t3.5 -5.5q5 -5 5 -6q0 -3 5 -13q15 -31 -9 -86q-7 -17 -33 -49q-27 -35 -60 -53q-7 -4 -23.5 -7.5t-24.5 -1.5q-77 17 -63 133q2 13 11.5 38.5t13.5 28.5q2 2 5 8q4 7 15 17
t17 12q4 1 10.5 3.5t9.5 2.5t9 2zM171 421q-13 11 -20 11q-21 0 -34 -13q-5 -4 -12 -4t-9.5 -4.5t-6.5 -20.5q-3 -13 -2 -37q1 -28 7 -31q11 -6 40.5 28.5t34.5 59.5zM446 462q9 0 14.5 -13t4.5 -24q0 -1 -0.5 -4.5t-0.5 -5.5q0 -5 -3.5 -11.5t-6.5 -6.5t-15 -14l-95 -95
q-2 -2 -31.5 -33t-56 -59.5t-32.5 -36.5q-7 -9 -33.5 -40t-33.5 -40q-31 -41 -44 -43q-4 -1 -22 10q-15 10 -18 13.5t-3 11.5q0 18 50 85q30 40 59.5 74.5t37.5 39.5q7 4 13 14q4 6 53 55q95 95 96 102q3 15 10 15q2 0 11 6.5t10 6.5q14 4 28 -4q4 -3 8 -3zM383 235
q3 0 14 -6.5t13 -6.5q3 0 7 -6q3 -6 16 -8q10 -1 29 -8.5t24 -12.5q34 -28 30 -41v-4q-1 -4 -1 -7q-2 -35 -27 -60q-22 -25 -50 -46q-19 -15 -40 -23.5t-44.5 -7t-40.5 17.5q-8 7 -17 19.5t-9 16.5q0 1 -0.5 3.5t-0.5 3.5q-6 33 -3 53q6 45 28.5 82t55.5 40q7 1 16 1z
M439 127q0 6 -63 16q-10 2 -11 3t-4 -3q-6 -12 -9 -34q-3 -30 4 -39q4 -4 13 -1q25 9 45 28q25 27 25 30z" />
    <glyph glyph-name="ampersand" unicode="&#x26;" horiz-adv-x="506" 
d="M151 571q10 0 37 -3q38 -6 77 -40t42 -77q2 -37 -3 -45q0 -1 -2 -7q-4 -25 -40 -73q-4 -4 -14 -16l-10 -10l12 -10q12 -9 62 -52l18 -15l3 8q11 24 12 25q9 9 11 12q6 8 28 1l14 -4l3 -10q3 -17 0 -43t-9 -39q-2 -6 9 -16q5 -5 16 -13.5t16 -14.5q5 -5 6 -5t6.5 -7
t10.5 -14.5t6 -8.5q9 -11 2 -25q-2 -5 -22.5 -17.5t-25.5 -12.5q-14 0 -27 18q-8 11 -24 25l-13 11q-59 -83 -130 -101q-15 -3 -18 -6q-2 -2 -25.5 -2t-23.5 2q0 1 -13 5q-16 4 -41 19q-55 32 -71 94q-23 90 7 147q2 4 2 5q0 4 15 20t22 20q1 1 7 4.5t9 5.5q8 5 8.5 8
t-6.5 10q-17 17 -31 48q-22 50 -18 96q4 34 12 48q5 10 16.5 24t13.5 14q4 0 9 4q14 10 55 13zM170 492q-12 2 -13 2q-2 0 -8.5 -1.5t-10.5 -1.5q-11 -1 -16.5 -17.5t-1.5 -37.5q4 -20 21.5 -48t29.5 -33q5 -3 17 8q23 23 34 45q5 9 5 24q0 22 -17 38q-18 18 -40 22z
M247 187q-10 8 -32 28t-31 27l-20 16l-10 -6q-36 -19 -46.5 -41.5t-1.5 -72.5q7 -36 16 -45q14 -16 45 -25q12 -3 28 0q30 6 62 38q26 26 29 31l6 9l-18 17q-18 18 -27 24z" />
    <glyph glyph-name="quotesingle" unicode="'" horiz-adv-x="148" 
d="M51 704q32 5 40 -1q4 -3 10 -42q5 -37 5.5 -48t-1 -26t-1.5 -41q0 -46 3 -50q4 -5 1 -12t-8 -9q-2 0 -4.5 -3.5t-4.5 -3.5t-4 -4q-3 -6 -17 -8t-21 1q-5 2 -12.5 10.5t-8.5 13.5q0 2 -2 5.5t-2 4.5q-1 3 0 129q0 4 -0.5 9.5t-1.5 13.5t-1 12q-2 22 2 28q8 14 11.5 17
t16.5 4z" />
    <glyph glyph-name="parenleft" unicode="(" horiz-adv-x="288" 
d="M232 -79q0 -6 -11.5 -14.5t-21.5 -8.5q-9 0 -22 11q-37 30 -61 64q-30 43 -51 93q-21 53 -26 71q-1 4 -3.5 13.5t-3.5 12t-3 11.5t-2.5 11t-2.5 11t-1.5 12t-1 13.5t-1 15t-0.5 17.5t0 20q2 55 4 69q12 67 19 74q2 2 2 5t4 11q1 2 5 11t6 15q11 28 33.5 67t32.5 48
q4 4 4 7q0 2 10.5 16t17.5 21q5 7 25 17q23 12 32.5 8.5t22.5 -26.5l10 -20l-3 -9q-3 -6 -9 -11.5t-8 -9.5q-4 -6 -10 -9q-10 -5 -32.5 -37t-38.5 -64q-21 -43 -27 -62q-39 -130 1 -247q8 -24 14 -40q12 -36 44 -85q17 -27 56 -59q17 -13 3 -33q-6 -8 -6 -10z" />
    <glyph glyph-name="parenright" unicode=")" horiz-adv-x="279" 
d="M40 637q4 3 12 3q6 0 26 -6t23 -9q2 -2 5 -2q1 0 6 -9q1 -2 17 -23q18 -22 38 -54t26 -49q18 -45 25 -73q16 -61 18 -73q5 -27 3 -86t-8 -75q-2 -8 -1 -10q2 -3 -6 -36t-11 -36q-1 -1 -1 -5q0 -10 -27 -61q-25 -44 -73 -99q-5 -6 -9 -12.5t-6.5 -8.5t-10.5 -5t-26 -7
q-13 -3 -22 5q-18 15 -18 26l7 28q3 11 15 19.5t16 14.5q2 3 10 13t11 13q55 64 70 158q2 11 6 34t4 29v39q-4 71 -9 82q-1 1 -14 50q-12 40 -32 73q-8 13 -8 17t-23.5 31.5t-35.5 39.5q-10 10 -13 16q-3 5 2 22q7 22 14 26z" />
    <glyph glyph-name="asterisk" unicode="*" horiz-adv-x="514" 
d="M226 518q8 6 9 6q4 0 20.5 -3.5t19.5 -5.5q5 -2 9.5 -18.5t3.5 -24.5q-1 -6 1 -15q2 -6 7 -72l2 -15q19 23 43 49q21 23 32 28q15 7 22.5 3.5t20.5 -21.5q17 -25 11 -37q0 -1 -4 -5t-11 -11.5t-12 -12.5q-51 -52 -48 -60q1 0 6.5 -0.5t14.5 -1.5t18 -1q34 -2 47 1
q8 -1 11.5 0.5t8 -4t5.5 -7t4 -9t4 -9.5q5 -13 4 -19q-4 -23 -15 -23q-4 0 -4 -2q0 -4 -23.5 -6t-50.5 0l-19 2q41 -49 51 -56q4 -3 7 -5.5t4 -6t2 -4.5t-0.5 -5t-1.5 -5t-2.5 -6t-3.5 -6q-2 -4 -5.5 -9.5t-6.5 -9.5l-3 -4q-3 0 -6 -2q-8 -5 -24 -3q-10 0 -42 36
q-7 8 -16.5 18.5t-15.5 18.5l-2 -13q-6 -89 -7 -109q0 -6 -0.5 -14t-1 -11t-1 -7.5t-1.5 -6.5t-2.5 -4.5t-4.5 -5.5q-4 -4 -25 -3q-24 2 -31.5 5.5t-10.5 16.5t-1 61.5t6 67.5q2 5 -0.5 6.5t-5.5 -3.5q-2 -2 -17 -16.5t-29 -27.5t-14 -12q0 3 -8 -7q-22 -22 -44 -6
q-16 10 -19.5 15t-3.5 14q0 10 5 18q5 7 5 9q0 3 1 3q2 0 39 39l37 38h-33q-91 0 -99 6q-12 8 -12 31q0 19 11 25q21 11 115 18q28 2 29 3q0 2 -11 11q-46 39 -59 59q-16 22 -19 38q-1 8 9 18q11 11 17.5 11.5t18.5 -8.5q6 -5 21 -15t25 -19q21 -18 35 -26q3 -2 3.5 -1
t-0.5 7q0 4 -2 50q-1 40 3 63q3 19 10 25z" />
    <glyph glyph-name="plus" unicode="+" horiz-adv-x="503" 
d="M281 71q0 -1 -7 -5.5t-7 -5.5l-3 -1q-2 -1 -5 -1l-3 -1q-1 -1 -3 -2q-10 -9 -24 7q-4 4 -8.5 6.5t-7 5t-5.5 8.5q-4 9 -2 16q2 10 4 77l1 71l-35 -1q-27 -1 -62.5 -7t-61.5 -7q-16 0 -23 15q-12 24 -5 37q4 9 25 20q5 3 23 7q15 3 16 4q2 3 33 6.5t61 3.5q31 0 32 1
q1 2 0.5 46t-2.5 56q-2 15 3 27q6 14 9.5 17.5t14.5 5.5q33 6 40 -1q8 -8 14 -55q3 -33 3 -60v-41q28 -5 109 -8q44 -2 48 -6t9 -36q3 -13 0 -19q-9 -22 -68 -19q-84 2 -96 6q-3 1 -4 -1.5t-2 -12.5q-2 -16 -2 -63q-1 -81 -6 -86q0 -1 -1.5 -2t-1.5 -2z" />
    <glyph glyph-name="comma" unicode="," horiz-adv-x="217" 
d="M140 93q9 2 17 -5q8 -8 14 -29q9 -31 3 -73q-3 -21 -17 -51t-24 -43q-2 -2 -4 -6l-2 -3q-2 -6 -21 -25.5t-23 -20.5q-13 0 -25 -5q-2 -2 -10 2t-12 9q-16 17 -16 25q0 3 3 10t2 10q-2 5 5 13.5t12 8.5t20.5 21.5t22.5 39.5q11 26 8 66q-2 26 2 34q5 7 7 10q13 6 38 12z
" />
    <glyph glyph-name="hyphen" unicode="-" horiz-adv-x="482" 
d="M250 316q15 2 76 3.5t81 0.5t26 -7q7 -8 9 -35q1 -23 -11 -32q-7 -6 -34 -7q-17 -1 -65.5 -2.5t-50.5 -1.5q-51 -3 -145 -6q-27 0 -51 -3q-31 -5 -42 -0.5t-19 26.5q-13 32 21 45q11 4 11 6q0 5 63 7q102 2 131 6z" />
    <glyph glyph-name="period" unicode="." horiz-adv-x="175" 
d="M50 95q17 15 23.5 16.5t23.5 -10.5q10 -8 14 -8t9 -5t5 -8q0 -4 5 -12q13 -23 1 -45q-19 -37 -31 -39l-10 -6q-13 -8 -34 -1q-16 5 -21 10.5t-11 23.5q-5 15 -3 20q0 1 0.5 3t1 3.5l1 3t0.5 2.5q0 5 4 21q3 11 6 15t16 16z" />
    <glyph glyph-name="slash" unicode="/" horiz-adv-x="403" 
d="M162 91l-17 -35l-8 -16q-8 -17 -17 -34l-8 -16q1 0 -0.5 -2.5t-3.5 -6.5q-8 -17 -10 -27q-1 -4 -10 -10.5t-15 -8.5q-10 -3 -23 4q-14 7 -17 7t-8 5q-12 11 8 57q7 18 11 24l28 56l4 8l8 18l5 8l14 33q-1 1 6 16q5 10 13 34t14 36q6 14 6 15q0 3 7 17q5 12 13 35t14 33
q7 12 7 15q0 2 8 19.5t17 36t10 19.5q2 6 9 17q4 6 5 10t6 11q17 23 13 23q20 31 21 33q1 1 7.5 14t7.5 18q5 32 45 16q13 -5 16 -5q3 -1 8 -6t6 -9q5 -12 -10.5 -46.5t-24.5 -42.5l-21 -37q-18 -34 -18 -35t-4 -8.5t-8 -15.5l-3 -8l-4 -8q-4 -9 -9 -18l-4 -9l-8 -16
q-7 -16 -7 -18q0 -1 -6 -16t-6 -17q0 -4 -7 -18q-19 -43 -19 -48q0 -3 -6.5 -17t-6.5 -16q0 -3 -6 -17t-7 -17q0 -1 -7.5 -16.5t-7.5 -17.5z" />
    <glyph glyph-name="zero" unicode="0" horiz-adv-x="483" 
d="M298 27q-2 0 -16 -6t-16 -6q-6 0 -13 -3q-9 -3 -38 -3q-30 0 -40 4q-29 10 -54 25q-11 7 -29.5 25.5t-21.5 25.5q-2 5 -12.5 23t-10.5 22q0 1 -4 11q-23 51 -23 107q0 70 13 112q2 8 2 14q0 10 15 52t24 58q25 43 33 51q9 11 9 13t12.5 14.5t14.5 12.5q4 0 13 6
q12 8 21 10q8 2 24.5 1.5t18.5 -2.5t8 -2q5 0 17 -6t12 -8q6 -2 10 -6q6 -6 30 -12q31 -7 39 -15q4 -5 12 -9q21 -12 38 -34q7 -9 18 -29.5t13 -28.5q2 -10 4 -12q6 -11 14.5 -60t7.5 -64v-16q2 -7 0 -37q-2 -31 -13 -64q-10 -30 -15 -40q-3 -6 -3 -9q0 -2 -11 -19.5
t-14 -20.5q-18 -22 -31 -36q-13 -15 -33 -26q-16 -8 -19 -11q-2 -2 -6 -2zM197 496q-6 6 -8 10q-3 4 -13 -7t-14 -17q-10 -15 -28 -58q-7 -21 -11 -27q-10 -22 -19 -83q-7 -58 4 -110q5 -28 16 -48q10 -19 27.5 -37.5t33.5 -23.5q62 -19 114 29q37 34 54 89l7 23v41
q0 88 -25 149q-8 21 -15 29.5t-21 16.5q-29 16 -72 17q-24 1 -30 7z" />
    <glyph glyph-name="one" unicode="1" horiz-adv-x="150" 
d="M62 567q23 4 29.5 1t9.5 -17q10 -56 10.5 -82t-2.5 -196q-4 -228 -9 -239q-6 -13 -17 -15q-4 -1 -24 2t-26 6q-5 2 -9 10q-5 9 -3 26q2 19 8 281q2 53 0 100q-4 101 2 110q4 8 31 13z" />
    <glyph glyph-name="two" unicode="2" horiz-adv-x="460" 
d="M230 603q4 0 17 1t24 1.5t15 1.5q1 0 1 -2t4 -2t21.5 -4.5t18.5 -5.5q3 -3 10 -6q13 -6 31 -20t16 -20q4 -7 8 -16q18 -37 13 -42q-1 -1 1 -6q7 -19 4 -61q-2 -32 -3 -33q-3 -3 -5 -15q-7 -33 -15 -41q-3 -3 -3 -5t-4 -8q-7 -7 -9 -11q-11 -18 -22 -31l-6 -8
q0 -4 -27 -31q-2 -2 -21 -22.5t-28 -28.5q-16 -14 -22 -22q-9 -11 -47.5 -49.5t-49.5 -48.5l-10 -9l10 2q6 1 16 1q8 0 133 -3q53 0 62 -3q6 -2 11 -1t8 0t7 -1q15 0 15 -6q0 -3 13 -16q7 -1 2 -17t-5 -18q0 -13 -16 -21q-17 -8 -18 -5q0 2 -9.5 3.5t-21 2.5t-12.5 1
q-5 1 -32.5 -0.5t-31.5 0.5q-10 2 -29 2q-104 0 -111 -2q-9 -3 -28 -5q-4 0 -9 -0.5t-8 -0.5l-3 -1q-2 -1 -12 -1q-2 0 -5 3q-1 2 -14 6q-11 3 -17 10q-5 5 -10 17.5t-5 19.5q0 5 -2 7q-1 0 1.5 6t5.5 13l3 6q0 2 32 34.5t54 53.5q7 7 21.5 22t23.5 23q32 32 71 74
q15 16 20 19q3 1 20 21t21 26q3 5 4 5t11.5 18.5t14.5 27.5q18 46 9 82q-1 5 -7 23q-2 7 -1 8q1 2 -4 9.5t-9 9.5q-9 6 -40 10q-14 2 -38.5 -3t-37.5 -12q-1 0 -18 -8t-22 -13l-67 -61q0 2 -3 -1q-4 -4 -10 0q-3 3 -19 11q-15 8 -18 15q-3 8 2 22q5 15 12 23.5t28 29.5
q30 30 75 51q46 22 75 25z" />
    <glyph glyph-name="three" unicode="3" horiz-adv-x="479" 
d="M352 158q0 5 3 21.5t3 23.5q0 15 -3.5 41t-6.5 31q-6 11 -52 27q-40 14 -66 11q-7 -1 -16.5 -2.5t-13 -2t-9 2t-12.5 8.5q-15 14 -17.5 21.5t1.5 25.5q2 10 17 31q4 6 12 16t15 21q10 15 17 22q6 6 6 8t13.5 20.5t17.5 22.5q3 3 -2 3h-11q-9 -1 -16 -1q-59 -2 -93 -6
q-10 -2 -23 0t-20 2q-22 0 -28.5 4t-10.5 21q-5 21 0 28q6 10 28 14q53 13 86 14q70 3 145 11q10 2 10 3q1 1 4 0.5t10 -1t10 -0.5q22 -1 33 -11q2 -2 6 -4q9 -4 11.5 -21t-3.5 -27q-3 -4 -3 -9q0 -3 -6.5 -8.5t-6.5 -7.5t-13 -8q-11 -5 -64 -73q-9 -12 -18.5 -24.5
t-10.5 -13.5l12 -4q0 -1 13 -4.5t28 -7.5t18 -7q2 -1 14 -6t14 -7q4 -4 12 -7q11 -5 23 -19q13 -14 16 -25q1 -4 2 -7q6 -18 10.5 -49.5t1.5 -35.5q-2 -2 -2 -21q2 -70 -29 -107l-2 -3q1 0 -5 -9t-14 -20.5t-12 -16.5q-6 -7 -20.5 -19t-17.5 -13q-2 0 -6 -4q-5 -4 -18 -7.5
t-33 -6t-24 -3.5q-35 -7 -89 10q-45 14 -60.5 21.5t-29.5 21.5q-12 12 -25 34q-5 8 -9 13.5t-5 7.5l-3.5 7t-6.5 15q-23 59 27 69l17 3l9 -4q7 -3 10 -8q5 -15 20.5 -43.5t20.5 -33.5q11 -11 53 -26l24 -8l27 1q43 2 60 10q8 5 24 24.5t23 34.5q9 20 9 26z" />
    <glyph glyph-name="four" unicode="4" horiz-adv-x="449" 
d="M95 593q10 0 17 -0.5t12 -4t7.5 -5t3.5 -9t1 -10.5v-15.5v-17.5q0 -32 -4 -35q-2 -2 -4 -13q-1 -17 -13 -64q-3 -12 -9 -45.5t-6 -38.5q0 -1 4.5 -1t11 1t11.5 2q33 9 71 20q55 15 100 15h18l2 15q2 16 2 65.5t-1 64.5q0 2 -1 10t-2 15.5t-1.5 15t0.5 12.5t4 5v4
q13 2 27 5q23 4 29 3t11 -10q3 -7 11 -41q7 -32 6 -52q-1 -11 -3.5 -72.5t-2.5 -72.5q-10 -155 -2 -227q0 -2 3.5 -28.5t5.5 -39.5l5 -41q-6 -9 -17 -13q-27 -9 -41 -9q-4 0 -14 10q-10 9 -12 24q-2 18 -2 28q0 12 -4 24q-8 24 -8 137v76q0 9 -1 10q-2 2 -26.5 1t-34.5 -4
q-51 -14 -55 -14t-6 -2q-3 -2 -28.5 -8.5t-39.5 -8.5q-59 -10 -87 34q-14 23 -13 55q1 25 8 51.5t9 40.5q9 62 14 74q2 3 4 24q2 38 17 55q5 5 23 5z" />
    <glyph glyph-name="five" unicode="5" horiz-adv-x="522" 
d="M436 610q15 5 24 0q5 -2 7.5 -8t5.5 -8t5 -12t3 -12q4 -7 -3 -18.5t-18 -16.5q-17 -7 -109 -18q-38 -4 -98 -6q-37 0 -58 -7q-6 -2 -7 -8t-2 -40q1 -32 3 -33q5 8 47 15q19 4 44 2t35 -7q3 -1 10 -3t10 -3q5 -3 6 -3l10 -6q24 -16 36 -34q17 -24 17 -33q0 -3 1 -3
q3 0 10 -33q5 -17 3 -74t-8 -71q-9 -21 -7 -23q2 -4 -11 -32t-22 -40l-6 -8q0 -2 -17.5 -18.5t-21.5 -18.5t-4 -4q0 -5 -30 -20q-24 -14 -68.5 -17.5t-76.5 6.5q-22 8 -28 11l-12 4t-11 6q-1 2 -5 2q-2 0 -12 8q-9 7 -23.5 22t-14.5 17q0 1 -4 5q-2 2 -4 9t-4 9t-2 6
q0 7 -3 16q-5 16 4 44q3 8 6 23q2 10 5 12.5t13 2.5q13 0 17 -3t4 -13q0 -7 1 -10.5t4 -7.5t5 -7q14 -29 29 -46q10 -12 13 -12t12 -6q12 -8 34 -14q24 -7 44 -5q43 5 61 23l3 3q3 2 4 3q7 6 19 23t16 27q11 25 16 53q6 33 5 65q-3 54 -20 74q-30 35 -86 14q-34 -14 -42 -23
q-6 -7 -27 -11t-25 1q-3 3 -7 3q-8 0 -19 21q-10 21 -8 79q5 131 6 140q2 21 11 26l28 2q24 1 29 -2q2 -2 11 -2q211 13 247 23z" />
    <glyph glyph-name="six" unicode="6" horiz-adv-x="460" 
d="M232 610q8 3 45 -4q5 -1 13 -7t8 -10q0 -2 2.5 -5.5t2.5 -5.5q0 -10 -4 -32q-1 -6 -13 -8t-14 -3q-6 -4 -13 -4q-13 0 -52 -34q-45 -39 -66 -94q-4 -10 -10.5 -26.5t-9.5 -24.5t-7 -24.5t-8 -40.5l-2 -16t-1 -13.5t1 -5.5q7 2 16 6q45 20 93 31q75 17 126 -9
q18 -10 23 -10q3 0 17 -14t15 -18q2 -4 7 -10q6 -6 13 -24t7 -28q0 -24 -1 -35q-2 -18 -12 -42.5t-20 -34.5q-3 -3 -3 -6q0 -10 -37 -39l-17 -13q-2 0 -15 -8q-34 -20 -76 -24.5t-84 11.5q-41 21 -52 29q-20 16 -39 45t-26 54q-15 54 -17 66q-2 15 -2 45.5t1 41.5
q7 58 17 90q5 16 7 27q5 31 36 83q34 59 69 91q30 26 37 26q2 0 2 2q1 2 19 13t24 12zM330 190q-34 41 -114 18q-25 -7 -59 -20q-47 -17 -49 -24q-1 -3 7 -24t15 -34q11 -19 35 -35q55 -36 112 -3q32 19 51 52q10 19 9 44q-1 18 -7 26z" />
    <glyph glyph-name="seven" unicode="7" horiz-adv-x="441" 
d="M168 591q211 0 211 -6q0 -2 3 -2t3 -2l8 -6q7 -5 8.5 -8.5t0.5 -16.5q-1 -23 -3 -23q-1 0 -7.5 -11t-6.5 -12q0 -3 -2 -5q-10 -10 -42 -74q-26 -55 -44 -106q-3 -8 -6.5 -16t-7.5 -23q-2 -8 -10 -35t-11 -43q-6 -27 -17 -71.5t-14 -61.5q-10 -47 -30 -92q-4 -6 -5 -6
t-5 -4q-9 -12 -33 1q-27 15 -30 23q-4 11 7 34q9 18 25 87q6 28 6 34q1 8 10 46t11 43q1 3 20 74q1 4 22 64l12 28l2.5 5t2.5 4.5t1.5 3t0.5 2.5l1 1q0 2 18 38t22 43q6 9 4 11t-45 2q-40 0 -78 2q-32 1 -49 -2q-12 -3 -25 -3q-9 0 -17 -1.5t-19 -1.5q-22 -1 -27.5 4
t-10.5 30q-5 23 9 34q7 6 33 11q7 2 60 9q9 2 9 0t35 -2z" />
    <glyph glyph-name="eight" unicode="8" horiz-adv-x="421" 
d="M185 596q5 0 10.5 2t12.5 3q23 1 40 -4q29 -9 36 -18q2 -3 5 -5q2 -1 12 -16.5t10 -18.5l12 -7l7 -8q1 -2 3 -5q4 -7 5 -8q6 -6 14 -41q3 -17 4 -28q1 -18 -6 -40q-3 -10 -5.5 -15t-4.5 -7l-6 -6t-8 -9q-11 -14 -23 -23q-16 -12 -16 -13t17 -14q10 -8 28 -26t18 -20
q0 -1 4 -7q16 -23 23 -65q2 -11 4 -16q2 -3 -0.5 -24t-6.5 -32q-2 -8 -13 -32.5t-14 -27.5q-6 -6 -12 -15q-7 -9 -23 -23t-25 -18q-5 -2 -11.5 -6t-16.5 -7q-53 -16 -104.5 -12t-81.5 27l-8 6q-3 0 -10 7q-6 6 -16.5 26t-10.5 25t-3 7q-4 4 -5 31t2 49q1 6 8 25t9 21l10 20
q10 23 17 33q7 12 27.5 33t32.5 30l7 6l-10 6q-18 10 -41 34q-58 60 -17 133q9 16 20 28.5t17 17.5t25 20q9 7 30 17t28 10zM237 512q-8 9 -17 9q-18 0 -30 -6q-17 -9 -36.5 -28.5t-23.5 -32.5q-6 -15 14 -35q6 -6 34.5 -23.5t32.5 -17.5q2 0 19.5 11.5t25.5 18.5
q19 15 17 31q-3 31 -12 36t-9 19q0 8 -3 9l-3 1q0 -1 -2 1zM229 272q-14 11 -17.5 11t-18.5 -10q-77 -50 -89 -135l-4 -25l6 -14q7 -19 18.5 -25t43.5 -8q61 -3 91 21q22 18 35 49q8 18 2 52q-3 19 -11 31.5t-30 31.5q-10 9 -26 21z" />
    <glyph glyph-name="nine" unicode="9" horiz-adv-x="444" 
d="M201 615q35 5 38 4q1 0 4 -1t7.5 -2t8.5 -2q12 -2 29.5 -10t22.5 -13q1 -1 8 -4.5t8 -6.5t3 -3t22 -22q10 -12 17 -19t8 -21l1 -13l12 -6l5 -2.5l4 -2t2.5 -1.5t1.5 -2t1 -3t1 -4v-7q1 -11 -5 -23q-5 -10 -5 -13t-3 -8.5t-3 -8.5q-3 -21 -18 -51q-5 -9 -29 -89
q-5 -17 -14.5 -50.5t-15.5 -54.5q-27 -89 -32 -114q-12 -48 -15 -53q-2 -2 -2 -7q0 -6 -5.5 -13.5t-10.5 -9.5q-8 -3 -32 5l-25 8q-1 3 -4 10t-5 10l8 25q6 21 9 30q6 12 8 32q1 14 9 38.5t9 27.5q19 78 26 88q9 15 9 30l12 43q-17 -10 -49.5 -22t-45.5 -14q-2 0 -4.5 -0.5
t-4.5 -1.5h-2q-3 -2 -25.5 -1t-31.5 3q-53 14 -76 60q-26 58 -1 112q0 1 1.5 3.5t3 6.5t2.5 7q17 42 66 88q24 21 42 28l12 6q20 12 43 14zM238 537q-15 3 -31 -2q-29 -9 -56.5 -34.5t-40.5 -55.5q-6 -13 -7.5 -32.5t4.5 -31.5q9 -14 37 -13q36 1 87 27q44 22 67 49
q10 13 11.5 16t-0.5 8q-22 60 -71 69z" />
    <glyph glyph-name="colon" unicode=":" horiz-adv-x="173" 
d="M60 485q3 5 19 2.5t19 -2.5q9 1 16 -3.5t7 -9.5q0 -3 2 -3q3 0 6 -7q6 -12 3 -29q-6 -27 -19 -40q-15 -15 -20 -15t-11.5 -3t-8.5 -4q-13 -4 -34 11l-18 14q-5 8 10.5 44.5t28.5 44.5zM47 150q19 20 46 11q24 -9 25 -13q1 -2 6 -7q5 -4 6 -17t-3 -23q-7 -18 -21 -26
q-7 -4 -9 -8q-2 -5 -5 -5t-3 -2q0 -6 -19 -6q-4 0 -23 8q-28 10 -26 46q1 7 7 20t9 13t10 9z" />
    <glyph glyph-name="semicolon" unicode=";" horiz-adv-x="224" 
d="M173 370l-14 -19q3 0 -7 -6q-2 -1 -5 -3l-7 -5q-14 -14 -44 -5q-12 3 -18 15q-3 8 -6 8t-4 7.5t-2 16.5t-3 12q-1 2 1 11t3 9t3 5t7 12q6 8 6 9q0 2 14 12.5t19 12.5q9 2 22 -5q4 -3 9 -3q14 0 24 -10q14 -17 14 -44q0 -10 -7 -20q-5 -8 -5 -10zM121 91q16 4 21 4
q16 0 20 -11l3 -6l6 -25q9 -42 2 -50q-3 -6 -3 -8q-7 -42 -12 -47q-1 -1 -5 -13q-4 -11 -16.5 -37.5t-17.5 -33.5q-1 -2 -2.5 -4t-2.5 -3.5l-2 -3t-1 -2.5q-1 -3 -4.5 -6t-3.5 -4q0 -2 -22 -17q-5 -4 -16.5 -4t-17.5 4l-8 4t-9.5 6.5t-5.5 8.5q-8 19 -1 26q2 2 3 6.5t2 5.5
l1 1q1 2 1.5 4t1.5 4q3 9 12 13t20 28q23 47 24 101q0 34 5 43q4 7 9 10t19 6z" />
    <glyph glyph-name="less" unicode="&#x3c;" horiz-adv-x="398" 
d="M298 549q12 7 18 6t21 -16q16 -16 19 -22q5 -10 -4.5 -22t-82.5 -86q-109 -109 -116 -109q-2 0 -16.5 -11.5t-15.5 -13.5q0 -3 13 -14q8 -7 40.5 -40.5t38.5 -39.5q21 -19 32.5 -34.5t23.5 -28.5q10 -11 20 -23t24 -26q18 -18 22 -24q6 -9 9 -12q11 -12 -5 -36
q-10 -13 -13 -16t-11 -5q-18 -5 -38 12q-14 14 -16 18q-4 9 -8 10t-18 17q-38 43 -53 63q-7 9 -27.5 27.5t-28.5 30.5q-13 20 -62 63q-40 37 -43 51q-1 3 1 18q3 20 21 28q4 2 11 9q12 12 31 25q41 30 101 90q23 25 27 25q1 0 7 6q15 19 43 47.5t35 32.5z" />
    <glyph glyph-name="equal" unicode="=" horiz-adv-x="535" 
d="M328 440q32 0 87 10q42 8 54 -4q6 -6 8 -23q5 -30 -2 -38q-12 -13 -24 -10q-5 2 -10 -1t-36 -8q-36 -6 -69 -6q-120 -2 -134 -2.5t-47 -5.5q-32 -4 -67.5 -5.5t-38.5 1.5q-6 3 -8 3q-5 0 -13 8l-8 7v18v20q0 7 12 11t27.5 6t17.5 3q15 5 98.5 10.5t152.5 5.5zM410 260
q5 1 18 3t20 3t17 0.5t15.5 -3.5t8.5 -10q1 -4 3.5 -6.5t2.5 -3.5v-9q-2 -10 -2 -19q1 -14 -5 -19.5t-22 -7.5q-24 -3 -36 -6q-41 -10 -120 -3q-46 4 -58 4q-34 0 -142 -10q-44 -4 -55 -4q-15 0 -20 5t-5 6q0 3 -1 3q-2 0 -5.5 19t-1.5 20q2 0 2 2q0 4 6.5 7.5t17 7
t12.5 4.5q6 3 12 3q4 0 4 2q2 7 96.5 12t132.5 0q65 -7 105 0z" />
    <glyph glyph-name="greater" unicode="&#x3e;" horiz-adv-x="398" 
d="M42 539q15 15 21 16t18 -6q7 -4 35 -32.5t43 -47.5q6 -6 7 -6q4 0 27 -25q60 -60 101 -90q19 -13 31 -25q7 -7 11 -9q5 -2 8 -4.5t5 -4t3.5 -5.5t2 -5.5t2 -8t2.5 -9.5q0 -5 -1 -9q-3 -14 -43 -51q-49 -43 -62 -63q-8 -12 -28.5 -31t-27.5 -27q-15 -20 -53 -63
q-14 -16 -18 -17t-8 -10q-2 -4 -16 -18q-20 -17 -38 -12q-8 2 -11 4.5t-13 16.5q-16 24 -5 36q3 3 9 12q2 4 23 25t22 23t20.5 24t21.5 26q6 12 35 38q6 6 38.5 39.5t40.5 40.5q13 11 13 14q-1 2 -15.5 13.5t-16.5 11.5q-8 0 -116 109q-73 74 -82.5 86t-4.5 22q3 6 19 22z
" />
    <glyph glyph-name="question" unicode="?" 
d="M155 596q4 4 42 10t56 5q10 0 30 -5t24 -9t5 -4q5 -1 20.5 -10.5t16.5 -10.5q4 -1 11.5 -10.5t7.5 -12.5q0 -1 4 -5q10 -10 15 -40q4 -29 -4 -61q-5 -15 -15.5 -38t-16.5 -30q-2 -2 -4 -6q-2 -5 -19.5 -24t-29.5 -29q-49 -41 -91 -61q-10 -5 -14 -9q-5 -4 -3 -14
q1 -5 9 -24.5t8.5 -27t-2.5 -23.5q-3 -6 -26 -14q-22 -8 -27 -6q-5 1 -11.5 8t-8.5 12q-1 5 -4.5 11.5t-4.5 11.5q-14 47 -15 67q0 18 11 39q6 12 58 43q55 34 77 54q11 10 26 32t20 34q2 5 4 14.5t2.5 16.5t-0.5 8q-2 0 -4 10q-4 17 -33 27q-27 9 -71 -1q-39 -9 -71 -41
q-21 -21 -29 -39q-5 -12 -14 -21q-2 -2 -2 -4q0 -1 -6 -7q-5 -5 -20 -4q-25 2 -36 19l4 27q3 26 7 33q13 25 31 45q8 8 8 9q0 2 17 15t25 17q4 2 6 4.5t3 3.5t3.5 2.5t6.5 2.5q22 7 24 10zM171 90q6 2 15 2q14 -1 48 -39q10 -12 10 -22v-10l-19 -22q-20 -22 -29 -25
q-10 -3 -21 -3q-2 0 -24 20q-4 4 -9 8.5t-6.5 6l-4 4t-3 4.5t-1 5t-1.5 8q-2 7 12 28q6 9 17 21t16 14z" />
    <glyph glyph-name="at" unicode="@" horiz-adv-x="536" 
d="M217 391q1 0 11 7t11 7q2 0 2 2t24 11q11 4 36.5 1.5t34.5 -8.5q6 -4 7 -4q2 0 10.5 -7.5t8.5 -9.5q0 -1 7 -10q7 -8 6 -20q-2 -19 1 -22q12 -13 14 -69q0 -13 3 -16q1 -1 5 2.5t8.5 10.5t6.5 13q17 41 -9 108q-8 20 -15 31q-7 10 -23 26.5t-22 19.5q-44 23 -87 11
q-32 -10 -55 -30q-24 -21 -53 -66.5t-43 -81.5q-16 -44 -7 -100q5 -30 22 -57.5t39 -38.5t72 -9q61 4 134 30q30 11 39 -2q5 -7 6 -7q2 0 2 -2t5 -9q9 -13 0 -20q-2 -3 -4 -7q-2 -11 -37 -25q-78 -32 -159 -34q-47 -2 -57 4q-2 1 -10 3q-17 4 -44 21q-18 11 -36 35
q-7 9 -8 9q-2 0 -10.5 14t-8.5 18t-2 6q-4 4 -16 46q-6 24 -6 69q0 26 13 75q7 28 36 77.5t58 86.5q6 8 26 25.5t26 20.5q51 27 105 31q32 1 53 -6q35 -12 42 -17q1 0 6 -3t7 -4q6 -2 24 -19.5t29 -32.5q17 -22 29 -54q2 -8 4 -8q1 0 5.5 -14.5t4.5 -15.5q13 -29 7 -86
t-24 -75l-3 -3q-2 -3 -3.5 -5t-5 -5.5t-5.5 -6.5t-5.5 -6.5t-6 -5.5t-4.5 -4t-3.5 -3t-2.5 0t-15 -5t-30 -6q-27 0 -33 8q-3 3 -6 5q-7 4 -15 15t-9 17q-2 8 -3 8q-1 1 -11.5 -8t-26.5 -19.5t-26 -13.5q-40 -8 -48 -7q-11 1 -28 13q-7 5 -10.5 8.5l-5 5t-4 7.5t-4.5 10
q-4 7 -4 33q0 54 29 97q28 40 35 40zM305 349q-11 4 -32 -9q-13 -8 -17 -12.5t-15 -22.5q-10 -17 -14 -34q-4 -16 -2 -18q1 -1 9 2q24 11 41 32q8 11 13 16q4 4 6 12q3 11 8 20q7 13 3 14z" />
    <glyph glyph-name="A" unicode="A" horiz-adv-x="452" 
d="M220 598q17 3 38.5 0t30.5 -10q6 -4 8 -4q3 0 19 -15t22 -24q21 -34 23 -38q2 -5 5.5 -13t4.5 -10q7 -16 18 -69.5t15 -87.5l4 -36q10 -86 3 -184q-3 -35 -9 -41l-2 -3q-1 -3 -2 -4q-9 -15 -26 -15q-7 0 -25 11q-18 10 -20 16.5t2 37.5q5 51 2 111l-1 24q-32 4 -90.5 6.5
t-90.5 -0.5q-5 0 -11 -1t-10 -1l-4 -1l-11 -44q-2 -8 -4.5 -32.5t-2.5 -28.5q-7 -45 -7 -56q0 -20 -5 -40q-2 -11 -10.5 -15t-29.5 -4t-26 5t-6 25q-5 58 7 135q19 118 27 141q3 9 5 17q1 14 18 57q41 114 85 159q29 29 56 32zM260 512q-20 14 -37 -1q-34 -31 -53 -90
q-2 -7 -12 -30q-4 -7 -5.5 -12.5t-3 -13t-3.5 -14.5q-5 -13 -5 -17q0 -1 39.5 -2.5t80.5 -3t43 -1.5l17 -1q1 1 -6 41.5t-8 41.5q-6 9 -9 38q0 5 -2 8.5t-4.5 7t-4.5 8.5q-13 32 -27 41z" />
    <glyph glyph-name="B" unicode="B" horiz-adv-x="431" 
d="M344 540q1 0 5 -4t6 -4q3 0 5 -5q8 -15 14 -15q4 0 8.5 -23.5t1.5 -27.5q-1 -1 -3 -14q-3 -30 -30 -65q-28 -33 -40 -39q-2 -1 -5 -4t-20 -13t-23 -12l-7 -4q0 -1 10.5 -6.5t21.5 -11.5l12 -6q3 -2 11 -6.5t15 -9t11 -8.5q8 -8 9 -8q2 0 12 -13t13 -19q6 -9 13 -26
q4 -8 6 -40t0 -49l-7 -37q-8 -27 -11 -31q-5 -7 -5 -9q0 -3 -12.5 -15t-21.5 -16q-12 -6 -48 -15q-9 -2 -40 -3t-41 1q-3 0 -10.5 1t-10.5 2q-14 2 -41 14.5t-37 20.5q-3 3 -18 3q-21 0 -28 8q-9 10 -11 119q-2 77 -4 109q-8 74 -6 82q1 5 -1.5 32.5t-5.5 40.5q-7 40 -7 52
q0 31 -3 40q-2 9 0 13q2 7 22 14q3 1 11 8.5t16 7.5q4 0 10.5 2t6.5 4l29 10q50 17 77 13q5 -1 11 1t10 1q1 0 4.5 -0.5t9 -1t9.5 -0.5q36 -2 66 -16q18 -8 19 -9q6 -4 7 -4t7.5 -4.5t7.5 -4.5zM236 501q-24 4 -60 1q-48 -5 -77 -15q-3 -3 -2 -6.5t2.5 -10t1.5 -9.5
q0 -9 3 -19q4 -15 7.5 -76.5t5.5 -76.5q9 -95 7 -131q0 -26 1 -39l2 -24q12 -4 12 -7q0 -4 22 -16t32 -13q3 -1 38 -3q32 -1 47 4t21 9q8 7 13.5 33.5t2.5 43.5q-6 31 -11 40q-5 10 -13 16q-24 19 -92 52q-42 21 -56 33q-9 9 -10.5 13t-0.5 23q0 10 3 16q3 5 17 13t18 8
q9 0 51 17q24 10 51 33.5t33 44.5q3 12 0 18q-3 5 -21 15q-18 9 -23 9q-3 0 -25 4z" />
    <glyph glyph-name="C" unicode="C" horiz-adv-x="468" 
d="M241 618q12 2 30.5 -0.5t23.5 -6.5q1 -1 11 -4q9 -2 38 -22q22 -17 29 -31q1 -1 7 -11.5t9 -18t2 -13.5q-1 -10 -14 -18q-9 -6 -15 -9q-3 -1 -8.5 0.5t-5.5 3.5t-3 2t-8 5q-23 23 -53 39q-25 15 -47 3q-10 -5 -27.5 -24t-28.5 -35q-41 -61 -57 -112q-3 -7 -5.5 -16
t-4.5 -14t-2 -6q-16 -34 -14 -114q1 -39 7 -57q5 -15 13 -31q16 -28 41 -40q21 -8 49.5 -6t49.5 10q56 23 89 54q23 20 28 21q2 0 8 3q12 7 27 -6q16 -13 18 -21q2 -10 -11 -31q-4 -7 -22 -24.5t-21 -17.5q-2 0 -14.5 -7.5t-16.5 -11.5q-7 -6 -41 -21.5t-40 -15.5
q-2 0 -16 -4q-19 -6 -52 -4.5t-54 8.5q-75 27 -103 111q-1 4 -5.5 15t-7.5 21t-4 20q-1 5 -1 22.5t1 25.5v9q1 8 1 14q0 29 9 65q10 43 13 48q2 4 2 7q0 4 5 17.5t8 17.5q2 2 5 11q4 16 38 74q53 87 96 109q23 12 44 17z" />
    <glyph glyph-name="D" unicode="D" horiz-adv-x="500" 
d="M365 520q1 0 10 -8.5t11 -8.5l5 -5q1 0 5.5 -6l7.5 -10q16 -18 29 -44q17 -33 18 -39q1 -4 2.5 -10.5t2.5 -16.5q2 -14 4 -16q2 -3 1.5 -6.5t-2.5 -13t-2 -14.5q-3 -28 -10 -49q-2 -6 -4.5 -13t-4 -12t-1.5 -6q-1 -5 -12.5 -24.5t-13.5 -20.5q-1 0 -1 -2q0 -1 -4 -6.5
t-3 -6.5t-19 -21.5t-34 -32.5q-38 -33 -80 -53q-20 -11 -22 -13q-5 -7 -53 -21t-65 -14q-7 0 -15 -2q-28 -6 -50 1q-4 1 -13 3.5t-14 5.5t-7 7q-2 6 -3 6q-2 0 -5 6q-3 8 -3 41q0 25 2.5 43.5t2.5 42.5q1 19 6 136.5t5 181.5q0 2 -0.5 8.5t-0.5 10.5q-1 17 21 47
q7 10 10.5 12.5t9 3.5t12.5 4q6 2 36 10h35q70 -2 113 -23q5 -2 20.5 -8.5t27.5 -14.5q19 -12 22 -12l11 -9q11 -8 12 -8zM239 505q-24 11 -60.5 18t-58.5 2q-8 -2 -12 -3.5t-5 -3.5t0 -3.5t2.5 -6t1.5 -9.5q0 -2 3 -32q3 -29 -3 -205q-2 -120 -9 -147q-4 -14 5 -14
q20 0 92 23q33 11 76 39q22 15 51 47t40 56q13 30 18 73q2 27 -13 59q-3 7 -7.5 14t-13 16t-12 12.5t-15.5 14t-13 11.5q-35 29 -42 29q-12 4 -25 10z" />
    <glyph glyph-name="E" unicode="E" horiz-adv-x="474" 
d="M296 572h47q53 -1 68 -9q17 -8 19 -16q1 -4 1 -9q0 -6 2 -12q6 -15 -9 -23q-7 -3 -9 -8q-9 -16 -39 -5q-4 1 -13 1t-11 2q-11 8 -79 -3q-62 -10 -117 -28q-5 -2 -10.5 -3.5t-10 -3t-5.5 -1.5q-6 -1 -6 -10q0 -1 0.5 -17.5t0.5 -28.5v-37q72 13 122 7q4 0 27 -7
q20 -7 22 -11q1 -1 5 -4.5t6.5 -6.5t1.5 -6l2 -2q3 -1 2 -14.5t-5 -17.5q-3 -4 -16.5 -10.5t-17.5 -6.5q-2 0 -12 4q-19 9 -90 8h-50l-1 -32q-1 -27 -4.5 -63.5t-4.5 -68.5q-2 -58 0 -65q1 -2 1.5 -4t1.5 -4l1 -2q3 -3 120 26q12 3 37 7.5t37 8.5q8 3 28.5 5.5t36 2.5
t17.5 -2q0 -1 6 -1q13 0 24 -11q6 -6 6 -22q0 -21 -9 -28t-32 -9q-47 -3 -128 -24q-49 -13 -62 -17q-8 -4 -43 -10.5t-47 -6.5q-13 0 -36 3.5t-28 6.5q-4 2 -6 2t-8 7.5t-8 12.5t0 20q2 14 8 20t5 19q-3 32 8 181q4 52 4 129v78l-5 12q-5 12 -5 17q0 12 15 31q9 9 26 9
q7 0 27 6q33 10 50 14q8 2 20.5 6.5t22 7t22.5 3.5q18 1 49 7q9 1 14.5 3t13.5 3z" />
    <glyph glyph-name="F" unicode="F" horiz-adv-x="493" 
d="M158 579q13 2 58 -1.5t61 -7.5q5 -2 58 -6q98 -8 101 -10l6 -3q7 0 11 -20q2 -11 -6.5 -28.5t-16.5 -19.5q-20 0 -39 1q-57 3 -61 3q-15 1 -25 2.5t-16 1.5t-24 3t-21 3q-56 7 -65.5 6t-16.5 -14q-3 -5 -13 -43q-17 -73 -21 -129l-1 -20l9 1q1 0 43 3.5t56 5.5q20 2 46 0
q21 -2 23 -3q5 -2 10.5 -15.5t4.5 -18.5q-1 -4 -5 -8.5t-6 -4.5q-4 0 -8 -6q-14 -15 -78 -23l-60 -5l-43 -3l-3 -32q-2 -16 -5 -35t-4 -29q-2 -26 -9 -48q-1 -3 -2 -9.5t-2.5 -11t-3.5 -6.5t-4 -7.5t-8 -8.5q-8 -3 -23 -1q-17 2 -22.5 4.5t-8.5 9.5q-7 13 1 63q10 60 13 92
q2 27 5.5 70t5 57t5 41t10.5 60q9 47 16 60q2 4 7.5 21t8.5 22q1 1 3 5t3 5q4 10 22 22t34 15z" />
    <glyph glyph-name="G" unicode="G" horiz-adv-x="482" 
d="M197 581q41 3 73 -5q34 -9 50 -15l44 -16q13 -5 22 -9.5t16 -7.5q17 -6 19 -17.5t-7 -29.5q-9 -19 -12 -20q-12 -5 -20 -1t-29 10q-55 17 -60 20q-14 6 -50 14q-14 3 -32.5 0.5t-27.5 -7.5q-7 -4 -20 -16t-13 -14q0 -3 -7 -13q-18 -26 -18 -31q0 -2 -1 -3
q-5 -7 -12.5 -29.5t-8.5 -31.5q0 -5 -4 -25q-3 -18 -1 -48q1 -19 5.5 -46t5.5 -34q1 -12 13 -35q11 -22 30 -39q34 -30 76 -35q17 -2 29 2q27 9 57 43q28 31 41 66q11 29 11 52q0 5 -30 7q-7 0 -32 -1.5t-42 -2.5t-24 1q-7 5 -9.5 8t-4.5 10t-3 19q-1 16 3 22q3 6 8 6
q3 0 3 2q0 3 36 7.5t60 4.5q41 0 49 -6q3 -2 12 -5t12 -5l8 -4t9.5 -5t6.5 -6t3 -9l3 -3q6 -3 8 -35q1 -14 -5 -52q-1 -10 -8 -29t-9 -21t-7 -13q-4 -10 -14 -22q-7 -9 -7 -11q0 -6 -34 -40t-39 -33q-3 1 -13.5 -5.5t-12.5 -7.5q-7 -3 -9 -4q-3 -3 -22 -5q-41 -6 -81 8
q-12 4 -19 7.5t-14 5.5q-6 2 -14.5 7t-11.5 7q-8 5 -28.5 25t-24.5 28q-2 4 -3 4l-4 6q-3 7 -7 14l-4 7q-10 10 -18 55q-2 8 -4 15.5t-3 11.5t-2 12t-2 21q-3 30 -1 54q0 2 2.5 24.5t4.5 37.5t5 15q1 0 1 3t4.5 15.5t4.5 14.5q2 14 27.5 57.5t38.5 55.5q12 11 37 26.5
t31 15.5q4 0 6 2q2 4 14 4z" />
    <glyph glyph-name="H" unicode="H" horiz-adv-x="432" 
d="M306 333v13q0 9 3 45q4 48 4 69q2 47 5 62t15 25l22 -2q22 -2 28 -8q3 -4 5 -7t2.5 -9t1 -10.5t0.5 -16v-20.5q1 -50 -6 -167t-8 -149q-2 -91 5 -115q5 -15 -11 -23q-22 -12 -29 -14q-15 -6 -24 5q-12 12 -15 19.5t-6 32.5q-2 11 -2 64t1 55q0 17 1 36l2 35l-10 1
q-24 3 -116 -13q-32 -5 -33 -5q-13 0 -25 -5l-2 -27q-1 -18 -2.5 -42.5t-3.5 -42.5q-8 -87 -9 -90q-4 -14 -11 -14q-2 0 -5 -3q-2 -2 -27 -1q-23 2 -23 3t-3 4t-7 13q-4 9 -1 38q0 7 1 15.5t2.5 17t1.5 11.5q1 9 1 17q-1 1 3 58.5t7 77.5q3 24 10 168q5 94 10 102
q10 12 37 12q16 0 20 -2t6 -10q2 -7 3 -8q4 -3 5 -63t-3 -122l-2 -28q0 -1 29 4.5t69 10.5t61 4z" />
    <glyph glyph-name="I" unicode="I" horiz-adv-x="156" 
d="M43 563q1 0 9 1t14 1q16 0 21.5 -2.5t7.5 -11.5q3 -15 3 -99q0 -49 2.5 -108.5t2.5 -103.5q0 -55 3.5 -114.5t7.5 -67.5q2 -5 2.5 -16.5t-1.5 -18.5q-4 -12 -11.5 -15t-30.5 -3q-11 0 -15.5 2.5t-11.5 13.5q-5 9 -9 31q-7 39 -10 167q-2 104 -4 106q-1 1 -2.5 83t-0.5 91
q3 61 23 64z" />
    <glyph glyph-name="J" unicode="J" horiz-adv-x="551" 
d="M320 574q38 8 42 8.5t29 4.5t28.5 2t40.5 0q31 -1 38.5 -2.5t11.5 -9.5q4 -6 0 -36q-2 -18 -9 -22q-9 -6 -32 -5q-24 1 -68.5 -2.5t-48.5 -7.5q-1 0 -7 -1.5t-11.5 -3t-5.5 -2.5l1 -3q1 -4 2.5 -10.5t2.5 -11.5q15 -62 15 -96q0 -18 2 -22t1 -40t-3 -46q0 -2 -3 -17
l-5.5 -27.5t-4.5 -15.5q-2 -6 -2 -10q0 -8 -12 -34.5t-23 -41.5q-7 -9 -5 -9l-1 -2q-1 -2 -3 -5l-1 -2q-1 -2 -18.5 -20t-22.5 -22q-4 -2 -8 -6q-3 -4 -20.5 -12.5t-30.5 -12.5q-46 -14 -73 -4q-28 10 -39 16q-2 1 -4 2.5t-3.5 2t-3 1.5t-2.5 1l-1 1q-2 0 -15.5 15t-15.5 19
q-14 25 -11 47q2 11 6 15t20 8q18 4 22 3q12 -5 20 -19q13 -22 35 -34l15 -8l18 5q21 5 30 9.5t25 21.5q22 24 32 43q31 60 31 140q0 27 -1.5 48.5t-2.5 29.5t-6.5 34.5t-7.5 36.5q-4 20 -7 20q-7 0 -55 -11q-15 -3 -37.5 0t-32.5 10q-7 4 -8.5 9.5t0.5 21.5q2 17 8 23
q11 10 47 12q65 6 148 24z" />
    <glyph glyph-name="K" unicode="K" horiz-adv-x="469" 
d="M317 591q18 2 22 -3q20 -23 22 -32.5t-7 -24.5q-3 -8 -20.5 -23t-27.5 -20q-10 -6 -62 -62t-68 -77q-10 -13 -7 -15q7 -4 11 -13q4 -8 24 -25t38 -30l19 -14q6 0 40 -34q62 -60 62 -63q0 -1 9.5 -13.5t13.5 -16.5q14 -12 38 -64q8 -18 4 -48q0 -2 -4.5 -7t-6.5 -5t-5 -3
t-17.5 -4t-16.5 2q-3 3 -7 3q-15 0 -19 28l-3 17q-26 49 -90 108q-17 16 -19 19q-1 2 -13.5 13.5t-14.5 11.5q-1 0 -23.5 17t-25.5 20q-21 21 -41 31v-47v-103q0 -54 -3 -62q-4 -9 -9.5 -11t-24.5 -4t-26 1t-11 14q-3 6 -2 57q1 167 -15 285q-2 14 -2 25q0 37 -7 53
q-4 10 -1 45.5t11 44.5q4 4 22 3q28 -2 31 -8q3 -4 3 -14q0 -11 7 -35q3 -12 2 -21q0 -2 5 -41q1 -7 3 -22l2 -16q2 -15 1 -16q-2 -2 0 -4q0 -1 4 2.5t8.5 9t7.5 9.5q10 16 53.5 61.5t80.5 78.5q21 19 21 21t14.5 11t19.5 10z" />
    <glyph glyph-name="L" unicode="L" horiz-adv-x="449" 
d="M45 549q8 6 32 6q22 0 26 -4q7 -6 9 -56q2 -26 -0.5 -81t-6.5 -78q-1 -4 -7 -122q-5 -98 12 -132q4 -8 11 -9q12 -2 51 7t60 19q24 11 58 16q6 1 25.5 4.5t23 3.5t24.5 -1q33 -6 34 -10q1 -3 3 -3q5 0 9 -19q2 -7 -7 -25q-8 -17 -14 -20t-26 -1q-44 3 -117 -22
q-11 -3 -34.5 -9.5t-32.5 -9.5q-20 -8 -66 -8q-6 0 -22 6.5t-20 10.5q-9 10 -12 13q-22 20 -32 66q-13 54 -2 192q1 14 3 49.5t4 61.5q3 29 5 81q2 70 9 74z" />
    <glyph glyph-name="M" unicode="M" horiz-adv-x="517" 
d="M371 601q4 2 21.5 1t24.5 -4t22.5 -18t15.5 -19q0 -3 13 -38q8 -18 10 -100q1 -72 -8 -156q-2 -14 -4 -44t-5 -49q-5 -34 -5 -73.5t5 -51.5q3 -9 0 -16q-4 -8 -5 -8q-3 0 -13 -12q-2 -3 -12 -5t-16 -1q-9 3 -17 11q-11 10 -15 26q-4 14 -4 54q0 74 7 102q4 16 11 136
l2 20q3 4 1.5 59t-5.5 77q-6 34 -12 34q-5 0 -28.5 -29t-45.5 -62q-37 -54 -69 -80q-5 -4 -20 -9.5t-21 -5.5q-31 0 -39 6q-3 3 -12 9.5t-14 11.5l-10 9q-2 0 -18 19l-10 12l1 -61l2 -67q1 -4 4 -51.5t3 -53.5q0 -1 1 -14.5t1.5 -27t0.5 -15.5q-2 -3 2 -26q2 -19 1.5 -48.5
t-3.5 -38.5l-1 -2q1 -1 -4 -9t-7 -9t-21 -3q-18 -2 -23 2q-5 3 -5 7q0 1 -1 3t-2 6t-2 7q-3 7 -7 39q-4 42 -5 73q-2 58 -4 68q-2 12 -2 35q0 10 -2 38q-3 45 -3 121q-1 88 2 112t14 36q10 10 32 12q5 0 13 -3t9 -6q2 -2 3 -1t17.5 -15.5t16.5 -18.5q0 -1 11 -16
q21 -28 23 -31q23 -31 33 -31q4 0 21.5 20.5t32.5 42.5q11 16 21 29.5t18 25.5q7 10 23 27t18 17q1 0 12.5 8t12.5 10q0 1 8 1q6 0 10 2z" />
    <glyph glyph-name="N" unicode="N" horiz-adv-x="454" 
d="M346 621q18 17 44 3q22 -12 24 -21q1 -14 -1 -20q-12 -27 -14 -59q-7 -87 -3 -151q10 -123 2 -220q-3 -40 -13 -55q-8 -11 -11 -12q-22 -6 -24 -6q-15 0 -26 9q-1 1 -5 3.5t-6.5 4.5t-2.5 5q-2 6 -25 39t-32 43q-6 7 -43 54q-53 67 -95 137l-16 26l2 -31q0 -10 2.5 -51.5
t3.5 -68.5q0 -13 2 -46t2 -47q0 -5 2 -29q8 -69 -2 -83q-4 -7 -35 -11q-17 -2 -22 0q-12 6 -12 19q0 8 -2 11q-11 24 -11 120q0 23 -3.5 68.5t-4.5 59.5q-2 65 -1 183q0 62 9 70q21 21 36 19h12q4 0 13 -8l10 -7q2 0 4 -4t4 -9t3 -6q2 -4 2 -5q-1 -2 25 -50q45 -81 67 -114
q48 -73 87 -118q14 -16 21 -25l6 -7l-1 46q0 7 -3 106q-5 119 5 174q8 48 26 64z" />
    <glyph glyph-name="O" unicode="O" horiz-adv-x="489" 
d="M188 577q24 10 60 -5q4 -1 23 -5t23 -6q1 0 21.5 -10.5t25.5 -14.5q2 -1 5 -3q2 -2 4 -3h1q1 0 15 -12t17 -16l7 -7q27 -25 48 -81q9 -24 11 -70q0 -56 -6 -81q-10 -44 -34 -90q-33 -64 -40 -71q-1 -1 -13 -15q-53 -66 -110 -87q-23 -8 -37 -10q-9 -2 -29 -1t-24 3
l-24 12q-45 23 -69 72q-22 45 -31 81q-5 19 -8 52q-1 16 -4 32q-1 10 1 47.5t4 48.5q1 5 4.5 20t4.5 21q4 29 12 37l16 30q37 73 79 107q12 10 17 13t13.5 6t16.5 6zM203 503q-2 2 -4 2q-3 0 -19.5 -18t-24.5 -31q-50 -76 -58 -157q-4 -39 5 -89q1 -3 4 -29q4 -31 26 -74
q5 -9 15.5 -20.5t18.5 -15.5q21 -10 47 -1l7.5 2.5t7 2.5t3.5 1q10 3 39.5 32.5t42.5 48.5q23 33 40 74q19 44 19 108q0 26 -6 41q-6 18 -6 20q0 4 -11.5 21t-21.5 28q-27 29 -57 38q-23 7 -31 1q-8 -5 -19.5 1.5t-16.5 13.5z" />
    <glyph glyph-name="P" unicode="P" horiz-adv-x="459" 
d="M415 384l-9 -23l-2 -4q-1 -4 -4 -9.5t-5 -8.5l-4 -7q1 -2 -17 -20t-25 -23q-40 -27 -87 -41q-16 -5 -57.5 -6.5t-64.5 1.5q-23 2 -24 1q-5 -2 -1 -79q3 -77 8 -86q2 -4 3.5 -20t-0.5 -23q-2 -10 -6.5 -14.5t-19.5 -9.5q-19 -6 -26 -3q-8 4 -14 10t-11 25q-11 49 -11 164
q0 53 2 99.5t3 72.5q0 11 0.5 27.5t1 27.5t0.5 15l1 18l-9 3q-24 10 -15 38q8 25 19 32q5 3 11 9t19 13t30 14.5t23 10.5q22 10 65 17q27 4 65 -6q36 -11 37 -11q14 -6 17 -7q11 -5 33 -21t26 -21q1 -3 4 -3q2 0 5 -5q1 -2 11 -13t12 -17q4 -8 5 -9q5 -3 11 -34q2 -10 3 -11
q1 -2 1 -27t-2 -28q-2 -4 -2 -8zM238 526q-57 12 -114 -11q-5 -3 -5 -9q0 -7 2 -9q3 -5 0 -81q-3 -70 -1 -93l12 -2q11 -2 45 -2.5t52 1.5q24 3 53.5 17.5t39.5 29.5q11 15 17.5 32t2.5 21q-2 2 -2 11q0 18 -14 40q-12 18 -38 34.5t-50 20.5z" />
    <glyph glyph-name="Q" unicode="Q" horiz-adv-x="578" 
d="M204 600q21 13 48 13q14 0 40 -11q1 0 3 -1t3.5 -1.5t2.5 -0.5q5 0 24 -7.5t28 -14.5q26 -17 51 -50q29 -42 45 -85q21 -57 21 -69q0 -7 2.5 -21.5t2.5 -22.5q3 -46 0 -52q-3 -7 -2 -12q1 -9 -18 -70q-9 -25 -11 -27l-11 -20q0 -1 10 -6.5t13 -6.5l20 -11q20 -12 21 -12
q2 0 22 -20l20 -19l-1 -10q-1 -10 -10 -18l-8.5 -8.5t-14.5 -13t-9 -4.5q-17 5 -31 18q-23 21 -70 45l-10 5l-9 -9q-26 -26 -42 -33q-2 -1 -27 -14t-35 -15q-38 -10 -52 -7q-6 2 -14 2q-13 0 -44.5 16t-50.5 33t-30 34t-30 57q-2 4 -8 20.5t-9 21.5q-5 11 -12 63
q-9 65 7 118q22 78 71 141q16 21 47.5 47.5t45.5 31.5q1 0 5 2.5t6 3.5zM278 517q-9 8 -15 8.5t-16 -6.5q-22 -15 -37 -9q-6 2 -17 -8q-27 -25 -52 -59q-10 -14 -22 -45t-17 -52q-5 -27 -4 -63q1 -43 6.5 -63.5t25.5 -58.5q11 -21 29 -40q26 -27 55 -32q16 -4 25.5 -3
t30.5 11q13 6 27 15t14 11q0 1 -3 3.5t-7 5.5l-4 3q-40 29 -50 40l-17 17q-11 8 -12 20q-1 9 10 22q9 11 11.5 13t10.5 3q4 1 9 1q1 0 8.5 -5t18 -11.5t16.5 -11.5q17 -12 37 -25l25 -16l9 16q11 19 21 54q4 13 4 50q0 55 -18 104q-21 57 -44 85q-18 -14 -30 -1q-7 8 -28 27
z" />
    <glyph glyph-name="R" unicode="R" horiz-adv-x="446" 
d="M253 604q2 2 26 -1t39 -7q15 -5 19 -5q1 0 10.5 -4t11.5 -4q2 1 6.5 -3t5.5 -4t5 -4.5t6 -5.5q3 -1 8.5 -11.5t7.5 -11.5q2 -2 2 -6q0 -2 4 -10.5t3 -11.5q-6 -38 -8 -42q-4 -7 -6.5 -16.5t-7.5 -17.5q-8 -13 -19 -28q-5 -6 -8.5 -11.5t-6.5 -9.5t-13 -13
q-41 -38 -78 -58q-34 -19 -69 -35l27 -24q26 -22 33 -32q4 -6 7 -6q2 1 24 -21.5t27 -29.5q2 -2 4 -6l2 -3q7 -6 23.5 -31t16.5 -29q0 -3 2 -1q1 1 10.5 -17.5t18 -38.5t8.5 -22q-2 -12 -5.5 -16t-20.5 -13q-14 -8 -19 -6q-19 5 -23 10q-3 3 -16 29q-30 57 -48 79
q-13 15 -15 19q-11 15 -75 72q-41 36 -64 64l-2 -30q0 -8 -0.5 -20t-1.5 -28.5t-1 -24.5q-4 -26 -1 -47.5t4 -40.5q1 -28 -10 -51q-4 -7 -8 -11t-6 -3q-1 1 -1 -1q0 -1 -17 -1q-19 0 -26.5 5t-12.5 21l-5 15l1 47q3 71 4 83q14 162 4 252q-1 11 -1.5 24t-2.5 22
q-4 14 1 35.5t11 27.5q2 2 6 8q3 5 34 23q50 29 143 35q32 2 33 3zM94 490q0 -4 3 -8.5t3 -10.5q0 -7 2 -17q7 -33 7 -93v-18l14 3q4 1 14 3t14 3q24 5 63 28.5t64 46.5q50 47 50 79v9l-11 5q-25 11 -41 12q-8 1 -18 1q-6 1 -38 -0.5t-41 -3.5q-85 -14 -85 -39z" />
    <glyph glyph-name="S" unicode="S" horiz-adv-x="467" 
d="M44 127q0 1 -3 4t-3 5q0 3 -5 10q-17 27 3 46q13 12 20 12t21 -13q11 -9 48 -51q27 -31 43.5 -44.5t36.5 -20.5q10 -4 32 -4q19 0 31 6q13 6 35 30q27 31 36 53t10 71q0 48 -26 73q-13 13 -20.5 16t-23.5 3q-43 0 -128 -26q-51 -17 -68 -10q-3 1 -11.5 3.5t-14.5 7.5
q-22 21 -25 34l-4 9q-2 0 -6 24q-4 10 -1.5 26t2.5 23t5.5 20.5t8 18.5t9.5 17.5t9 17.5q7 15 50 52q9 8 65 36q3 2 17.5 6t18.5 5q7 2 29 2.5t24 -1.5t6 -2q19 0 57 -20q34 -19 34 -24q0 -1 3.5 -5.5t3.5 -6.5q1 -9 8 -12q10 -6 -7 -32q-7 -10 -22 -5q-4 2 -12 2
q-3 0 -5.5 1.5t-3.5 1.5q-6 0 -36 14t-62 11q-35 -4 -69 -31t-49 -59q-7 -14 -6 -32q2 -26 7 -27q2 -1 5 2q2 2 17.5 6.5t22.5 5.5q1 0 39 10q56 14 95 13h30l25 -13q58 -33 71 -74q15 -47 16 -73q1 -41 -7 -78q-14 -62 -78 -125q-43 -43 -101 -43h-23q-20 0 -53.5 16.5
t-58.5 39.5q-33 30 -39 43q-6 12 -13 20q-10 14 -10 15z" />
    <glyph glyph-name="T" unicode="T" horiz-adv-x="485" 
d="M321 618q60 4 76 4l32 1q2 -3 7 -8.5t8 -7.5l1 -21q1 -26 -7 -34q-4 -4 -20 -4q-14 0 -22 -2q-5 -1 -43 -5q-56 -5 -111 -14q-6 -1 -6.5 -2t-0.5 -6q3 -21 1 -26t-2.5 -87.5t1.5 -135.5q3 -90 3 -130q1 -75 -3 -79q-3 -3 -3 -7q0 -7 -12 -11q-2 -1 -18 1l-17 1
q-10 -2 -21 9q-9 9 -8 26q2 57 -0.5 172.5t-2.5 158.5v99q-7 -1 -30.5 -6.5t-37.5 -7.5q-36 -5 -58 14l-7 6l1 17q1 22 7.5 29.5t25.5 9.5q16 1 74 14q5 1 18.5 4t17.5 4q23 6 78 14t79 10z" />
    <glyph glyph-name="U" unicode="U" horiz-adv-x="454" 
d="M315 588q1 1 28 0q6 -1 18.5 -14t13.5 -22q1 -10 7 -27q0 -1 1 -3.5t2 -6.5t2 -7q19 -64 24 -134q0 -11 2 -13q2 -3 2 -32.5t-1 -51.5q-4 -53 -10 -70l-5 -15q-10 -31 -37.5 -75.5t-51.5 -69.5q-12 -12 -17 -18q-7 -8 -21.5 -20t-16.5 -12q-7 0 -29 -15q-5 -3 -22 -9
q-17 -5 -36 -3q-42 4 -75 31q-4 4 -15 18t-11 15l-1 3q-2 3 -4.5 8t-4.5 10q-24 48 -32 107q-8 57 -3 179q3 84 13 107q2 4 2 16q0 8 2 17.5t2 13.5q2 11 10 32q11 25 28 33l20 -10q15 -7 20.5 -12t3.5 -9q-3 -3 -3 -13q-3 -38 -7 -46q-3 -9 -3 -14q0 -13 -5 -46
q-8 -68 -8 -151q0 -65 14 -132q2 -12 12 -33.5t18 -30.5q34 -41 101 26q26 26 43 51q41 60 49 115q5 40 -3 122q-5 46 -22 123q-2 11 -4 11q-7 0 -14 22q-5 21 0 37t16 16q4 0 8 2z" />
    <glyph glyph-name="V" unicode="V" horiz-adv-x="426" 
d="M317 567q8 8 11.5 8.5t21.5 0.5q22 0 22 -6q0 -2 3 -4t7.5 -9.5t4.5 -11.5q0 -7 -10 -45q-6 -23 -16 -63q-3 -11 -6.5 -22t-6.5 -25q-4 -19 -21 -86.5t-20 -95.5q-1 -15 -10 -58t-12 -50l-1 -7q1 -1 -5.5 -19.5t-11.5 -27.5q-5 -10 -16 -22.5t-15 -12.5q-2 0 -2 -1
q0 -3 -6.5 -4.5t-16.5 -0.5t-19 4q-20 7 -26 17q-4 8 -8 10q-5 4 -16 23t-16 34q-3 7 -5.5 12t-4.5 11q-11 31 -19 60q-3 9 -3 16q0 20 -11 42q-2 3 -9.5 31.5t-7.5 32.5t-6.5 23.5t-7.5 20.5t-6 17.5t-5 19.5q0 2 -4 10q-3 5 -7 21t-6 20q-4 8 -4 15q0 10 3.5 15t15.5 12
q13 8 17 9t15 -1l18 -27q18 -27 18 -29t5 -12.5t5 -13.5q1 -8 13 -48t13 -45q2 -9 9 -30.5t9 -33.5q8 -42 31 -105l12 -32l13 45q0 1 1 5t1.5 10.5t1.5 11.5q6 43 9 46q2 2 2 8q0 13 6 32.5t7 27.5q2 12 13.5 58.5t13.5 55.5q2 12 6 23q1 4 24 90q13 48 15 50z" />
    <glyph glyph-name="W" unicode="W" horiz-adv-x="621" 
d="M479 609q2 0 10.5 7t9.5 7t3.5 0.5t3.5 0.5q4 0 18 -5.5t18 -8.5q15 -15 22 -47q2 -12 6.5 -46.5t5.5 -40.5q0 -3 2 -53.5t3 -57.5q1 -6 -1 -29.5t-4 -28.5q-4 -6 -4 -16q-1 -16 -3.5 -25.5t-9 -23t-8.5 -19.5q-16 -43 -35 -65q-4 -6 -4 -7q0 -2 -6 -10.5t-13 -18.5
l-7 -9q-4 -5 -19.5 -21t-16.5 -16t-18 -13q-48 -38 -98 -21q-8 3 -21 10t-13 9q0 3 -5 8q-9 12 -13 19q-7 13 -8 13q-2 0 -9 -13q-28 -50 -46 -67q-28 -27 -58 -30q-37 -2 -54 19q-6 8 -11 13q-4 4 -12 19.5t-8 18.5l-4 10q-9 20 -11 38q-5 51 -7 53q-4 4 -8 92q-1 8 -3 68
q-5 120 -18 151q-4 9 -5 25.5t2 20.5q0 1 3 3t8.5 5t8.5 5q21 13 33 9q2 0 11 -13.5t16 -27t5 -13.5q5 -15 6 -20q4 -43 7 -116t7 -122q4 -54 4 -59q0 -10 2 -14q1 -2 5 -29q7 -42 17 -54q2 -3 8 1q14 11 66 106q24 44 35 51q13 8 27.5 9t19.5 -6q3 -3 9 -6q7 -3 8 -11
q0 -2 1.5 -5t2.5 -5.5t1 -3.5q-2 -5 8 -51q6 -29 14.5 -35t25.5 5q28 18 58 58.5t41 76.5q5 15 7 19q2 3 5.5 22t3.5 24q0 4 3 10q5 8 2 85q-2 46 -10 107q-3 29 -7 31q-10 8 -12 29q-1 8 1.5 16.5t5.5 8.5z" />
    <glyph glyph-name="X" unicode="X" horiz-adv-x="470" 
d="M77 21q-1 0 -7 -2.5t-8 -2.5q-4 0 -22 12t-19 15q0 9 -0.5 13t4.5 15t7.5 15.5t9 15t7.5 12.5q7 13 20.5 36t17.5 30q2 4 44 77l35 59l-11 21q-12 22 -12 23q0 2 -13 24q-19 30 -44 80q-3 5 -16.5 30t-28.5 56q-2 3 0 20q1 8 14 17q9 6 17 9l5 2q2 1 5 0t7.5 -5t8 -8
l7 -8t4.5 -5q11 -11 47 -80q14 -26 21.5 -38.5t17.5 -31.5l17 -31l23 39q33 53 36 58q42 61 44 71q1 21 24 33q12 7 27 4t17 -11q2 -5 7 -7q9 -4 8 -21q-1 -14 -28 -54q-66 -100 -85 -136q-13 -25 -29 -48q-2 -3 23 -46q34 -58 80 -118q35 -46 50 -73q12 -21 14 -28
q2 -9 5 -16q3 -9 -1 -18q-4 -8 -7 -8q-2 0 -18 -8q-15 -7 -21 -6q-18 3 -24 16q-18 40 -48 82q-62 83 -84 120l-15 24q-1 0 -16.5 -27t-36 -62.5t-29.5 -49.5q-6 -9 -15 -27q-7 -14 -19.5 -33.5t-14.5 -19.5h-2z" />
    <glyph glyph-name="Y" unicode="Y" horiz-adv-x="521" 
d="M444 565q13 3 19.5 -0.5t12.5 -16.5t4 -24q-8 -35 -31 -65q-45 -58 -79 -107q-10 -15 -23.5 -32.5t-25 -34t-24.5 -39.5q-9 -14 -12 -38q-1 -6 -2.5 -28.5t-4.5 -31.5q-7 -21 -7 -105q0 -29 -10 -33q-28 -7 -46 -7q-5 0 -10 5t-6 11q-6 39 -6.5 48t3.5 42q1 6 10 94
q2 18 3 21q2 6 -6 14q-13 11 -33 45q-15 27 -57.5 89.5t-47.5 65.5t-23.5 36t-20.5 43q-5 20 9 32q2 2 20 8l15 5l8 -4q13 -7 25 -31q14 -25 15 -26q36 -54 47 -65q3 -3 25 -36t41.5 -64.5t19.5 -30.5q0 2 19.5 31.5t22.5 31.5q8 8 18 23q4 7 50 69q48 65 48 76q1 13 5 18
q10 12 24 10q7 0 11 1z" />
    <glyph glyph-name="Z" unicode="Z" horiz-adv-x="509" 
d="M343 581q2 1 23.5 2t23.5 0q9 -1 26 -5t19 -6l5 -2q4 -2 8 -3.5t4 -2.5q0 -2 3 -3q10 -3 10 -14q0 -1 3 -13q6 -19 -6 -32q-4 -6 -4 -7q0 -3 -11 -19q-15 -22 -108 -116q-89 -90 -120 -128q-6 -7 -16.5 -19.5t-12.5 -14.5q-14 -16 -41.5 -53t-27.5 -40q0 -1 11.5 -1t30 1
t36.5 3q45 5 182 2q69 -1 74 -5q4 -3 8 -21.5t3 -25.5q-3 -15 -21 -20q-34 -9 -116 -2q-11 1 -79 -1q-17 0 -53.5 -2t-55.5 -3q-6 0 -21 -1t-26 -1.5t-24 -0.5t-21.5 2t-11.5 5q-15 18 -16.5 26t7.5 31q15 41 52 89q49 64 54 69q19 21 26 32q13 21 101 109q27 27 95 99
q16 16 12 17q-9 4 -90 -9q-14 -2 -32 -4t-33 -5q-47 -8 -55 -8q-11 -1 -22 -3t-21 -2q-8 -1 -21 -4t-22 -3q-12 0 -16 3t-12 20q-2 5 -3.5 9t-2.5 7.5t-0.5 6.5t0.5 5t2 4t3 3.5t4.5 3.5t5 2.5t6.5 3l7 3.5q18 9 31 11q42 3 164 21q52 8 71 8q9 0 11 2z" />
    <glyph glyph-name="bracketleft" unicode="[" horiz-adv-x="326" 
d="M22 601q3 4 8 11t9.5 11t12.5 8q9 5 17 5q11 -2 21.5 -3.5t17.5 -1t7 1.5t5.5 1.5t11 -0.5t5.5 -4q0 -2 12 -1q7 1 66 1q42 0 52 -1.5t16 -8.5q4 -5 3 -28q-1 -34 -11 -34q-5 0 -5 -1q-1 -2 -67.5 -4.5t-80.5 -1.5l-14 2l-2 -41q-2 -44 -1 -93.5t3 -52.5q2 -2 2 -104
t1 -103q2 -2 2 -54.5t-1 -54.5q-2 -2 -2 -31v-29h24q24 0 24 1q16 1 17 2q2 3 23.5 2.5t28.5 -3.5q6 -3 18 -3q10 0 18 -8q7 -7 8 -26q2 -21 1.5 -26.5t-5.5 -10.5q-6 -6 -11 -6t-6 -1q-2 -2 -102 0q-10 0 -33.5 -2.5t-37 -2.5t-30.5 5q-19 9 -24.5 22t0.5 42q2 7 4 48
q0 22 2.5 39.5t3.5 42.5q1 39 -2 48q-3 11 -3 34q1 37 1 96q0 39 -4 74q-3 29 -2 95q2 87 0 125z" />
    <glyph glyph-name="backslash" unicode="\" horiz-adv-x="403" 
d="M295 122q1 -2 3 -5.5t5.5 -11t5.5 -12.5l2 -5q23 -48 29 -57l6 -11q2 -6 5 -12q20 -46 7 -57q-5 -5 -7 -5q-4 0 -18 -7q-13 -7 -23 -4q-6 2 -14.5 8.5t-9.5 10.5q-2 11 -10 27q-2 4 -3.5 6.5t-0.5 2.5l-5.5 11t-11.5 21.5t-13 23.5l-4 10q-16 34 -16 35q0 2 -7.5 17.5
t-7.5 16.5q-1 3 -7 17t-7 17q0 2 -6.5 16t-6.5 17q0 7 -18 48q-7 14 -7 18q0 2 -6.5 17t-6.5 16l-14 34l-4 9q-5 9 -9 18l-4 8l-4 8q-4 8 -8 15.5t-4 8.5l-18 35q-1 1 -5.5 10t-9 17t-6.5 10q-9 8 -24.5 42.5t-10.5 46.5q4 12 13 14q1 0 10 3.5t18 6t12 2.5q9 0 14 -5
t8.5 -16t5.5 -15q9 -20 23 -39q9 -12 7 -12q-1 0 2.5 -6.5t10.5 -15.5q5 -7 7 -11.5t5 -10.5q7 -11 9 -17q1 -1 9.5 -19.5t16.5 -36t8 -19.5q0 -1 7.5 -15t7.5 -15q5 -22 20 -53q6 -12 6 -17l1 -2q1 -3 3 -6.5t3 -6.5q6 -12 13.5 -36t12.5 -34q4 -9 6 -15t7 -17l4 -8t3 -7z
" />
    <glyph glyph-name="bracketright" unicode="]" horiz-adv-x="348" 
d="M72 619q10 0 39 1.5t36 -1.5q15 -3 94 -3q34 0 40 -3q8 -4 8 -5t5 -8q9 -10 10 -50q8 -290 3 -339q-1 -5 -3.5 -140.5t-2.5 -140.5q-3 -21 -18 -21q-5 0 -8 -3q-7 -7 -25 -2q-12 3 -43 3q-85 0 -93 -4q-2 -1 -25 -1q-21 0 -33 6q-10 5 -13 5q-2 0 -2 1t-4 7q-6 7 -1 26
q6 29 11 29q4 0 6 2q6 6 20 6q59 -3 104 3q7 1 28 1h16l2 11q1 6 1 102q0 51 2.5 111.5t1.5 107.5q0 178 -5 210l-2 8l-41 1q-40 0 -50 2q-9 3 -16 0q-6 -2 -34 -1q-33 1 -42.5 6t-13.5 20q-7 29 0 39q6 9 16 9q4 0 6 3q2 2 26 2z" />
    <glyph glyph-name="asciicircum" unicode="^" horiz-adv-x="423" 
d="M127 389q0 -2 -7 -11.5t-7 -10.5q0 -3 -17.5 -19.5t-23.5 -18.5q-12 -4 -16.5 -2t-18.5 16l-12 12t-3.5 5.5t-1.5 8.5q0 9 3 12q3 1 3 6q0 3 5 9t6 8q8 12 10 14q11 11 34 63q36 80 52 101q3 4 5.5 8t4 6.5t4 5t7 4t11.5 3.5q11 3 23.5 1t12.5 -6q0 -2 3 -2q2 0 14.5 -13
t12.5 -15q0 -5 78 -86q51 -54 58 -65q15 -26 13 -31l2 -12q3 -12 -1.5 -17t-24.5 -13q-21 -8 -25 -7q-15 5 -26 25t-28 37q-29 30 -33 36t-6 6q-3 0 -16 15q-14 16 -28 30l-14 16l-4 -11q-1 -3 -3.5 -8t-6.5 -13.5t-7 -14.5q-13 -26 -13 -28q0 -1 -4.5 -10t-9.5 -19.5
t-5 -14.5z" />
    <glyph glyph-name="underscore" unicode="_" horiz-adv-x="511" 
d="M429 31q9 4 18 -1q8 -4 16 -23l8 -20l-6 -13q-8 -18 -19 -18l-10 -5q-5 -3 -64 -4q-55 0 -57 -2q-4 -2 -85.5 -3t-132.5 0q-40 1 -52.5 4t-19.5 13q-6 8 -3 36q3 22 14 26t69 2q71 -1 93.5 -1t72.5 2t81 3q70 2 77 4z" />
    <glyph glyph-name="a" unicode="a" horiz-adv-x="421" 
d="M162 397q3 0 14 4.5t14 4.5q5 1 18 1q8 -1 21.5 -6t14.5 -7q0 -1 14 -13q2 -2 3.5 -5.5t3.5 -4.5t9 -15.5t9 -20.5q3 -16 5 -16t2 2t6 5t22 1q18 -2 22.5 -6t6.5 -17q2 -9 3 -10q4 -5 0 -33t-12 -52q-10 -30 -4 -70q6 -29 9 -37q7 -21 30 -36q8 -5 8.5 -11.5t-7.5 -23.5
q-12 -25 -25 -27q-9 -2 -25 7.5t-29 24.5q-9 11 -9 12q0 2 -7 16l-7 14l-9 -8q-3 -3 -32 -26q-30 -21 -39 -23q-43 -11 -64.5 -9.5t-54.5 19.5q-19 11 -33 42q-8 16 -8 19l-4 10q-12 30 -7 43v21q-2 27 19 83q14 38 47 83q7 10 25.5 28t26.5 23l10 7q10 7 13 7zM223 314
q-1 1 -7 12.5t-11 11.5q-2 0 -20.5 -12.5t-22.5 -16.5q-34 -37 -52 -80q-14 -36 -14 -63q0 -43 9 -58q18 -31 46.5 -22t51.5 29t34 38q21 36 21 59q0 8 5 43q2 14 3 16q1 5 -2 5q-11 -1 -21 9t-13 18q-4 9 -7 11z" />
    <glyph glyph-name="b" unicode="b" horiz-adv-x="368" 
d="M54 601q7 11 28 11q22 0 28 -14q3 -7 4 -68.5t-1 -96.5q-3 -43 -3 -47l-1 -15l7 5q17 13 36 23q2 1 4.5 2t5.5 3l2 1q5 4 21.5 8t26.5 4q39 0 43 -6q1 -1 4 -1q2 0 6.5 -3.5t5.5 -3.5t10 -8.5t13 -14.5q13 -18 17 -35q8 -28 13.5 -74.5t2.5 -62.5q-1 -6 -1 -14t-2 -17
q-7 -27 -10 -32q-5 -8 -5 -13q0 -4 -15 -27t-22 -29q-11 -10 -33.5 -22t-37.5 -16q-30 -6 -60 0q-29 5 -39 15q-2 2 -10 6q-8 5 -13 2q-6 -4 -6 -2q-4 -2 -9 -4q-4 -2 -7.5 -3t-6.5 0.5t-4.5 2t-5.5 4t-5 4.5q-20 17 -12 76q2 11 5.5 76t5.5 84q5 57 6 112q0 9 0.5 21.5
t1 20.5t0.5 11q2 10 2 25.5t1 26.5q2 9 4 49q1 29 5 36zM229 343q-9 5 -16 4t-26 -10q-35 -17 -55 -57q-7 -15 -11 -26t-5.5 -16.5t-4 -21t-5.5 -27.5q-8 -36 -8 -41v-8l18 -13q27 -19 46.5 -21t43.5 11q16 10 27 26q16 25 20.5 50t0.5 73q-5 65 -25 77z" />
    <glyph glyph-name="c" unicode="c" horiz-adv-x="385" 
d="M193 469q9 4 32 3.5t28 -5.5q3 -3 6 -3q4 0 21 -14q4 -4 11.5 -15.5t8.5 -13.5q21 -26 21 -36q0 -5 3 -9q5 -8 -1 -26q-3 -10 -13 -15q-3 -1 -5.5 -2t-4 -1.5t-3 -0.5t-2.5 1t-1 2t-18 10q-5 2 -17 20q-4 6 -21 27q-8 9 -15 9q-16 0 -45.5 -33t-48.5 -72q-2 -5 -7.5 -17
t-6.5 -15q-3 -9 -6 -15q-8 -12 -10.5 -47t1.5 -59q10 -59 71 -48q81 16 98 20q47 12 55 8q6 -4 14 -18q17 -32 -6 -43q-7 -3 -7 -6l-6 -2l-12 -4l-6 -2q-3 -3 -35.5 -11.5t-40.5 -7.5q-6 0 -9 -1q-37 -13 -94 -4q-11 2 -23 6.5t-12 7.5q0 1 -3 1q-4 0 -19 14.5t-20 23.5
q-34 54 -23 126q11 66 16 71q1 2 8 17.5t8 17.5l2 4q2 3 4 6.5t3 7.5q21 51 67 100q9 10 29.5 25t24.5 15q3 0 9 3z" />
    <glyph glyph-name="d" unicode="d" 
d="M333 632q0 3 0.5 4.5t1.5 2t3 2t3 3.5q2 3 3.5 4t4.5 1.5t4.5 0t6 -1.5t6.5 -1q10 -1 22 -13l-1 -21q0 -8 -2.5 -41.5t-3.5 -58.5q-1 -22 -3 -63.5t-2 -59.5q0 -12 -4.5 -69.5t-2.5 -76.5q1 -11 1 -67t-1 -73q-2 -45 -16 -50q-6 -2 -25 -2t-23 2q-6 3 -14 -1
q-29 -12 -47 -13h-6t-4 -1q-3 -2 -30 -5t-43 -3q-69 0 -112 39q-7 6 -16 23.5t-12 32.5q-5 21 3 75q3 18 16 56q23 64 71 103q31 22 37 22q2 0 14 5q5 2 46 10q50 10 69 2l26 -10q1 16 2 34q4 65 12.5 131.5t13.5 70.5q2 2 2 7zM267 329q-10 6 -56 -2q-37 -7 -60 -25
q-21 -16 -40 -58q-25 -57 -19 -98q4 -27 18 -35.5t49 -9.5q25 -1 53 4q47 9 66 17l12 6v8q0 4 2 48q4 72 -1 97q-9 40 -24 48z" />
    <glyph glyph-name="e" unicode="e" horiz-adv-x="432" 
d="M110 200q-9 0 -16 12q-7 -35 -5 -54q0 -4 6 -20q5 -16 19 -30q20 -20 41 -24q10 -2 48 0.5t58 7.5q21 4 40 2q11 -1 19 -18q9 -20 0 -24q-3 -3 -4 -6q-1 -4 -7 -8.5t-8 -4.5q-1 0 -9 -4q-32 -14 -89.5 -17t-84.5 9q-48 21 -69 52q-20 27 -22 43q0 4 -4 20q-13 54 17 140
q16 46 39 70q9 8 10 13q4 9 29.5 31t43.5 31q37 18 39 16q26 5 30 6q22 6 66 -7q11 -3 31.5 -15.5t30.5 -22.5q37 -37 33 -93q-1 -28 -17 -54q-6 -9 -18.5 -23t-14.5 -14t-12 -4q-23 -9 -96 -15q-97 -9 -115 3q-2 2 -9 2zM276 370q-31 13 -77 -10q-34 -16 -61 -51
q-10 -13 -19 -29t-8 -17q2 -2 33 1t69 7t48 4q27 2 33 3.5t12 8.5q8 11 9 22q2 24 -4 34q-3 5 -15 14.5t-20 12.5z" />
    <glyph glyph-name="f" unicode="f" horiz-adv-x="463" 
d="M240 589q0 2 6.5 2.5t15.5 0.5t18 -0.5t16 -1.5h8q77 -15 107 -51q8 -10 8 -11q0 -3 1 -5q5 -15 2 -20q-8 -17 -23 -21q-4 0 -11 -3.5t-14 -2.5q-11 2 -19 10q-11 11 -30 18q-19 8 -46 9q-25 1 -35.5 -2t-21.5 -16q-10 -14 -17 -39q-7 -29 -9 -56l-1 -20l19 1
q47 3 54.5 3t11.5 -4q12 -10 13 -35l1 -18l-8 -7q-7 -7 -17.5 -8.5t-61.5 -5.5l-12 -1l1 -9q1 -6 6 -80t9 -99q3 -15 5 -51t-3 -56q-1 -3 -2 -4.5t-2.5 -3l-2.5 -2.5t-4 -1.5t-4.5 -0.5t-7 -1t-8.5 -1q-21 -2 -28 2q-18 11 -18 59q1 20 -3 58t-4 47q-1 15 -2 25.5t-2 28.5
q-1 21 -3 33t-3 29q0 23 -2 25q-1 1 -29 1q-45 0 -60 12l-4 4q-2 5 -3 13q-2 13 2 21q8 15 27 18q29 7 53 8l16 1v25q2 53 7 58q1 1 3 8.5t3 14.5l2 7q9 21 14 28q14 23 24.5 33t29.5 20q15 8 29 11q9 2 9 3z" />
    <glyph glyph-name="g" unicode="g" horiz-adv-x="506" 
d="M275 415q19 4 44.5 3t33.5 -6q3 -3 8 -3q3 0 11 -3.5t13 -4.5q3 -1 16 -9t17 -12q5 -4 10.5 -14.5t7.5 -13.5q6 -10 6 -21q0 -15 -12 -40q-2 -5 -0.5 -5.5t10.5 -1.5q2 0 11 -9t11 -13q4 -6 4.5 -32.5t-2.5 -46.5q-2 -17 0 -53q6 -82 1 -102q-1 -3 -5.5 -30t-8.5 -38
q-5 -18 -7 -26q-2 -10 -14.5 -37t-22.5 -43q-9 -15 -35 -43q-5 -5 -5 -7q0 -1 -16 -11t-24 -14q-22 -11 -34 -11q-4 0 -4 -1t-31 -5q-46 -4 -77 5q-3 1 -7.5 2t-7.5 2t-4 1q-12 0 -64 30q-11 6 -30 22t-26 26q-18 24 -21 50q-2 15 2 23q7 18 21 18q2 0 8 6t6 8t3 -1
q2 -2 0.5 -8.5t3.5 -6.5q13 -3 20 -20q9 -21 38 -45q22 -17 57 -29t66 -12q46 0 80 36q51 54 65 169q2 14 0 15q-1 0 -6 -4q-38 -30 -100 -36q-41 -3 -55 5q-1 1 -5.5 2.5t-8.5 3t-4 2.5t-1 1q-5 -1 -27 17.5t-30 31.5q-9 13 -24 52q-14 40 -8 95q4 43 10 52l1 3
q1 2 2.5 5.5t2.5 6.5q20 51 50 75q26 26 31 26q1 0 12 7q19 12 44 17zM330 343q-21 5 -40 0q-45 -13 -69.5 -52t-24.5 -98q0 -56 32 -88q24 -24 70 -16q19 4 32 12q23 15 31.5 25.5t15.5 32.5q1 4 4 10q3 10 3 29v11q0 33 2 40q3 10 -2 13q-4 3 -3 13q3 19 -2 34q-1 4 -1 9
q1 2 -6.5 8t-14.5 9q-13 5 -27 8z" />
    <glyph glyph-name="h" unicode="h" horiz-adv-x="358" 
d="M41 584q6 2 19 2q14 0 20 -6l7 -6l1 -21q10 -140 11 -167l1 -47q0 1 4 3q3 2 7 9q2 4 9.5 11.5l13.5 13.5l6 5q2 0 7 5q3 3 17 8t16 7q1 0 9.5 2t16.5 4t8 3q3 3 38 -5q3 -1 12.5 -6.5t12.5 -6.5q4 -1 11 -10q12 -18 17 -31q18 -55 13 -118q-1 -10 -1 -53q0 -119 -1 -129
q-1 -9 -9 -17l-10 -8q-1 -2 -7.5 -0.5t-20.5 6.5q-16 6 -20 10.5t-3 14.5v43q0 16 0.5 63.5t0 88t-4.5 66.5q-1 10 -16 21l-16 -4q-31 -6 -46 -29q-27 -42 -46 -113q-14 -55 -15 -80q-2 -49 -22 -54q-3 -1 -8 -3.5t-10 -3.5q-6 -1 -21 10q-11 8 -14 13t-5 20q-5 31 -1 96
q3 59 4.5 140.5t-0.5 98.5q-1 5 1 10q2 2 1 50q-3 86 13 94z" />
    <glyph glyph-name="i" unicode="i" horiz-adv-x="227" 
d="M99 488q29 4 42 -1q16 -5 36 -19q9 -5 9 -8q0 -15 -2 -19q-1 -3 -3.5 -11.5t-7.5 -13.5q-2 -2 -3.5 -4.5t-3 -3.5t-4.5 -2q-15 -3 -27 3q-16 9 -31 2q-4 -2 -11 -2.5t-11 -2.5q-1 0 -3 -1t-3.5 -1.5t-2.5 -0.5q-3 0 -14.5 -3.5t-16.5 -2.5q-9 3 -15 15q-16 33 5 44
q2 1 8 5l5 4q6 5 25.5 13t28.5 10zM67 314l5 7h19q18 0 25 -4q6 -3 6 -8q0 -3 2 -7q4 -8 5.5 -35t-1.5 -45q-2 -28 -2.5 -36.5t2.5 -35.5t3 -35q2 -25 8 -35l5 -11q-5 -15 -11 -17q-6 -3 -11 -8q-7 -6 -20 -6q-17 0 -24.5 6t-13.5 24q-6 19 -8 44q-1 16 -2.5 28.5t-2 24
t-0.5 36.5q2 92 16 113z" />
    <glyph glyph-name="j" unicode="j" horiz-adv-x="358" 
d="M256 535q6 2 15 -0.5t11 -7.5q1 -2 9 -10q13 -12 16.5 -18.5t2.5 -16.5q-1 -12 -2 -17t-5.5 -11.5t-5.5 -9.5q-2 -4 -14 -15t-14 -11q-3 0 -4 -1q-1 -3 -15 -3q-24 -1 -36 21.5t-4 46.5q1 2 3 9t3.5 13t2.5 6t1 1q-2 3 11 11.5t25 12.5zM189 -180q0 -1 -8 -2t-8 -2
t-8.5 -3t-9.5 -2q-2 -2 -24.5 0.5t-24.5 4.5q-1 1 -3 -1h-1q0 1 -12.5 7t-14.5 6q-1 0 -13.5 8.5t-14.5 10.5q-3 3 -5 3q-1 0 -14 11q-8 7 -8 25q0 13 2.5 17.5t13.5 9.5q13 6 26 2q9 -3 12 -7q14 -24 44 -29q10 -2 10 -3t6 -1q7 0 7 1t11 3q10 2 32.5 13.5t20.5 15.5
q0 2 10 12q11 12 18 28q9 18 9 21q0 2 1 5t2.5 6t1.5 4q6 30 7 59q4 121 -2 139q0 1 -2 21t-2 21q-1 1 -1 5q1 9 -3 13l-2 20q-3 19 -4 20q-4 6 -4 46q0 19 5.5 25t21.5 8q20 3 25 -2t5 -7q5 -42 7 -47q1 -2 2 -11t3 -11q1 -1 1.5 -4t0 -6t0.5 -7q1 -5 1 -15q0 -5 1.5 -8.5
t1.5 -9.5q0 -10 2 -10q1 0 1 -9t0.5 -19.5t1.5 -13.5q3 -8 3 -35q-1 -41 0 -65v-28q-1 -4 0.5 -7t0.5 -5q-1 -5 -2 -18t-2 -18q-8 -51 -9 -52l-3 -6q0 -4 -4 -16q0 -1 -5.5 -10t-4.5 -12q1 -2 -5.5 -10t-6.5 -9q0 -2 -10 -14t-21 -20q-9 -7 -9 -10q0 -1 -36 -19
q-11 -5 -11 -7z" />
    <glyph glyph-name="k" unicode="k" horiz-adv-x="443" 
d="M108 179l-2 -17q-2 -16 -4 -36t-2 -28q0 -72 -4 -78q-5 -10 -11 -12t-23 -3q-27 -2 -36 9q-7 8 -5 34q0 10 0.5 20.5t0.5 19t1 20.5q2 16 5 64t3 49q2 18 8 124t14 154q2 12 2 17q0 19 17 24q10 0 19 -1q23 -1 23 -10q0 -6 3 -9q3 -4 4 -61q0 -86 -8 -158l-1 -9l13 12
q10 10 28 24q12 10 38.5 28.5t28.5 18.5q1 0 37.5 24.5t41.5 28.5q3 3 9 6q21 7 30 0q5 -3 22 -35q7 -14 -3 -23q-12 -9 -44 -30q-40 -26 -56 -35q-1 0 -32 -23q-49 -35 -56 -44q-2 -3 1 -6.5t8 -5.5l4 -2q1 0 14 -9.5t16 -12.5q6 -6 11 -9q16 -11 67 -73q18 -21 27 -30
q76 -77 75 -79q-2 -1 4 -7q3 -4 5 -16l2 -11q1 -2 -3 -8t-6 -6t-5 -3q-1 -2 -13.5 -6t-14.5 -5q-2 -2 -10 -1t-8 3t-3 2q-2 0 -6 6q-6 9 -19 22q-50 50 -105 116q-12 15 -33.5 34.5t-33.5 26.5q-24 15 -35 15z" />
    <glyph glyph-name="l" unicode="l" horiz-adv-x="171" 
d="M55 615q4 4 13 4q36 0 43 -9q2 -4 2 -16q0 -8 2 -13.5t-1 -15.5q-2 -16 -2 -43q0 -23 -2.5 -42t-2.5 -45q-1 -31 -4 -54.5t-4 -49.5q0 -29 -3 -41q-1 -7 -1 -28.5t2 -25.5q2 -3 3.5 -56.5t1.5 -54.5q1 -6 5 -34.5t6 -35.5q1 -2 5 -4q9 -2 11 -20q0 -3 1.5 -9.5t0.5 -12.5
q0 -5 -8 -14t-14 -11q-5 -2 -19 -1t-19 4q-6 4 -13.5 13t-8.5 13q0 1 -1.5 6t-2.5 8q-7 21 -17 101q-3 15 -3 39q0 25 -3 47q-5 42 2 108q13 109 13 210q0 29 7 55q7 25 11 28z" />
    <glyph glyph-name="m" unicode="m" horiz-adv-x="575" 
d="M156 453q11 2 27 -2q8 -2 24 -12t21 -17q16 -21 19 -30q18 -37 19 -64q0 -3 6 5q1 2 3 5q55 81 127 100q9 2 27.5 2.5t27.5 -1.5q15 -2 33 -20q7 -7 17.5 -25.5t10.5 -23.5v-2q1 -1 2 -3t1 -3q4 -7 6 -19.5t3.5 -32t2.5 -24.5q5 -33 -3 -133q-2 -24 -5 -48t-7 -67
q-2 -23 -9 -30q-6 -6 -26 -7l-20 -1l-7 8q-10 11 -11.5 16.5t-0.5 22.5q0 12 12 116q4 44 5 57t-1 30t-3 33q-6 81 -26 84q-14 2 -37 -12q-9 -5 -28.5 -25.5t-31.5 -36.5q-44 -62 -61 -160q-2 -14 -13 -25q-4 -4 -19 -4q-25 0 -35 11t-10 82q0 97 -6 133q-4 29 -20 42l-7 6
l-9 -10q-14 -16 -24 -39q-5 -11 -12.5 -36t-7.5 -30q0 -2 -4 -22q-4 -18 -3 -30q0 -4 2 -90t3 -88q2 -7 -2 -16q-5 -11 -9 -13t-23 -3q-24 -1 -27 1q-15 9 -15 22q0 4 -2 14q-10 47 -10 81q0 79 4 99q3 18 6 29.5t4.5 21t1.5 37.5l1 44l5 9q5 8 15 9l9 1l9 17q34 57 81 67z
" />
    <glyph glyph-name="n" unicode="n" horiz-adv-x="370" 
d="M175 428q5 3 24.5 0.5t23.5 -6.5q2 -2 14 -6l11 -11q22 -22 34 -54q1 -5 5 -9q2 -2 10.5 -28.5t8.5 -30.5q0 -6 10 -46q8 -25 10 -65q0 -18 2 -24q3 -19 3 -60t-3 -57q-4 -30 -14 -43l-4 -8q0 -2 -19 -4q-4 -1 -15.5 6.5t-13.5 8.5q-18 7 -12 34q5 27 5 77t-5 84
q-5 30 -20 89q-5 22 -17 48.5t-18 29.5q-2 2 -17 -5q-13 -6 -33 -26q-26 -26 -37 -51q-9 -21 -11 -34.5t-1 -50.5q2 -46 3 -49q5 -16 8 -57.5t-1 -49.5l-2 -6q-1 -5 -4 -10q-5 -10 -13 -13t-28 -4q-16 0 -27 22q-5 11 -10 46q-3 24 -2 216q0 74 5 80q2 3 16 6t20 0
q6 -4 6 -6q0 -9 16 5q34 34 52 43q25 14 26 14q12 4 14 5z" />
    <glyph glyph-name="o" unicode="o" horiz-adv-x="403" 
d="M177 409q2 0 9.5 3t10.5 3q41 7 70 -11q17 -9 27 -17q6 -4 19 -17.5t14 -16.5q0 -1 7 -13t7 -13q0 -2 4 -10t4 -9t4 -11q8 -22 10 -56t-5 -63q-10 -35 -13 -38q-1 -1 -5 -9q-2 -4 -11 -16.5t-11 -15.5q-16 -23 -33 -40q-8 -8 -23.5 -19.5t-18.5 -11.5q-1 0 -11 -6
q-30 -19 -62 -24q-23 -4 -50 0t-41 15q-2 1 -4 2.5t-4.5 3t-3.5 2.5q-27 16 -43 72q-4 14 -4 60q0 37 2.5 51t13.5 51q14 46 30 69l6 10q0 2 12 16.5t19 21.5q28 26 50 33q18 4 24 4zM263 312l-14 -8q-14 -7 -15 -7q-2 0 -10 7.5t-9 7.5q-2 0 -4 4q-2 3 -8.5 7.5t-7.5 6.5
q-3 3 -4 1t-8 -2t-9 2q-4 7 -21 -12q-46 -49 -60 -144q-6 -41 7 -73q7 -19 16 -25t32 -6q21 0 58 21q41 25 66 71q24 41 15 88q-5 24 -6 27q-13 34 -18 34z" />
    <glyph glyph-name="p" unicode="p" horiz-adv-x="441" 
d="M219 443q4 2 22 -2q47 -11 64 -24q9 -7 12 -7q2 1 17 -15.5t19 -23.5q23 -36 33 -73q2 -6 4 -10t4 -11q12 -50 5 -106q0 -3 -4 -18t-4 -17q0 -5 -8 -17q-4 -6 -6 -10l-3 -6t-4 -5.5t-11 -11.5q-18 -18 -31 -24q-23 -12 -29 -14q-65 -17 -110 -5q-39 8 -68 22l-15 7v-19
q0 -20 -1 -21t-3.5 -79t-2.5 -82q-2 -7 -2 -41q0 -11 -6.5 -23t-12.5 -12q-4 0 -8 -2t-16 2q-6 2 -11 3t-10 4q-17 10 -11 52q2 17 4 61.5t3.5 101.5t2.5 80q4 60 4 84q2 34 3 40q4 30 -3 44q-2 6 -1 32t6 37q5 10 5 14q0 6 21 31q4 5 7.5 9.5t5.5 7t3 3.5q2 3 17.5 12
t24.5 12q7 3 11.5 5t11.5 4q6 1 9 4q1 2 20.5 4.5t28.5 1.5q8 -1 13 1zM226 368q-35 4 -61 -5q-37 -11 -52 -30l-7 -9l1 -13q0 -3 0.5 -15.5t1 -34.5t0.5 -38l2 -75h6q7 0 24 -10q25 -16 54 -21q37 -8 70 -1q44 10 56.5 46.5t-2.5 100.5q-4 21 -15 43q-11 23 -24 35
q-26 24 -54 27z" />
    <glyph glyph-name="q" unicode="q" horiz-adv-x="472" 
d="M128 357q1 0 4.5 3t4.5 3q2 0 6 3.5t5 3.5q30 17 32 17q6 0 9 3q1 1 16.5 4t17.5 2q4 -2 11 -2q5 0 22 -5q7 -2 12.5 -5.5t10.5 -6.5q8 -4 16.5 -11t12.5 -9q12 -8 19 -19q4 -6 5.5 -5.5t5.5 8.5q3 7 8 8.5t20 -0.5q17 -1 20 -4.5t3 -19.5q0 -15 -3 -32.5t-7 -33
t-4 -18.5q-3 -18 -5 -27q-16 -88 -14 -94q5 -15 -3 -27q-6 -9 -9 -33q-23 -148 19 -234q9 -18 18 -26q13 11 28 0q3 -2 6.5 -4t5 -2.5t3.5 -2t3.5 -4.5t3.5 -8q4 -12 -12 -30q-9 -10 -30 -15q-11 -4 -31 6.5t-30 24.5q-19 30 -20 33q-14 30 -24 69q-1 2 -1.5 6t-1 6
t-1.5 4.5t-1 3.5q-2 6 -3.5 18.5t-0.5 14.5v4q-6 37 2 99q-19 -13 -47 -20l-20 -5q-45 -11 -84 2q-30 12 -44 21q-33 23 -33 30q0 1 -4 7q-9 12 -21 56q0 2 -1 5t-1.5 5t-0.5 3t-0.5 5.5t-0.5 7.5q-1 10 1.5 27.5t4.5 22.5q3 5 8.5 26.5t8.5 24.5l8 16q4 9 16 26t14 21
q5 9 25 31t22 22zM242 330q-28 10 -59 -11q-49 -34 -80 -95q-15 -28 -18.5 -63.5t10.5 -64.5q28 -48 96 -39q35 5 70 28q24 16 27 30q16 86 17 90q1 8 8 40.5t7 38.5q0 2 -7 5l-14 6t-8 4q-2 2 -12 9t-12 9q-7 7 -25 13z" />
    <glyph glyph-name="r" unicode="r" horiz-adv-x="437" 
d="M165 421q3 1 32.5 3t32.5 2q3 1 31 -6t40 -11q2 -1 11.5 -4.5t12 -4.5l10 -4t11 -5t10 -5.5t10.5 -6.5t9 -7.5t9 -9.5q11 -13 12 -17t-1 -18t-18 -18q-11 -3 -11 -4q-17 -10 -42 11q-13 11 -29 18q-24 10 -62.5 14.5t-59.5 -0.5q-47 -11 -66 -43q-8 -14 -3 -14q3 0 3 -13
q0 -51 3 -107t4 -79q2 -50 4 -57q5 -21 -4 -30q-11 -11 -42 -11q-16 0 -21 6q-7 8 -11 32q-1 10 -5 30t-6 39q-2 15 -5 34.5t-3.5 34t-0.5 50.5q0 60 4 76q12 43 30 61q6 6 8 12q2 7 3 7q2 0 12 8q28 23 88 37z" />
    <glyph glyph-name="s" unicode="s" horiz-adv-x="382" 
d="M168 449q13 2 34 -2q13 -2 25 -8q14 -6 18 -16q5 -12 5 -13l-10 -20q-9 -17 -17 -19q-11 -4 -23 0q-43 14 -81 -26q-11 -11 -19 -24q-10 -19 -2 -21q2 -2 30 2l28 2l26 14q16 8 38 16q17 5 27 5q11 0 17.5 -1t8.5 -2t7.5 -3.5t9.5 -4.5q8 -4 19.5 -14.5t15.5 -18.5l3 -7
q3 -11 3 -14q0 -9 3 -21q14 -57 3.5 -94.5t-47.5 -71.5q-17 -17 -23 -22q-15 -14 -51 -30q-7 -3 -54 -14q-8 -2 -26 -2t-38 10q-9 5 -15 9t-8.5 7t-7.5 9.5t-9 11.5q-23 27 -28 55q-5 31 2 40t10.5 11t17.5 3q18 2 23 -1t8 -18q0 -3 5 -11t5 -12q0 -11 23 -32q9 -9 18 -8
q53 8 72 24q4 4 15.5 14.5t17.5 16.5t13 17.5t8 22.5q1 8 -4 38.5t-8 34.5q-6 8 -36 -7q-30 -16 -48 -20.5t-57 -7.5q-19 -2 -35 2q-5 1 -11 2.5t-7.5 2t-5 2t-6.5 4t-8 8.5q-13 15 -19 30q-10 51 15.5 90t68.5 61q35 17 61 21z" />
    <glyph glyph-name="t" unicode="t" horiz-adv-x="371" 
d="M147 593q0 2 4.5 7.5t5.5 5.5q10 -2 21 -4q22 -4 25 -10q3 -10 -7 -79q-6 -45 -13 -69q-1 -3 -3 -13l-2 -8h37q68 0 84 -7q11 -3 11 -21q0 -1 1.5 -8t1.5 -12.5t-3 -5.5l-2 -6q-2 -5 -7.5 -10t-10.5 -5h-63q-59 0 -60 -3q-1 -2 -11 -84q-2 -12 -2 -43q0 -98 35 -132
q9 -9 21 -12q15 -3 34.5 2.5t29.5 15.5l9 9l14 -1q22 -3 30 -12q5 -5 4 -22q-1 -22 -15 -35q-3 -2 -12 -7.5t-16.5 -9.5t-7.5 -3q-7 -1 -15 -4q-61 -19 -107 10q-16 11 -23.5 18t-19.5 24q-10 15 -24 62q-15 58 -10 111q3 36 4 53q2 27 4 37q4 15 -2 17.5t-23 -0.5
q-20 -1 -29 5q-10 6 -12 14q-6 25 -2 34q5 11 15 14q3 1 29 4.5t31 3.5t6 2.5t4 24.5q3 16 15 70q1 5 3 10.5t3 12.5q4 24 11 38q3 8 3 10t3 5.5t3 5.5z" />
    <glyph glyph-name="u" unicode="u" horiz-adv-x="419" 
d="M302 411q15 9 17.5 10t19.5 0q8 -2 21 -29q15 -34 18 -69q2 -26 2 -72t-1 -52q-1 -4 -5 -28q-8 -55 -30 -84q-25 -31 -32 -33q-3 0 -6 -3q-9 -8 -38.5 -19.5t-57.5 -17.5q-45 -10 -75 -5q-78 13 -100 83q-25 80 -11 151q1 7 2.5 23.5t3.5 29t6 17.5q2 3 5 16t4 16
q3 6 3 13q0 5 8 24t11 23l8 8t3 2t3 1q3 3 24 -6q19 -7 22.5 -12t0.5 -17q-2 -7 -2 -14t-4 -18q-14 -44 -16 -66q-5 -51 -9 -59q-2 -2 -0.5 -37.5t3.5 -49.5q5 -28 18 -43q7 -7 12.5 -8.5t30.5 -2.5q54 0 87 19q26 14 36.5 30t14.5 47q4 27 5 28q2 4 2 43t-2 42q-1 2 -3 27
q-1 26 -15 58q-5 10 -2 18q2 7 18 16z" />
    <glyph glyph-name="v" unicode="v" horiz-adv-x="404" 
d="M84 376q0 -2 4 -10.5t4 -11.5q0 -6 5 -19q16 -42 29 -98q16 -64 37 -129l5 -17l19 36q4 9 9 20t9.5 21.5t5.5 12.5q8 18 9 20q7 11 41 117q5 17 11.5 35t11 30.5t4.5 13.5q6 12 13 19l10 9q10 1 12 0q5 -2 21 -11.5t17 -11.5q7 -8 -1 -26q-5 -10 -31 -88
q-26 -81 -36.5 -107t-44.5 -94q-27 -54 -27 -56q-1 -4 -11.5 -19t-14.5 -19q-11 -7 -24 -7q-16 -5 -26 0q-8 4 -18.5 15t-11.5 17q-2 9 -9 26.5t-9 23.5q-32 103 -35 120q-3 13 -5.5 25t-6 26t-6.5 25t-8.5 30t-9 35t-5.5 34q-2 23 2 28q9 12 27 13q25 2 25 -7q0 -3 1 -5
q2 -2 2 -4t3 -6.5t3 -5.5z" />
    <glyph glyph-name="w" unicode="w" horiz-adv-x="466" 
d="M355 455q17 17 31 10q3 -2 6 -2q4 0 16 -8q14 -9 17 -39q2 -11 0.5 -19t-0.5 -18q1 -4 -2 -72t-3 -72q0 -30 -20 -99q-6 -22 -21.5 -53t-29.5 -45q-10 -10 -10 -12q0 -3 -18 -14l-18 -12h-17q-26 0 -26 6q0 1 -3 1q-8 0 -21 15q-27 31 -27 39q0 3 -3 9q-2 3 -14 40
q-1 1 -10 -16q-30 -62 -68 -65q-40 -3 -63 37q-8 13 -6 15q1 1 -2 4q-5 5 -11 36.5t-7 50.5q0 8 -3 32q-2 20 -2 91v76l5 10q5 10 9.5 12.5t17.5 2.5q16 0 22 -4t6 -15q0 -8 1 -9q4 -4 9 -101q1 -10 2 -28t1.5 -29t1.5 -16q4 -22 4 -36q3 -41 9 -47q1 -1 3.5 2t6 9t6.5 12
q18 44 30 79q0 1 10 17q10 15 19 19t25 1q14 -2 19 -12q1 -1 5 -5.5t4 -7.5t2.5 -10t2.5 -12q1 -14 3 -22.5t5.5 -18.5t6.5 -20q9 -36 19 -54q7 -13 9.5 -13t10.5 8q23 25 41 85q10 34 11 81q0 25 2.5 50.5t3.5 56.5q1 47 -3 51q-4 5 -2 24t7 24z" />
    <glyph glyph-name="x" unicode="x" horiz-adv-x="511" 
d="M367 494q6 2 19.5 0t13.5 -6q0 -3 8 -8q20 -13 21 -29q1 -8 -13 -27.5t-23 -28.5q-9 -10 -42 -53q-35 -45 -39.5 -51.5t-2.5 -9.5q6 -10 30 -24q9 -6 27 -24q45 -45 84 -116q3 -5 18 -28q3 -8 3.5 -10.5t-4 -11t-4.5 -9.5q-6 -13 -14 -13q-2 0 -10 -5.5t-10 -4.5
t-6.5 1.5t-8 1.5t-5.5 3q-3 3 -7 5q-2 0 -14 19.5t-24 40.5t-13 22q-14 19 -40.5 45.5t-38.5 34.5q-6 4 -11 9t-10 1l-2.5 -2.5l-3 -3l-2.5 -2.5q-6 -9 -38 -44.5t-35 -39.5q-6 -7 -30 -36t-32 -39q-22 -28 -33 -32t-27 7q-22 15 -26 23.5t3 21.5q12 24 28 40q8 7 33 38
t34 41q13 13 19 22q3 4 20 23t19 21l10 10l7 8l-9 10q-8 10 -12 10q-2 0 -38 36t-50 51q-12 14 -12 15q0 2 -7 12q-7 11 -7 19q0 9 15 24t22 14q9 -1 20 -10q4 -3 10 -6.5t14 -11.5q21 -21 62 -59t43 -38q5 0 66 81q18 22 20 25q8 9 9 16q1 6 8.5 13.5l9.5 9.5q3 7 8 9z" />
    <glyph glyph-name="y" unicode="y" horiz-adv-x="438" 
d="M301 -149q-1 0 -9 -5t-9 -5q-2 0 -4 -2q-1 -1 -20 -5t-48 -4q-38 0 -81 14q-60 20 -86 43l-9 7q-2 0 -6.5 8.5t-4.5 11.5t-1.5 8.5t-2 8.5t0.5 9q2 4 7 9t6 4q1 0 3 0.5t4 0.5l2 1q7 0 38 -21q13 -9 62 -31q30 -10 68 -11q30 -1 38 2q32 16 32 18t7 11q26 34 44 123
q1 4 3 38l1 32l-7 -10q-41 -53 -102 -84q-16 -8 -31 -10q-8 -2 -10 -4q-9 -5 -29 -2.5t-29 7.5q-23 12 -31 25q-30 43 -30 90q0 13 -2 21q-1 8 0 59q2 58 9 101q1 4 1 10q5 26 9 30l1 1q6 6 18 6q17 0 24 -7q9 -9 4 -76q-7 -64 -3 -132q2 -34 10 -54q7 -16 20 -20
q10 -2 33 7t40 22q36 28 54 54q21 29 21 38q0 1 4 15q4 12 4 57t3 60l3 15q0 4 7 8.5t13 4.5q8 0 11 1q10 3 22 -8q6 -5 7 -10t-1 -22q-2 -18 0 -30q2 -11 12 -77q13 -79 4 -150q-7 -59 -12 -64q-2 -2 -9 -26q-3 -7 -3 -11q0 -5 -9 -24.5t-17 -30.5l-7 -11q1 -2 -16 -18
t-21 -16z" />
    <glyph glyph-name="z" unicode="z" horiz-adv-x="415" 
d="M225 282l7 9l8 9q0 2 1 2q3 0 12 9l9 9h-21t-30 -0.5t-18 -0.5q-14 0 -26 -1q-3 0 -42 -0.5t-50 -2.5q-51 -7 -51 17q0 3 -2 12t-1.5 15.5t4.5 8.5t4 3t2 1t4 2q1 2 14 2t15 1q5 2 30 1.5t26 -0.5q68 0 76 4q160 4 160 -10q0 -2 3 -2q2 0 4 -4.5t3 -4.5t1 -2q0 -1 3 -5
t3 -6t2 -4t0 -4q-2 -4 -2 -6q0 -3 -7.5 -11.5t-9.5 -8.5q-1 0 -9.5 -8.5t-9.5 -8.5q-2 0 -36 -34q-22 -22 -43 -46l-7 -7q0 -1 -25.5 -30.5t-31.5 -35.5q-23 -23 -38 -39q-5 -6 -8 -8.5t-4 -3.5t-4 -3.5t-8 -6.5l-10 -10l11 2q2 0 18 2t24 2q5 0 22.5 3t25.5 2h4h29.5h29.5
q19 -3 22 -5q2 -1 13 -2.5t12 -2.5q8 -4 15 -4q12 -1 20 -10q3 -3 3.5 -6t-0.5 -9t-1 -9q0 -13 -9 -19q-13 -8 -46 -2q-4 1 -10 2t-9.5 2t-4.5 1q-7 0 -9 1q-4 2 -30.5 1.5t-41.5 -2.5q-4 -1 -26.5 -2t-29.5 -3q-6 -2 -12 -2q-1 0 -8 -1t-11.5 -2t-7.5 0q-1 1 -20 -2t-19 -4
t-3 -1t-8 1l-10 2q-12 5 -16 11t-6 10q-7 16 -2 34l19 34q0 1 33 34q51 51 51 52l31 34q0 1 4 5l29 33l4 5l8 8l5 4q1 0 5.5 5t4.5 7z" />
    <glyph glyph-name="braceleft" unicode="{" horiz-adv-x="286" 
d="M45 323q2 0 11 4t12 4q6 0 16 8q8 6 9.5 8t0.5 8q-1 8 -9 23.5t-9 18.5q-3 8 -18 35q-13 23 -17 38t-8 48q-1 19 0 20q2 2 2 9q0 6 2 6t2 3t14 29q3 5 14.5 16t15.5 13q5 2 12 7q27 21 49 21q7 0 16 3t11 3q20 3 46 -5q15 -6 15 -20q0 -32 -9 -43q-7 -7 -37 -10
q-28 -3 -36 -9q-24 -15 -31 -28l-5 -9l4 -18q5 -24 18.5 -44.5t18.5 -38.5q2 -5 7 -14t6 -9q2 0 5 -14q3 -12 3.5 -34.5t-2.5 -24.5q-1 -1 -3 -8q-1 -4 -5.5 -11.5t-4.5 -11t6 -12.5q8 -8 8 -9l6 -16q14 -34 8 -65q-6 -30 -9 -34q-2 -4 -6 -16q-9 -31 -21 -45
q-2 -2 -10.5 -19.5t-8.5 -19.5l-8 -14q-21 -33 10 -61q8 -7 18 -6q6 1 18 1q6 0 12 2q19 7 37 -2l12 -6l7 -18q9 -27 3 -37q-5 -10 -19 -10q-4 0 -6 -2l-2 -1q-3 -1 -6.5 -2.5t-6.5 -2.5q-13 -6 -34 -5q-35 2 -44 11q-2 2 -4 2q-3 0 -9 4t-12.5 9t-8.5 6q-11 7 -23.5 17.5
t-12.5 13.5q0 2 -3 5q-5 5 -10 32t-4 37q6 39 19 61q31 54 38 74q8 23 11 35l3 16l-5 10q-7 15 -24 11q-6 -2 -30 5q-16 4 -20 7.5t-5 14.5q0 4 -2.5 11t-2.5 13q-1 8 3.5 16.5t9.5 9.5q2 0 6 3t6 3z" />
    <glyph glyph-name="bar" unicode="|" horiz-adv-x="156" 
d="M43 563q1 0 9 1t14 1q16 0 21.5 -2.5t7.5 -11.5q3 -15 3 -99q0 -49 2.5 -108.5t2.5 -103.5q0 -55 3.5 -114.5t7.5 -67.5q2 -5 2.5 -16.5t-1.5 -18.5q-4 -12 -11.5 -15t-30.5 -3q-11 0 -15.5 2.5t-11.5 13.5q-5 9 -9 31q-7 39 -10 167q-2 104 -4 106q-1 1 -2.5 83t-0.5 91
q3 61 23 64z" />
    <glyph glyph-name="braceright" unicode="}" horiz-adv-x="303" 
d="M73 655q3 0 5 1t4.5 2t5.5 2q7 2 34 0q18 -2 29 -5q31 -8 43 -22q7 -7 9 -7q1 0 2.5 -2t4 -6t4.5 -7q19 -24 22 -57q4 -41 -9 -81q-19 -54 -26 -54q-3 0 -3 -2q0 -3 -10 -18q-17 -28 -17 -37q0 -12 33 -23q22 -8 26 -8q4 -1 7 -3.5t7 -4.5q12 -5 13 -11q0 -1 3 -4
q6 -4 -2 -35q-1 -8 -10 -12q-25 -11 -29 -12q-26 -4 -28 -14q-4 -18 13 -56q1 -4 3.5 -9t3.5 -8l1 -3q0 -3 3 -6q10 -16 12 -75q3 -70 -19 -113q-4 -8 -4 -9q0 -2 -5.5 -9.5t-7.5 -7.5q-3 0 -3 -3q0 -7 -13.5 -19t-27.5 -17q-9 -3 -23 -7q-9 -3 -12 -3.5t-11.5 1t-18.5 1.5
q-35 1 -49.5 9.5t-12.5 26.5q1 10 7 27t10 19q9 5 38 -1q19 -5 34 0q16 5 27 36q4 13 8 40t2 38q-5 38 -12 51q-16 33 -16 39q0 5 -3 14q-8 34 -6 55q3 16 8 23q4 5 4 9t3 7t-11 17q-14 13 -18.5 25t-4.5 38q0 36 16 56q18 24 35 58q14 27 15.5 51t-14.5 39q-21 14 -42 11
q-14 -2 -23 4q-22 14 -22 47q0 10 7 17t11 7z" />
    <glyph glyph-name="asciitilde" unicode="~" horiz-adv-x="592" 
d="M536 428q0 -1 5 -3t5 -3q0 -2 4 -6q3 -4 1 -23q0 -5 -1 -10t-2 -8v-3l-1 -2l-3 -3l-4 -4q-7 -9 -12 -17q-13 -21 -57.5 -48.5t-75.5 -24.5q-49 5 -63 14l-6 4q-9 6 -20 13q-55 36 -69 42q-31 15 -73 -8q-14 -7 -42 -35q-29 -27 -35 -30q-4 -2 -9 -6.5t-9.5 -6.5t-11.5 -2
t-22 16q-15 17 -15 26q0 15 14 29q4 2 4 5q0 2 21 23.5t30 27.5q3 2 24 15t24 15q5 2 23 9q22 8 44 8q38 0 69 -15q14 -7 16 -7q58 -38 72 -46q19 -11 28 -12t29 7q14 7 31.5 22.5t16.5 20.5q-1 11 19 28q3 3 7.5 2.5t7.5 1.5q6 5 21 2.5t15 -8.5z" />
    <glyph glyph-name="brokenbar" unicode="&#xa6;" horiz-adv-x="150" 
d="M28 631q0 11 2 31q0 4 7 11q6 7 25 9q10 1 22 1q5 0 11 -8t6 -14q0 -8 3 -11q2 -4 5 -59q2 -56 -3 -113q-5 -53 -4 -101q2 -68 2 -81t-5 -21q-7 -14 -28 -16q22 -7 31 -25q6 -12 6 -129q0 -83 2 -127q1 -44 -2 -78q-2 -26 -8 -52q-1 -6 -10 -10t-27 -1q-29 5 -33.5 14
t-1.5 54q2 50 -2 118q-2 26 0 99t5 91q4 23 5 24q2 2 2 5q0 7 7.5 12t14.5 4q3 -1 4 -1l-5 4q-8 4 -11 4t-10.5 3.5t-7.5 4.5l-4 6q-3 3 -2 21q1 17 -2 25q-2 7 -2 61t2 59q2 4 4 31q3 37 2 155z" />
    <glyph glyph-name="plusminus" unicode="&#xb1;" horiz-adv-x="510" 
d="M25 405q1 0 3 3t4 3q4 0 8 3q8 7 31 10q29 4 48 8t47 6q32 2 33 3q2 0 1 40.5t-3 53.5q-3 20 0 26t19 15q15 10 21 12q3 2 11 2t10 -2q6 -10 13 -22l14 -22l-1 -31q0 -29 -2 -45v-22q1 -7 5 -8q5 -1 43 -5q65 -7 108 0q10 1 15 -4q8 -8 8 -11q8 -37 6 -46q-3 -11 -21 -17
q-13 -4 -52.5 -5t-66.5 2q-8 1 -20.5 3t-15.5 2l-12 1l-2 -33q-3 -50 5 -68q3 -7 3 -13q-2 -13 -7 -13q-2 0 -6 -7q-6 -11 -18 -11q-2 0 -8 -3t-9 -2q-12 2 -19 6q-5 3 -5 5t-5 9q-11 15 -11 82v50l-46 -2q-58 -3 -93 0q-24 1 -34 13q-3 4 -4 18.5t5 15.5zM250 178
q11 1 77 0t96 -2q29 -1 35.5 -3t10.5 -9q2 -4 1.5 -23t-2.5 -29q-3 -14 -16 -17q-3 -1 -42 1q-93 3 -124 3q-22 0 -43 -1q-52 -1 -129 -18q-40 -9 -46 -9q-9 0 -18 6q-6 4 -12 21q-1 4 -2.5 8t-2 5.5t-1 4t-0.5 4t1 4t3 6.5q4 8 8.5 10.5t21.5 8.5q25 8 62 15q53 10 122 14z
" />
    <glyph glyph-name="Aring" unicode="&#xc5;" horiz-adv-x="534" 
d="M268 837q10 2 26.5 1.5t20.5 -2.5q32 -18 34 -20q4 -4 15 -24t13 -28q7 -28 5 -41q0 -18 -5 -30q-3 -5 -3 -11q0 -10 -17.5 -37.5t-27.5 -32.5q-2 -1 -19.5 -14t-20.5 -14q-6 0 -8 -2q-1 -1 -26 -9q-39 -10 -74 6q-8 4 -22 19.5t-18 25.5q-3 8 -7.5 25.5t-3.5 19.5l2 20
q4 57 30 90q5 7 21.5 20t21.5 14q6 1 6 4q0 2 25 10q22 8 32 10zM292 741q-4 8 -7 8q-22 -3 -25 -5q-1 -1 -11 1q-8 2 -18 -9q-18 -19 -18 -56q0 -6 0.5 -10t0.5 -6.5t1 -4.5l1.5 -3t3 -3.5l3.5 -3.5l17 7q21 8 30 15.5t17 23.5q14 27 5 46zM145 206v-15l-1 -6
q-1 -6 -3 -17.5t-4 -21.5q-1 -9 -6.5 -41t-7.5 -45q-8 -44 -11 -54q-5 -15 -5 -17q0 -15 -11 -24q-3 -2 -26 -2.5t-33 1.5q-6 2 -12 9q-5 7 -5 37q0 28 5 56q3 16 5.5 35t4.5 32q7 39 13 71q2 15 14 59.5t16 52.5t4 15q2 23 42 105q27 55 47 74q10 10 8 10q-5 0 15 15l4 3
q3 2 9.5 8t12 9t13.5 3q44 2 53 -2q37 -15 47 -25q6 -6 10 -6q3 0 22.5 -22.5t28.5 -37.5q44 -68 64 -159q26 -119 33 -196q1 -14 2 -34t1 -35t-1 -15q-2 0 -3.5 -15.5t-4.5 -15.5q-1 0 -2.5 -3.5t-3.5 -7.5l-2 -4q-3 -3 -13.5 -9t-11.5 -5q-9 3 -22 3q-4 1 -10.5 5.5
t-10.5 5.5q-8 2 -13 15q-5 12 -3 24q2 11 2 45t-2 47q-7 41 -13 95q-1 11 -5 23l-39 -7q-41 -7 -81 -9q-21 -1 -46 -4t-44 -3h-20zM275 457q-7 6 -14 6q-4 0 -14.5 -10.5t-18.5 -23.5q-21 -30 -48 -114q-4 -16 -2 -16q7 3 51 7.5t84 8.5t40 5q0 18 -22 62q-29 57 -56 75z
" />
    <glyph glyph-name="Eacute" unicode="&#xc9;" horiz-adv-x="475" 
d="M335 846q12 3 17.5 1t18.5 -14q22 -22 21 -34q-1 -23 -26 -45q-3 -3 -16 -14.5t-20 -18.5q-21 -21 -24 -21q-1 0 -27 -23.5t-30 -28.5q-4 -6 -21 -21.5t-20 -17.5q-7 -2 -18 -12q-10 -8 -16 -9.5t-23 0.5q-4 0 -20 20q-16 18 -16 31q0 8 2.5 12t17.5 20q44 46 134 125
q54 47 66 50zM240 552q14 2 80 2q49 0 57 -2t18 -15q7 -10 8 -29q1 -21 -7 -31q-10 -12 -19.5 -15t-44.5 -3q-27 0 -48 -1t-34.5 -1.5t-31 -3t-25.5 -4t-31 -5.5t-35 -6q-3 0 -4.5 -0.5t-2.5 -2t-1 -3v-6.5q0 -11 3 -14t2 -53l-1 -50q93 14 98 5q1 -1 10 -3q14 -2 26.5 -19
t5.5 -34q-2 -3 -7.5 -11t-7.5 -14q-7 -16 -30 -13q-25 2 -83 -6l-18 -2v-68q0 -67 4 -69t2 -2t2 -4q6 -6 4 -18q0 -1 11 -0.5t17 1.5q11 1 55 7.5t59 8.5q14 1 49 6q23 3 55 3.5t38 -2.5q19 -9 19 -30q0 -11 2 -19q3 -8 -2.5 -19.5t-15.5 -17.5q-11 -6 -29 -6
q-20 0 -54.5 -4t-77 -10.5t-58.5 -8.5q-37 -5 -39 -5q-96 -12 -119 1q-14 9 -18 22q-2 6 -0.5 25t4.5 24q3 8 0 16q-8 23 -3 190q5 137 5 210v28q0 23 4.5 29.5t28.5 16.5q19 8 28.5 11t13.5 3.5t15 1.5t24 3q75 13 99 16z" />
    <glyph glyph-name="Ograve" unicode="&#xd2;" horiz-adv-x="501" 
d="M119 822q14 4 26 -2q8 -4 14 -4t14 -8q8 -6 19 -13q8 -4 42 -36t35 -33q34 -26 72 -36q14 -4 14 -7q0 -2 3 -2q7 0 11 -32q2 -17 -2 -22q-3 -4 -11.5 -9t-11.5 -7q-11 -11 -27 -11q-7 0 -29 8t-27 12q-4 2 -5 1t-19.5 11.5t-31.5 23.5q-15 12 -62 58q-37 36 -44 50
q-6 15 -5.5 19.5t7.5 19.5q6 12 9 15t9 4zM203 547q7 4 30.5 4t28.5 -4q5 -3 19 -5q44 -4 75 -19q36 -18 55 -41t31 -63q7 -23 9.5 -34.5t4 -27.5t2.5 -27q8 -53 0 -135q-1 -10 -2.5 -30t-2.5 -27.5t-3 -21.5t-5 -25.5t-8 -24.5q-20 -55 -55 -83t-93 -35q-74 -9 -120 11
q-2 1 -13.5 5t-15.5 8q-3 5 -8 5q-4 0 -18 9q-29 18 -53 57t-34 82q-4 14 -6.5 48t-0.5 51q5 52 10 77q2 14 1 15q-1 2 5 27.5t8 28.5t6 14t7 14q10 13 19 33q42 86 110 107q13 4 17 7zM293 438q-16 11 -63 14q-18 2 -36.5 -16t-38.5 -59q-27 -53 -35 -128q-6 -51 3.5 -98
t33.5 -74q11 -14 46 -26q23 -8 44 -8q25 0 42 3q22 4 31 12q8 6 13 14t6.5 11t5 17l4.5 18q6 19 12 91q9 107 -13 184q-7 22 -13.5 29.5t-20.5 8.5q-15 2 -21 7z" />
    <glyph glyph-name="Udieresis" unicode="&#xdc;" horiz-adv-x="472" 
d="M299 757l17 8l16 -4q29 -8 36 -12t13 -14q3 -5 4.5 -9.5t2 -8t0 -9t-1 -8t-2 -9t-2.5 -9.5q-2 -9 -11 -21t-18 -17q-21 -12 -23 -13q-23 -8 -46 0.5t-30 27.5q-11 27 -5 43q16 39 50 55zM93 746q23 17 33 17q11 0 17.5 -4.5t19.5 -20.5q15 -18 15 -29q0 -9 -4 -17
q-1 -2 -32 -29q-28 -23 -40 -22.5t-32 25.5q-15 18 -15 29q0 21 38 51zM358 557q0 2 5.5 3t12 2.5t8.5 3.5q8 5 22 -3q9 -5 21 -35q6 -16 6 -121q-1 -181 -10 -254q-7 -57 -21 -91q-7 -17 -19 -33q-10 -14 -28 -31t-23 -17q-3 0 -15.5 -6t-14.5 -6q-1 0 -4.5 -1t-8.5 -2
t-8 -2q-50 -11 -97 -1q-13 3 -20 4.5t-9.5 2.5t-7.5 4.5t-10 6.5q-14 7 -17 9q-6 3 -21 19t-15 19q0 2 -8 14q-14 21 -25 56q-6 17 -9 22q-3 6 -9.5 50.5t-9.5 84.5q-6 83 8 239q2 21 4 24q4 6 4 10q0 5 5.5 15t9.5 13q6 4 28 0q18 -3 24.5 -6.5t7.5 -12.5q3 -14 4 -160
q1 -172 17 -233q16 -62 54 -82q15 -7 37 -7q54 0 82 38q5 6 10 22t4 19q-1 2 2 25.5t5 29.5q2 9 5 179q1 119 -3 139q-4 21 0 30t21 15q6 3 6 5z" />
    <glyph glyph-name="divide" unicode="&#xf7;" horiz-adv-x="512" 
d="M236 500q16 5 18 5q6 0 13.5 -3.5t8.5 -6.5t11.5 -11t10.5 -9q4 -12 -4 -29q-13 -25 -15 -23q0 4 -9 -9l-2 -3q-7 -11 -22 -12q-12 1 -17.5 -0.5t-11 2t-7 5t-6 7t-7.5 8.5q-7 8 -7 19q0 12 8 27t16 17q4 2 4 3q0 4 18 13zM372 329q2 1 30 0.5t42 -2.5q17 -2 23 -8
q5 -6 5 -25q0 -18 -3 -26q-2 -5 -8 -11.5t-9 -6.5q-24 -2 -227 -2q-111 -1 -148 -5q-7 -1 -32 2q-13 1 -18 10t-6 31l-1 14l8 7q7 7 10 7t3 1q0 4 41 8q22 2 154 4zM227 162q24 5 38 -3q11 -7 22 -29q15 -26 2 -38q-6 -6 -6 -7q0 -2 -7.5 -13t-8.5 -11q-3 0 -8 -5
q-16 -13 -39 -1q-7 4 -12 4q-2 0 -2 2q0 1 -3 3q-4 1 -6.5 4.5t-4.5 12t-3 10.5q-4 3 -2 15t2 14q0 5 7 19.5t11 16.5q6 3 20 6z" />
    <glyph glyph-name="quotedblright" unicode="&#x201d;" horiz-adv-x="334" 
d="M186 647q-1 0 -7 6t-8 6q-4 0 -8 7q-1 3 0 3q0 3 -3 10q-8 19 2 30q2 2 3.5 4.5t2.5 4t2 3.5t3.5 3.5t6.5 2.5q7 2 21 -6q25 -12 24 -15q0 -2 7 -5q5 -2 8.5 -8t5.5 -8t12.5 -17t12.5 -17q3 -3 3 -5q0 -1 1.5 -4.5t3.5 -8.5t4 -9.5t3 -7.5l2 -3l2 -6q1 -6 2 -12.5t1 -7.5
v-41q0 -13 -2 -13t-6 -6q-14 -22 -38 -11q-1 0 -4 2l-4 1q-11 2 -15 9.5t-6 27.5q-2 22 -1 23q1 2 -0.5 7.5t-4.5 12.5t-4 10q-2 6 -4 7.5t-4 7.5q-2 9 -4 9q-1 0 -5 7t-5 7zM30 676q6 3 40 0q17 -1 18 -5q0 -1 1 -2v-1h1q2 2 10 -4.5t14 -16.5q9 -14 12 -14q4 0 2 -6
q0 -3 20 -35q6 -10 6 -16t4 -10t4 -6t3.5 -10t3.5 -10q0 -5 2 -11t3 -14q5 -25 5 -29q0 -6 -2 -24q-1 -20 -7 -20q-3 0 -7.5 -3t-8.5 -3q-6 0 -6 -2q0 -1 -2 -0.5t-2 -0.5q0 -2 -8.5 -3t-9.5 0t-4 2.5t-5.5 3t-2.5 3.5q0 3 -3 3q-14 0 -16 42q0 6 -2 22q0 3 -4 7q-5 5 -8 27
q-1 5 -9.5 21t-8.5 20q0 1 -17.5 18.5t-21.5 19.5q-4 3 -4 17q0 34 10 40z" />
    <glyph glyph-name="uni226A" unicode="&#x226a;" horiz-adv-x="618" 
d="M300 596q12 6 18.5 2.5t22.5 -20.5q14 -16 15 -22.5t-11 -19.5q-11 -12 -10 -13t-32.5 -35t-55.5 -54q-53 -48 -100 -89q-24 -21 -24 -25q1 -5 42 -36q68 -53 125 -124q13 -16 17 -16q10 0 22 -14q13 -17 6 -34q-4 -10 -4 -15q0 -7 -6.5 -14.5t-11.5 -7.5q-6 0 -6 -2
q0 -3 -6 -5q-18 -8 -43.5 10t-73.5 72q-35 40 -84 79q-45 35 -49 46q-1 3 -7 11t-15.5 32.5t-8.5 30.5q0 6 9 22t51 55q44 40 46 40q3 0 17 14q50 47 76 67q8 6 19 17q6 6 9 6q2 0 17 15q14 14 24 20q8 3 12 7zM549 503q0 -5 -2.5 -8.5t-2.5 -6.5q0 -6 -6 -9
q-7 -4 -26.5 -20.5t-24.5 -19.5q-11 -9 -23 -20t-22 -19q-12 -10 -64 -58l-19 -16l16 -16q15 -15 15 -18q0 -5 22 -22.5t49 -38t32 -25.5q26 -23 36 -30q34 -27 43.5 -39.5t3.5 -21.5q-4 -5 -1 -10t-1 -13t-10 -11q-33 -19 -48 -13q-33 13 -94 71q-7 7 -39 31q-52 37 -61 55
q-3 6 -20.5 23t-20.5 17q-1 0 -12 20q-6 10 -8 15.5t-2 8.5t1 11.5t1 16.5q0 21 5 27q4 6 13 16.5t11 10.5q13 10 29 24q20 17 42 33.5t58 48.5q56 50 62 52q2 1 10 1q14 1 21.5 -3t22.5 -20q14 -15 14 -24z" />
    <glyph glyph-name="uni226B" unicode="&#x226b;" horiz-adv-x="618" 
d="M278 597q5 3 9.5 3t7.5 -1.5t8.5 -5t7.5 -4.5q10 -6 24 -20q15 -15 17 -15t8 -6q8 -8 20 -17q26 -20 76 -67q14 -14 17 -14q2 0 46 -40q42 -39 51 -55t9 -22q1 -6 -8.5 -30.5t-15.5 -32.5t-7 -11q-4 -11 -49 -46q-49 -39 -84 -79q-23 -26 -45 -48q-38 -36 -58 -36
q-21 0 -21 7q0 2 -5 2t-11.5 7.5t-6.5 14.5q0 5 -4 15q-7 17 6 34q12 14 21 14q4 0 18 17q55 68 125 123q41 31 42 36q0 4 -24 25q-22 19 -100 89q-22 20 -55.5 54t-32.5 35q2 1 -10 13t-11.5 19t14.5 22q15 17 21 20zM54 488q0 3 -2 6.5t-2 8.5q0 9 14 24q15 17 21 20
q7 4 23 3q12 -1 18 -5t54 -47q28 -25 41 -35.5l26 -21t32 -26.5l30 -24q2 0 11 -10.5t13 -16.5q5 -6 5 -26q0 -7 1 -14.5t1 -10t-0.5 -7t-2.5 -9t-7 -12.5q-11 -20 -12 -20q-3 0 -20.5 -17t-20.5 -23q-9 -17 -62 -55q-28 -21 -38 -31q-61 -58 -94 -71q-16 -6 -49 13
q-6 3 -9.5 11t-0.5 13q3 4 -2 10q-6 9 4 21.5t44 39.5q14 11 35 29.5t43 33.5t41 32t19 21q0 3 16 19l16 15l-19 17q-27 25 -65 57q-10 8 -22 19t-23 20q-6 4 -24.5 20t-25.5 20q-7 3 -7 9z" />
    <glyph glyph-name="uni203D" unicode="&#x203d;" horiz-adv-x="481" 
d="M377 735q3 0 7 -5t6 -5q3 0 15 -21q43 -79 35 -159q-1 -10 -12 -37.5t-15 -29.5q-2 -2 -2 -5q0 -5 -27.5 -33t-38.5 -34q-33 -17 -37 -17q-6 0 -25 -35l-12 -23l2 -22q2 -31 1 -59q-1 -36 -7 -42t-8 -6t-16 -6q-16 -7 -52 -2q-5 1 -14.5 8.5t-9.5 10.5q-6 24 1 53
q10 35 3 81q-3 19 -1 37q16 95 12 196l-2 30l-12 -13q-13 -11 -13 -17t-7 -16t-13.5 -17.5t-18 -18.5t-12.5 -13q-10 -12 -20 -15q-14 -4 -45 17q-18 12 -18.5 24t15.5 39q14 21 17 24t10 16.5t11 17.5l19 19q23 26 67 52l21 12v10q0 10 2 12q1 1 1 35t4 42q2 4 3.5 6
t2.5 3.5t4 2.5t4.5 1t7.5 0.5t10 1.5q38 5 45 -1q6 -6 6 -8q0 -4 2 -4q3 0 7 -34l4 -32l13 1q17 1 45 -4q5 -1 17 -7t13 -9q2 -2 5 -2zM320 655q-8 8 -41 3v-176l8 3q20 8 36.5 32t19.5 49q2 20 -5.5 50t-17.5 39zM222 106q13 2 31 -5.5t18 -15.5q0 -3 5.5 -6t5.5 -5
q2 -4 3 -4q2 0 2.5 -7.5t-1 -17.5t-4.5 -17q-10 -25 -39 -42q-16 -10 -24.5 -10t-25.5 9q-22 13 -27 33q0 1 -1 3t-2 4.5t-1 3.5q-2 5 0.5 17.5t6.5 16.5q2 4 1 5q-2 2 8.5 10.5t24 17.5t19.5 10z" />
    <glyph glyph-name="Emacron" unicode="&#x112;" horiz-adv-x="531" 
d="M345 777l16 4t12 2.5t7 0.5q1 0 3.5 -0.5t3.5 -0.5q2 0 19 -21q14 -17 15.5 -24.5t-6.5 -19.5q-3 -5 -7 -13q-2 -4 -11 -9.5t-14 -5.5t-41 -9q-10 -2 -56 -2q-113 2 -140 -2q-23 -4 -51 -3t-33 6q-3 3 -7 3q-3 0 -10 11q-6 11 -6 28q0 18 7 25t26 9q17 2 25 7q4 3 16 3
q8 0 38 4q37 4 113 2q48 -2 81 5zM390 601q10 1 13.5 0.5t9 -3.5t9.5 -4q10 -2 12.5 -9.5t1.5 -32.5q0 -30 -2 -34t-14 -9.5t-19 -5.5q-2 0 -16.5 -2t-16.5 1q-5 2 -39 1q-204 -10 -213 -12q-4 -1 -4 -7.5t3 -67.5q2 -50 4 -61l1 -10l8 4q7 5 50 6q72 2 82 -7q2 -2 10.5 -6
t10.5 -10q1 -3 4 -10t4 -10.5t0 -10.5t-5 -14q-5 -10 -5 -16q0 -3 -15 -11q-25 -13 -36 -3q-5 5 -44 6q-44 1 -63 5q-1 -53 -2 -116l-1 -115l14 2q39 5 57 8q149 25 210 26q50 0 50 -5q0 -1 10 -4l10 -5q-1 -1 3.5 -5.5t13.5 -10.5q3 -2 5 -17q2 -41 -20 -47q-8 -2 -12 -6
q-14 -12 -38 -1l-13 6l-33 -2q-16 -1 -64 -8t-60 -8q-20 -2 -90 -13t-93 -11q-24 0 -34 6q-9 5 -9 8q0 7 -3 25q-2 20 -1 93q1 45 1.5 113t0.5 117.5t-1 50.5t-2 98.5t0 104.5q0 2 6 10q7 7 25 8q13 1 40 9t37 8q142 9 167 10q21 1 45 2t36.5 1.5t13.5 0.5z" />
    <glyph glyph-name="Ohungarumlaut" unicode="&#x150;" horiz-adv-x="557" 
d="M433 851q10 4 20 -0.5t27 -21.5q8 -8 7 -19q-1 -17 -12 -29q-8 -10 -8 -14t-14.5 -18t-21.5 -18q-4 -2 -20 -20t-22 -18q-1 0 -11 -10q-17 -19 -32 -22q-8 -1 -21 8q-28 19 -28 34q0 11 7 19q7 9 7 10q0 3 16.5 23t21.5 23l12 12q7 7 9 7q1 0 29 26q29 27 34 28zM209 837
q6 5 23 10q2 0 17.5 -11t18.5 -15q9 -10 -4 -37q-6 -12 -28 -34q-17 -15 -35 -39q-6 -9 -9.5 -13t-9 -8t-10.5 -9q-14 -14 -21.5 -14.5t-23.5 11.5q-16 11 -19 19.5t2 24.5q9 22 31 46q3 3 33 33.5t35 35.5zM282 608q5 3 29 -2q98 -22 141 -78q11 -15 24 -45.5t15 -47.5
l5 -23q8 -40 20 -130q2 -17 0 -56.5t-6 -46.5q-3 -6 -3 -10q0 -5 -8 -27t-11 -26q-3 -3 -8.5 -12.5t-8.5 -12.5q-4 -6 -4 -8q0 -3 -19 -21.5t-29 -26.5q-26 -19 -64 -37t-57 -21q-2 0 -17 -5q-10 -3 -51 -3t-46 3q-1 0 -9.5 4t-13.5 6q-38 15 -77 55q-22 24 -22 25
q0 2 -4 10q-13 26 -28 71q-9 31 -9 64q0 74 6 102q25 107 34 117q4 4 15 28q10 23 24 42q10 16 37.5 44.5t38.5 33.5q28 15 43 15q13 0 20 6q11 10 28 10q9 0 15 3zM326 502l-14 6q-5 -6 -11 -13q-9 -11 -15.5 -12.5t-18.5 4.5q-7 4 -12 4t-12 3q-10 5 -15 2
q-17 -9 -40.5 -41.5t-37.5 -65.5q-10 -23 -19.5 -65t-9.5 -62q0 -11 -2 -13t0 -37.5t5 -48.5q4 -14 15 -37q12 -25 26.5 -37.5t44.5 -22.5q14 -5 33 -3q69 9 113 46q5 4 11.5 9t9.5 8l7 7t7.5 10t7.5 14q18 37 18 87t-10.5 117t-23.5 96q-4 10 -15 21t-19 14q-15 6 -23 10z
" />
    <glyph glyph-name="quotedblleft" unicode="&#x201c;" horiz-adv-x="328" 
d="M65 666q0 2 4 5t4 4q0 5 15 16q3 3 3 5t18 8q29 10 32 4q2 -2 3 -1q1 0 4 -5.5t6.5 -13t4.5 -12.5q1 -3 1 -7q1 -5 0 -5q-2 0 -2 -3t-3 -3t-3 -2q0 -3 -6 -10.5t-9 -7.5q-12 0 -25 -38q-1 -2 -5 -11.5t-4 -12.5q0 -2 -2.5 -5t-2.5 -4q-8 -40 -8 -43q0 -16 -22 -23
q-16 -5 -24 -3q-18 3 -22 24t0.5 39.5t10.5 35.5q3 7 3 10l4 9q-1 0 0.5 2.5l3 5t0.5 2.5t2 4t2 4t1.5 5.5t6.5 12t6 8.5q3 3 3 6zM226 545l-5 -12l-1 -3l-2 -4l-2 -3q0 -2 -1 -4q-12 -30 -12 -56q0 -22 -7 -30q-7 -9 -9 -9q-1 0 -4.5 -3t-4.5 -2q-2 2 -2 0q0 -7 -17 -5
q-11 1 -16 6q-4 4 -6 4q-3 0 -3 3q0 2 -6 8t-7 23q-1 9 -1 18q0 2 1 4q3 7 7 25.5t8 27.5q2 4 3 10t4 11q2 5 4.5 11.5t5.5 13.5q5 10 5 13q0 2 10 18.5t11 21.5q1 2 2.5 4.5t3 4.5t3.5 4.5t4 4.5q10 16 15 16l1 1q2 1 4 3l4 4l6.5 6.5t7.5 7t8 5t10 2.5q9 0 23 -15
q14 -14 14 -17q0 -1 0.5 -2t1.5 0l2 -4v-2q0 -6 -8 -20.5t-12 -16.5t-4 -4t-3 -4q-2 -1 -6 -7t-7.5 -14t-4.5 -9q-2 -3 -3 -6t-4 -6q-4 -4 -4 -7q0 -2 -3.5 -8t-3.5 -8z" />
    <glyph glyph-name="c_o" horiz-adv-x="767" 
d="M287 432q17 -6 27 -13t13 -7t15 -14t18 -25q4 -6 5.5 -10t1.5 -7.5t-0.5 -5.5t-2 -6.5t-2.5 -8.5q-2 -7 -15.5 -16.5t-20.5 -2.5q-15 11 -15 12q-2 4 -4 4q-4 0 -21 17q-11 11 -19 14t-26 3q-25 0 -52 -15q-19 -11 -37 -32q-3 -4 -10 -12t-10 -12t-8 -11t-8.5 -14
t-6.5 -17q-16 -43 -13 -74q2 -30 12 -51q4 -8 16.5 -20.5t19.5 -16.5q19 -8 50 -7.5t54 7.5q30 9 52 26q16 11 34 -3l12 -9q0 4 -1 8q-5 14 -4.5 54t6.5 54q1 3 7 27t7 27q0 1 2 6.5t3 7.5q10 32 40 73.5t52 51.5q3 1 8.5 4t7 3.5t6.5 2t10.5 2t14.5 0.5q70 3 82 0
q55 -14 87 -51q7 -8 19.5 -26t12.5 -20t6 -16q8 -18 13 -43q4 -19 1.5 -51t-9.5 -46q-12 -26 -15 -29q-1 -1 -5 -9t-29 -36q-33 -36 -54 -50q-57 -38 -58 -37l-7 -2q-7 -3 -13.5 -5.5t-7.5 -2.5q-23 -6 -30 -8q-19 -6 -54 1q-57 13 -81 66l-2 4l-5 8l-1 -1l-2 -2
q-2 -3 -4.5 -6t-5.5 -6q-31 -37 -120 -51q-14 -2 -39.5 -1.5t-30.5 2.5q-2 1 -16 6q-43 12 -69 40q-16 17 -28.5 42.5t-14.5 42.5q0 2 -0.5 5.5t-1.5 8.5t-1 9q-3 20 -1 42q7 75 39 123q17 26 41 50q93 93 186 55zM510 350q-4 0 -5 3q-1 2 -4.5 -0.5t-15.5 -15.5
q-46 -49 -62 -126q-9 -44 -1.5 -84t27.5 -54q7 -5 25 -5t39 9q55 22 91 64q18 22 24 28q14 16 19 45t-2 56q-8 29 -28.5 53.5t-44.5 27.5q-9 1 -9 -2t-12 -11t-16 -8t-7 5q-2 4 -8.5 9.5t-9.5 5.5z" />
    <glyph glyph-name="o_o" horiz-adv-x="829" 
d="M537 403q25 14 49.5 16t47.5 -16q13 -13 18 -25q2 -4 32 -24q32 -21 60 -54t39 -68q10 -31 3 -61q-11 -45 -24 -66q-21 -34 -64 -61q-53 -32 -63 -32q-3 0 -3 -1q-1 -2 -21 -7.5t-32 -6.5q-58 -8 -67 1q-3 3 -6 3q-13 0 -41.5 17t-33.5 28q-2 6 -5 9q-14 17 -25 55
q-6 22 -3 62l2 17l-6 -11q-23 -49 -37 -64q-5 -5 -5 -7q0 -4 -15 -17q-22 -21 -57 -42.5t-51 -23.5q-2 0 -4 -0.5t-4 -1.5h-2l-8 -2l-18 -4.5t-20 -3.5t-14 1q-5 3 -10 1t-23 3t-21 8q-6 4 -7 4q-6 0 -32 26q-14 14 -24 35q-6 12 -14 32q-13 48 -6 92t14 60q3 4 3 9
q0 14 25 57q21 37 35 47q1 0 3.5 2t7 5.5t8.5 5.5q19 13 43 17q8 2 20.5 1t14.5 -3q1 -1 9 -3q8 -1 15.5 -6t16.5 -5q21 0 53 -14q25 -11 42 -26q9 -9 12 -9q1 0 6 -5t10 -11.5t10 -11.5l4 -6q5 -5 13.5 -24t9.5 -25q0 -4 2 -13.5t2 -17.5q1 -19 0 -29l-1 -15q2 5 4 13
q10 40 31 80q15 29 42 62q9 12 25.5 28.5t18.5 16.5l2 1q2 1 6 3.5t8 4.5zM190 340q0 2 -5.5 5.5t-6.5 2.5q-36 -10 -63 -71q-12 -27 -17 -65q-7 -55 10 -88q10 -20 22.5 -28t35.5 -8t41 6q37 12 76 51q27 27 34 42l8 17v25q0 22 -6 34q-16 31 -44 48q-14 9 -16 9
q-1 0 -7 -4q-9 -8 -20 3l-4 4q-38 8 -38 17zM554 320q-6 3 -17 -9q-18 -19 -39 -60t-25 -69q-4 -22 -1 -43q6 -49 41 -64q11 -5 34 -5q54 0 101 30q48 31 61 70q4 14 4 24q0 22 -26 59q-3 5 -13 13t-13 11q-18 18 -46 32q-19 9 -36 7q-14 -2 -25 4z" />
    <glyph glyph-name="I_hyphen_p_r_o_n_o_u_n" horiz-adv-x="449" 
d="M356 606q22 6 23 5q2 -2 4 -2q5 0 14.5 -14t11.5 -21q1 -4 -2.5 -15t-6.5 -13q-5 -2 -9 -8q-6 -7 -27 -12q-41 -10 -95 -12l-11 -1v-38q-1 -29 -3.5 -76t-2.5 -57q-1 -20 -3 -37.5t-3 -50.5q-2 -37 -4 -99q-1 -37 -4 -40q-2 -2 -2.5 -8t1.5 -8q1 -1 5 1q12 4 43 4
q39 0 52 -3q5 -1 12 -1t10 -3q2 -2 7 -4.5t8 -5t5 -7.5q5 -8 6 -8q4 0 5 -15t-2 -20l-7 -15q-1 1 -4 -2q-10 -10 -24 -11q-9 -1 -17 6q-8 8 -14 10q-5 1 -26 1t-23 -1q-5 -3 -41 -4q-2 0 -31 -2.5t-43 -3.5q-22 -2 -23 -1q-2 1 -6.5 0.5t-10.5 -1.5l-6 -1q-56 0 -73 9
q-8 4 -9 4q-3 0 -6 5q-5 6 -4 26q1 19 6 25q3 3 7.5 4.5t10.5 2t10 1.5q10 3 26 2q36 -3 52 -2q18 1 22 3.5t5 10.5q4 42 8 117t6 105q11 118 7 165l-2 17h-38q-53 0 -68.5 7.5t-17.5 33.5q-1 13 1.5 17t14.5 12l8 6h42q41 0 96.5 3.5t57.5 5.5q1 1 19 1q30 0 50 9q8 4 13 4
z" />
    <glyph glyph-name="E_A" horiz-adv-x="920" 
d="M88 568q1 0 17 6.5t17 6.5l11 3q11 4 21.5 7t11.5 3q2 -2 5 1q14 11 92 20q40 3 88 -3q20 -2 21 -5q1 -1 5 -3t5 -5q2 -4 3 -4q2 0 2 -8q0 -6 3 -12q3 -1 1 -7t-2 -7t-4.5 -4t-4.5 -5t-2 -3.5t-5 -3t-4 -2.5q-2 -3 -13.5 -5t-16.5 0q-21 5 -62.5 1.5t-80.5 -13.5
q-14 -4 -49 -17.5t-38 -16.5q-1 0 1.5 -11t5.5 -24t3 -14q4 -30 5 -42q2 -31 3 -35t6 -4q9 0 21 3q88 16 125 -15q17 -14 7 -30q-4 -6 -2 -9q1 -3 -2.5 -8t-6.5 -5q-2 0 -7 -5q-5 -6 -19 -6.5t-16 3.5q-4 4 -8 6q-15 3 -76 -7q-7 -1 -17 1v-24q0 -140 7 -157l1 -5l10 4
q2 1 5 2t5 2t3 1q7 4 43 12.5t50 10.5q12 2 13 3q10 7 80 10q14 1 39 -3.5t30 -8.5q2 -1 3 3t4 35l1 4q11 100 31 171q6 22 6 23q0 2 6 20.5t7 20.5q1 1 9 23q25 65 54 108q9 13 23 28t17 15q1 0 9 5.5t10 5.5t8.5 4t10.5 4q7 0 9 1q6 3 38 -6q6 -1 19 -8.5t23 -13.5l9 -7
l8 -7q8 -7 17.5 -17t14.5 -15q48 -51 83 -136q29 -72 29 -97q0 -6 2 -12q12 -31 11 -142v-22v-19.5t-0.5 -15t-0.5 -10.5v-5q-1 -4 -10.5 -12t-13.5 -9q-3 -1 -9 -4q-11 -8 -22 3q-4 4 -7 4q-8 0 -12.5 16t-2.5 29q2 10 1.5 63.5t-2.5 68.5q-1 7 -6 34t-6 35q-2 23 -4 23
q-1 0 -7.5 -6.5t-7.5 -6.5q-3 -3 -37 -4q-103 -3 -132 -10q-4 -2 -22 -6t-23 -7q-10 -4 -12 -4q-3 0 -15 -4q-10 -3 -11.5 -5.5t-3.5 -20.5q0 -5 -4 -31q-11 -77 -12 -87q-5 -54 -18 -61q-5 -3 -30 0t-31 0q-11 -6 -40 -2q-30 3 -110 -8q-9 -1 -54 -13q-9 -2 -28.5 -8
t-34 -10t-21.5 -5q-34 -7 -43 1q-11 11 -11 24q0 2 -6 10.5t-6 10.5q-2 8 -3.5 44t-2.5 79.5t-2 55.5q-8 124 -8 126q-6 62 -9 72q-2 7 -2.5 12.5t-1 7.5t-2 6t-6.5 10q-9 12 -8 20q1 15 11 23q5 5 5 7t5 4q4 1 15 10q23 18 32 18zM652 526q-14 10 -28 1q-17 -12 -32 -38
q-24 -40 -27 -57l-16 -37q1 0 -0.5 -4.5t-3.5 -11.5l-6 -16q8 1 21.5 4t21.5 4q6 1 29 4t37 4q19 0 25 3q4 2 46 2q43 0 43 1q0 3 -18 35q-12 22 -34 51q-7 10 -27.5 29t-30.5 26z" />
    <glyph glyph-name="C_O" horiz-adv-x="776" 
d="M615 529q1 0 11 -6.5t11 -6.5q3 0 18 -16.5t23 -27.5q28 -40 36 -59q8 -21 18 -60q7 -31 4 -76q-1 -8 -3.5 -15t-3.5 -12q-2 -13 -10 -32.5t-13 -24.5q-6 -6 -6 -8q0 -3 -1 -3q-2 0 -11 -12q-11 -16 -35.5 -39.5t-39.5 -31.5q-59 -33 -74 -35q-4 0 -40 -6q-7 -1 -13 0.5
t-10 1.5q-22 0 -27 7q-1 1 -17 9t-17 9q-1 2 -11.5 10.5t-11.5 8.5t-1 -2t-4 -8.5t-4 -8.5q-2 -16 -12 -26q-16 -15 -44 -25q-7 -2 -9 -4q-3 -2 -23.5 -6.5t-32.5 -5.5q-25 -2 -62 2.5t-44 9.5l-10 4q-28 12 -60 44q-16 16 -16 18t-5 9q-9 12 -20.5 36.5t-11.5 31.5
q0 8 -3 14q-6 12 -9 46q-1 13 -1 49.5t2 45.5q3 17 8 39.5t7 30.5q12 57 63 134q8 12 28 30.5t26 18.5q3 0 4 1q2 2 16.5 6.5t19.5 5.5q22 3 47 -5q15 -5 46 -30q7 -5 14 -15q4 -6 11.5 -27.5t7.5 -25.5t-15 -19q-4 -4 -14.5 -8t-15.5 -1q-1 1 -3 2l-2 2q0 1 -13.5 16
t-13.5 16q-1 4 -16.5 13t-19.5 9q-16 0 -35 -21q-15 -16 -32.5 -46.5t-24.5 -55.5q-19 -64 -19 -125q0 -48 12 -83q2 -6 5 -14t4 -11t3.5 -8.5t6 -9.5t8.5 -9.5t13 -13.5q18 -18 34 -24l17 -6h34q67 0 98 22q7 5 12 5q4 0 7.5 3.5t7.5 3.5q7 1 16 -5q7 -5 8 -4t-3 4
q-10 8 -24 49q-12 49 -14 62q-2 11 -1 44t3 45q12 60 15 69q7 21 7 26q0 4 6 18t8 16t5 8q11 21 25 43q7 11 21.5 27.5t16.5 16.5t6 4q12 13 37 22.5t43 5.5q24 -6 42 -24q17 -16 25 -18q10 -4 12 -6t3 -2zM513 479q-11 13 -13 13q-1 0 -13 -13.5t-17 -20.5q-27 -40 -30 -55
q-1 -3 -9 -29q-24 -78 -11 -150q12 -65 48 -83.5t92 12.5q66 38 88 97q3 9 7 13q3 3 3 6q0 1 2 13q4 29 -7 71q-12 43 -33 70q-13 18 -16 15l-14 -5q-17 -5 -21 5q-2 5 -6 7t-9 12t-7 10t-6 -2q-11 -6 -28 14z" />
    <glyph glyph-name="C_R" horiz-adv-x="778" 
d="M306 434q0 -2 -3 -4t-3 -3t-6 -9q-9 -9 -26 -4q-9 3 -12 7q-2 3 -1 6t-1 6q-2 4 -2 23q0 15 -5 28t-14 12q-30 -2 -65 -43q-24 -28 -35 -49t-25 -63q-13 -38 -11 -96q1 -35 15 -68q33 -75 119 -59q31 6 46 13q5 2 8 3.5t3 0.5q13 7 17 7q7 0 15 8q7 9 12 9t14 -9l9 -8
l2 31q1 17 1 63q0 34 1 36q1 4 0 66t-3 70q-2 10 -2 24q0 77 6 83q5 5 21 8q17 3 21 10q27 41 67 65q21 13 25 13q3 0 3 1q1 3 17.5 4.5t22.5 0.5q12 -2 23 -2q9 0 26.5 -6t19.5 -9q3 -3 8 -4q4 -2 18 -9.5t17 -8.5q1 0 17.5 -12.5t18.5 -12.5q1 0 5 -4.5t5 -3.5
q1 0 2.5 -2.5t3.5 -5t3 -2.5t3.5 -4t5.5 -9l3 -4q5 -4 11 -18.5t7 -22.5q1 -5 2.5 -10.5t2 -8t-0.5 -12.5q-1 -4 -1 -7.5v-4.5t-0.5 -3.5t-1.5 -6.5q-19 -50 -31 -61q-4 -4 -4 -5q0 -3 -18.5 -19t-29.5 -22q-41 -23 -53 -26q-36 -11 -41 -12l7 -6q4 -4 15.5 -12.5t21.5 -16
t11 -7.5q3 0 28.5 -24t28.5 -30q1 -3 6 -8q2 -1 12 -16t11 -17q1 -1 9.5 -21t7.5 -21l2 -10q3 -11 6 -28.5t2 -17.5q-2 0 0 -6q1 -7 -6 -14q-5 -6 -10.5 -8t-26.5 -3l-14 -1l-8 8q-7 6 -7 11q0 9 -6 30q-9 34 -23 55.5t-45 48.5q-20 17 -57.5 46t-52.5 38q-8 4 -20 14
t-13 12l-4 -110q-2 -63 0 -65q1 -1 2 -6t2 -11t1 -7q2 -6 -6 -16q-9 -14 -20 -14q-1 0 -10 -3q-22 -12 -41 20q-4 7 -5 40q-1 30 -2 30t-2 -2q-11 -18 -11 -30q0 -4 -9.5 -15.5t-14.5 -13.5q-1 0 -11 -7q-6 -5 -23.5 -12t-25.5 -8q-2 -1 -9.5 -2t-9.5 -1q-12 -2 -32.5 -2.5
t-29.5 1.5q-2 0 -6 1t-6.5 1.5t-4.5 0.5q-5 0 -21.5 6.5t-16.5 8.5l-1 1q-2 2 -5.5 4t-6.5 4q-31 19 -53 57t-30 82q-8 43 -4 64q2 12 2 22q0 30 12 68q21 69 64 127q8 11 25.5 29.5t20.5 18.5q1 0 7 4t12.5 8.5t7.5 4.5q6 3 7 4q15 12 43 15q40 2 51 -9q2 -2 10 -7
t13.5 -10t5.5 -9q0 -1 6 -8l5 -7q0 -1 2 -9q1 -3 3 -25q1 -18 -5 -34q-7 -16 -7 -20zM547 541q-25 5 -38 -2q-44 -23 -68 -72q-5 -10 -8 -13q-2 -3 -1 -21t3 -29q3 -6 1.5 -20t-1.5 -26l1 -27q7 7 10 9t11.5 3.5t27.5 2.5q13 1 25 2.5t19 1.5q2 0 14 3q53 16 65 24
q28 17 43 42q4 6 7 20t2 20q-3 13 -21 31t-41 31q-29 15 -51 20z" />
    <glyph glyph-name="O_C_H" horiz-adv-x="1224" 
d="M615 585q29 19 67 5q15 -6 30 -21q25 -25 25 -39q0 -2 7 -14q6 -13 6 -29q0 -15 -2.5 -19t-14.5 -10q-16 -4 -18 -3t-10 9q-12 12 -14 16q-1 3 -5 5t-6 6q-6 15 -19 26q-6 4 -11 1q-23 -13 -54 -65t-44 -101q-15 -52 -15 -106q0 -52 14 -90q7 -19 11 -25.5t19 -21.5
q18 -18 29 -23q12 -5 38 -5q46 0 82 16q43 18 50 18q3 0 16.5 9.5t16.5 9.5h5l1 43q0 9 1 38.5t2 40.5q1 37 -2 43q-4 7 -4 24.5t3 22.5q4 5 4 35q0 17 -2 56t-1 66q1 41 5 46q6 9 32 9q20 0 25 -5t5 -10q0 -3 2 -7q7 -14 9 -122l1 -52l6 -1q4 -1 92.5 -1.5t88.5 0.5
q1 10 2 21q2 16 9 71.5t9 72.5q3 43 21 61l20 -1q20 -2 21 -3q2 -2 4 -2q6 0 12 -13q7 -14 -10 -123q-23 -164 -27 -201q-3 -25 -4.5 -65.5t0.5 -45.5q3 -10 4 -28q1 -19 7 -32q5 -12 7 -12q2 1 6 -3.5t5 -8.5q6 -29 -7 -35q-6 -2 -8 -7q-5 -9 -25 -8q-22 2 -44 36
q-10 15 -17 53q-3 15 -3 72q0 90 6 118q1 7 -2 8q-4 1 -79.5 1h-79.5l-14 2l-1 -44q0 -12 -0.5 -43t-1.5 -43q-1 -50 4 -68q1 -4 -1.5 -10.5t-5.5 -6.5q-2 0 -13 -11t-19 -11t-18 6q-13 9 -16 13t-7 18l-5 -10q-3 -9 -9 -16l-6 -8l-4 -3q-3 -3 -8 -7l-4 -3
q-2 -3 -19.5 -10.5t-21.5 -7.5q-2 0 -8.5 -1.5t-13 -4t-7.5 -2.5q-2 0 -12.5 -2.5t-20.5 -4t-14 -1.5q-14 0 -18 -1q-14 -2 -40.5 4t-43.5 16q-10 5 -24.5 16.5t-16.5 14.5l-2 3q-1 2 -3.5 5t-5.5 6q-28 33 -39 73q0 1 -1.5 7.5t-2.5 9.5q-9 33 -9 86v34l-5 -14
q-2 -7 -7 -17q-2 -2 -2 -4q0 -1 -7.5 -16.5t-9.5 -18.5q-3 -3 -13 -18l-18 -27q-12 -16 -47 -49t-40 -33q-1 0 -5 -4q-9 -10 -72 -38q-16 -7 -43 -11t-38 -1q-45 14 -46 14q-22 12 -29 19q-6 6 -8 6q-2 1 -12.5 14t-10.5 15t-5 12q-19 37 -22.5 97.5t9.5 116.5l16 56
q1 2 9 22q29 62 36 70q5 7 5 9q0 1 14 22l14 21q1 3 15 17.5t16 14.5q1 0 13 10q24 19 46 23q20 2 33 0q10 -1 25 -25q11 -16 13 -16h3q20 4 46 -3q47 -14 81 -53t47 -92q4 -16 5 -37.5t0 -34.5l-1 -14q1 10 17 68q3 11 8.5 24.5t7.5 19.5q9 29 41 78q14 19 14 22
q0 4 23.5 29t27.5 25zM234 495q0 2 -5.5 10.5t-6.5 8.5q-2 0 -17.5 -15t-23.5 -25q-9 -11 -24 -37q-35 -57 -50 -123q-14 -66 -11 -109q1 -21 9 -42q4 -10 9 -25q2 -6 11.5 -15.5t16.5 -12.5q8 -4 26 -4t38 6q29 9 60 31q18 13 43 38t36 40q8 12 15 19q16 18 25.5 61t2.5 76
q-1 6 -4 16t-3 11q-6 20 -23.5 39.5t-36.5 27.5q-19 9 -42 -1q-2 -1 -4.5 -2t-4 -1.5t-2.5 -0.5l-2 -1q-10 0 -19 9q-13 13 -13 21zM461 287q4 9 3 20l-1 -6q0 -6 -2 -14z" />
    <glyph glyph-name="E_E" horiz-adv-x="901" 
d="M422 50q-14 -14 -21 -15q-8 -2 -26 -2q-25 0 -49 2h-24t-16 -2t-24 -3q-50 -5 -87 -15q-74 -19 -110 -12q-2 1 -7 1q-12 0 -16 21q-1 13 -17 30q-5 6 -5 16q-1 25 5 72q7 53 8 67q1 18 4.5 42t4.5 39q6 55 7 143q1 101 4 106q1 4 7 7.5t11 3.5q3 0 21 7q34 12 78 13
q7 0 21.5 0.5t34.5 1.5t32 1q181 8 181 -4q0 -2 7 -5q5 -2 9 -8t2 -10q-1 -2 2 -8t1 -9t-1.5 -3.5t3.5 1.5q1 1 18 5t18 6q2 3 15 8.5t19 6.5q2 0 10 2l12 3q91 23 227 28q26 1 52 1q2 0 7.5 -5t7.5 -5t3.5 -4t2.5 -4l1 -4q1 -4 2.5 -8t1.5 -5q6 -10 -4 -22q-4 -6 -4 -7
q0 -2 -13 -13q-2 -1 -40 -1q-33 2 -136 -10q-13 -2 -23 -3l-20 -2q-40 -5 -67 -17q-13 -6 -15 -8t-1 -6q5 -28 5 -60l-1 -21q7 5 25 2q11 -2 52 -2q88 0 112 -10q15 -5 21 -10q7 -7 9 -7q3 0 4 -12q1 -5 -4 -21q-1 -2 -1 -4t-4 -4q-1 -1 -6.5 -8t-8.5 -8q-9 -2 -53 2
q-9 1 -30.5 3.5t-36 4.5t-32 4.5t-29.5 6.5t-18 9q-3 2 -3 -3q0 -1 -1 -7q-1 -7 -1 -18q2 -38 -18 -140q-14 -78 -14 -79q0 -2 2 -6q2 -2 20 1q81 17 83 17q13 2 36 6.5t51 6.5q60 6 75 7t36 -1t24 -4q12 -10 15 -22q5 -16 3.5 -21t-11.5 -15l-12 -12l-28 -1
q-83 -4 -133 -14q-10 -2 -44 -7.5t-48 -8.5q-55 -12 -80 -12q-21 0 -29 6q-5 3 -17 7t-16 10q-2 3 -5 17zM127 383q10 -2 18 -2h31q22 0 38 2q20 2 48 1t30 -4q1 -2 7 -4t7 -3q11 -9 15 -10t4.5 -15.5t-1.5 -15.5q-1 -1 -1 -9q0 -7 -6 -14t-21 -7q-12 0 -18 3q-3 2 -54 2
q-48 0 -73 5q-20 3 -26 3q-3 0 -3 -9q-4 -50 -19 -168l-3 -25l5 -11q5 -10 5 -17q1 -5 2 -5q32 9 141 28q17 2 83 2t67 -2q3 -3 7 -3q14 -2 14 -11q0 -8 4 11q20 99 27 174v3q10 134 4 170q-3 15 -3 42q0 25 -1 25q-2 0 -7 -5t-6 -7q-2 -4 -10 -7.5t-14 -2.5q-54 5 -82 3
q-34 -2 -35 -2q-111 0 -153 -7q-13 -3 -18 -3q-3 0 -3 -53v-52z" />
    <glyph glyph-name="T_T" horiz-adv-x="908" 
d="M817 620q6 0 10 1t11 1q8 0 13 -3.5t7 -7t4 -11t4 -11.5q3 -8 0 -18q-8 -17 -13 -17q-1 0 -4 -3q-2 -2 -34 -8q-7 -1 -35 -4t-35 -4q-12 -2 -25 -2q-14 0 -22 -2q-11 -3 -57.5 -8.5t-61.5 -5.5q-1 0 -1 -52q0 -84 -8 -116q-2 -10 -2 -20q0 -6 -2 -22.5t-5 -38t-4 -31.5
q-2 -25 -7 -57q-4 -20 -4 -24q0 -3 -2.5 -24t-5.5 -40l-2 -18q1 -1 2.5 -8.5t1.5 -8.5q1 -3 -1.5 -13t-2.5 -13q2 -7 -4 -11q-6 -6 -6 -7q0 -6 -12 -11q-2 -1 -11 0t-18.5 2.5t-10.5 1.5q-8 0 -13 18q-1 6 -4 11q-2 2 0 30.5t4 38.5q2 8 6.5 48.5t5.5 48.5q3 18 7 54.5
t6 52.5q15 122 15 180v25h-26q-17 0 -42 2t-46 0q-26 -2 -60 -6.5t-48 -5.5q-12 -1 -49 -7l1 -50q1 -57 -7 -200q-1 -22 -3 -33t-2 -30q0 -44 -6 -76q-1 -6 -3 -27.5t-6.5 -35.5t-13.5 -19q-7 -4 -30.5 0t-28.5 9q-9 11 -5 26q6 22 12 101.5t8 92.5q9 68 7 188v26q0 2 3 17
l-12 -1q-19 -2 -44.5 -2.5t-29.5 1.5q-1 0 -9 2t-15 3.5t-7 2.5q0 2 -3 2q-2 0 -9 7q-7 8 -7 26q0 17 5 22q7 7 65 9q49 2 131 16q171 28 201 16q6 -2 18 -1q12 2 31 2q166 8 183 11q21 4 114 15q44 4 49 4z" />
    <glyph glyph-name="L_B" horiz-adv-x="810" 
d="M682 574q1 0 12.5 -10.5t13.5 -10.5q3 0 8.5 -10.5t5.5 -14.5t3.5 -13.5t2.5 -15.5q-1 -4 -2 -13.5t-2 -16.5t-2 -9q-3 -3 -10 -17q-8 -17 -20 -30q-34 -39 -50 -50q-6 -4 1 -6q1 0 3 -1l10 -2q13 -4 25 -10q33 -16 37 -23q2 -3 4 -3t11 -9t13 -16q3 -5 7 -9q3 -2 4 -7
q1 -2 3 -7t3 -7q4 -10 7 -52q1 -17 -9.5 -49t-25.5 -58q-32 -57 -55 -82q-24 -27 -38.5 -37.5t-43.5 -25.5q-6 -3 -11 -7t-8.5 -5t-10.5 -2q-10 -2 -10 -3t-15 -1.5t-31.5 1t-18.5 2.5q-4 2 -7 2t-14.5 5.5t-12.5 5.5q-6 3 -17 14q-12 12 -22 11q-7 -1 -15 2q-11 5 -24 23
q-9 14 -11 47q-3 26 -5 26q-6 -10 -39 -14q-23 -3 -32 -5t-20 -5.5t-25 -7.5q-15 -4 -27 -7.5t-21.5 -5.5t-32.5 -5q-19 -2 -40.5 0.5t-26.5 7.5q-3 2 -23 13q-6 3 -18.5 16t-12.5 16t-5 13q-15 32 -20 75q-3 27 -2.5 110.5t4.5 119.5q0 5 1.5 33t2.5 53l1 25q1 0 3 23
q1 17 7 22q6 6 30 8q12 2 14 2q10 2 15 -10q1 -3 5.5 -43.5t3.5 -42.5q-1 -1 0 -28q1 -26 -2 -29q-4 -4 -6 -64t0 -116q1 -65 5 -82q6 -24 14 -34t24 -11q29 -3 110 21q46 14 73 15q34 2 40 -8q1 -2 1.5 40t0 88t-1.5 53q-5 31 -8 98q-1 20 -8 100q-2 18 2 22q7 9 21 9
q5 0 7 7q7 17 28 27q40 20 82 25q22 2 91 -1q21 -2 58 -14q18 -6 19 -6t12 -4.5t13 -4.5zM563 531q-63 7 -93 2q-29 -6 -29 -13q0 -2 -5 -5q-18 -10 -7 -58q4 -20 5.5 -35.5t2.5 -35t2 -34.5q6 -72 7 -176l1 -93q17 -17 23 -26q13 -23 28 -33q6 -4 28 -4q24 0 28 2
q25 9 54 38q36 36 66 94q24 48 15 79q-8 29 -55 45q-6 2 -16 6t-17 6t-18 3q-18 2 -49 1.5t-37 -2.5q-15 -5 -23 9l-4 6q-2 1 -4.5 13t-3 21.5t1.5 11.5q2 0 3 3q2 9 37 19q52 17 104 60q17 14 30.5 35.5t9.5 28.5q-5 9 -31 18.5t-54 13.5z" />
    <glyph glyph-name="E_R" horiz-adv-x="890" 
d="M335 624q68 6 83 -2q2 -1 7.5 -2.5t9.5 -3.5t5 -4t5 -7.5t4 -9.5t2.5 -11.5t2.5 -13t-5 -9.5l-4 -4q0 -2 -5.5 -7t-8.5 -6l-3 -2q0 -5 -22 -5.5t-24 2.5q-4 4 -7 6q-6 4 -33 2q-40 -3 -113.5 -20t-88.5 -27l-5 -2.5t-5 -2t-3.5 -2t-2.5 -4.5t-2 -7q-1 -8 0.5 -46t1.5 -45
q-1 -16 4 -17q2 -1 30 1q102 6 119 -9l6 -4q2 0 7 -5.5t7 -9.5q3 -5 3 -12t-2 -8q-3 -3 -1 -6q1 -4 -2 -9t-5 -5t-5 -3q-7 -6 -20.5 -9.5t-17.5 0.5q-8 8 -59 4q-24 -2 -47 1q-16 2 -17.5 0t-3.5 -24q-5 -96 -13 -138q-2 -12 -1 -14q-2 -25 -5 -46h7q28 0 138 17
q78 13 99 13h33q25 0 30.5 -2t9.5 -15l4 -10q1 1 2 15v3q3 39 8 74q6 37 13.5 144t4.5 127q-1 8 1.5 26t2.5 24q0 18 4.5 25.5t18.5 8.5q12 1 14 5q9 11 41 29q28 15 35 17q30 10 41 10q7 0 7 2q2 1 14.5 1t31 -1.5t27.5 -3.5q39 -9 77 -31q11 -7 14 -7q8 0 29 -21t28 -35
q8 -14 9 -15q2 -1 4 -17t1 -27t-8.5 -27.5t-14.5 -23.5q-6 -6 -6 -8t-12.5 -13.5t-19.5 -15.5q-10 -6 -11 -8q-2 -3 -29.5 -14.5t-41.5 -15.5q-42 -11 -62 -11h-8l28 -21q76 -56 101 -81q47 -47 60 -91q3 -12 6 -15q4 -2 6.5 -30.5t-3.5 -32.5q-3 -2 -3 -5q0 -1 -6 -7
q-6 -5 -21 -4q-31 2 -39 10q-6 6 -6 19q0 14 -7.5 38t-15.5 36q-15 21 -56 54q-3 3 -7.5 6.5t-7.5 6t-4 3.5q-4 4 -52 40t-52 38q-5 3 -17.5 14t-14.5 15q-2 3 -3 -2q0 -4 -1 -14q-1 -13 -1.5 -21.5t-2 -19t-2.5 -22.5q-2 -22 -6 -56t-6 -53q-5 -43 -6 -49t-6 -11
q-6 -6 -27 -7q-21 -2 -25 0q-14 4 -16 25l-1 10q-7 -14 -16 -17q-10 -5 -11 -6q-4 -4 -5 -4q-3 0 -6 -3t-21 -6t-43.5 -6t-34.5 -5q-14 -2 -23 -2.5t-23 -3.5q-46 -10 -93 -13q-15 -1 -25.5 -3t-27.5 -3q-30 -2 -40 1q-25 9 -25 33q0 7 -5 15q-5 7 -3 26q2 21 4.5 46t4 38
t2.5 17q2 12 8 100q4 60 5 146q0 53 3 74q5 32 11 38q9 9 31.5 24.5t33.5 19.5q20 9 76 24q75 18 135 24zM662 522q-57 10 -109 -27q-13 -9 -15 -9q-1 0 -9 -6l-8 -6l2 -14q0 -3 0.5 -7.5t1 -7t0.5 -3.5q2 -4 2 -47q1 -40 3 -40q14 12 37 14q110 8 145 23q26 11 45 30
q11 11 12.5 14t0.5 9q-3 17 -22 34q-39 34 -86 43z" />
    <glyph glyph-name="R_R" horiz-adv-x="860" 
d="M121 588q17 4 97 -3q7 -1 46 -7q11 -2 36.5 -11t33.5 -14q7 -4 11.5 -5.5t11.5 -7.5q10 -8 11 -7l2 -3l4 -6l3 -4l3 -4q2 -5 5 -10l3 -5q3 -2 3 -31q0 -24 -1.5 -31t-11.5 -23q-41 -69 -145 -109q-12 -4 -21.5 -8.5t-22.5 -8.5l-17 -5l15 -7q4 -2 14.5 -7.5t14.5 -7.5
q69 -32 91 -48q1 -1 2.5 -2t2.5 -2l2 -1q1 0 17 -12q6 -4 7 -4q2 0 19 -18.5t23 -27.5q22 -34 24 -48l2 220v138l-1 56q11 13 22 16q13 4 19 11q14 18 33 27q36 17 100 20q21 1 51 -1q65 -7 80 -14l6 -2q3 1 21.5 -8t19.5 -9q6 0 24.5 -17.5t18.5 -22.5q0 -4 2 -4
q4 -1 5 -21.5t-2 -31.5q-4 -15 -21 -44q-21 -35 -76 -64q-7 -4 -12 -7t-6.5 -4.5t-6.5 -4t-14 -5.5q-20 -7 -37 -11q-25 -5 -49 -17q-4 -2 5 -10l6 -4q11 -7 32 -26q17 -15 22 -17q17 -9 83 -83q26 -30 72 -90q14 -19 16.5 -24.5t0.5 -15.5q-1 -4 -10 -10q-8 -5 -13 -9
q-19 -13 -26 -13q-12 1 -23 18q-1 1 -30 39q-15 19 -16 19q-2 1 -19 21t-17 22q0 3 -40 41t-43 38q-1 0 -14.5 10.5t-14.5 12.5q0 1 -13 11.5t-27 21.5l-14 10q-3 3 -6.5 5.5t-6 3.5t-2.5 0q-1 -1 -1 -47t1 -48q4 -4 4 -63q0 -5 2 -9q4 -10 4 -24q0 -11 -2 -15.5t-11 -11.5
q-11 -9 -13 -9t-5 -3q-5 -3 -8 -3t-10.5 2.5t-9.5 2.5q-1 0 -4 1q-2 0 -3 1q-2 2 -9 12t-7 12q0 4 -2 0l-1 -7v-15t-1 -7q-2 0 -2 -3q0 -8 -16 -12q-2 -1 -24 -3l-16 -1l-6 6q-12 10 -14 30q-4 30 -12 42q-5 9 -19.5 23t-25.5 22q-42 29 -98 55q-37 17 -47 23l-16 8
q0 -25 1 -55q3 -68 8 -87q3 -9 3 -20.5t-2 -15.5q-1 -3 -3.5 -8.5t-4 -8t-4.5 -6.5t-8 -6q-5 -3 -20.5 -2.5t-21.5 3.5q-12 5 -21 35q-8 25 -4 75q2 19 0 33q-1 8 -3 119q-2 154 -5 161q0 1 -2 14.5t-2 14.5q-2 4 -3 26t1 26q16 32 24 39q5 5 5 3t6 4t17 6q8 0 17 3.5
t14 3.5q12 0 16 1zM185 521q-83 8 -89 -6v-2q10 -32 12 -58q0 -2 2 -13t1 -18q-2 -14 -2 -45t1 -31t13 4q5 2 33 10.5t35 11.5l30 12q49 19 75 46q24 25 24 37q0 8 -12 17q-11 9 -14 9q-2 0 -18 7q-30 13 -91 19zM487 354q1 0 14.5 5t15.5 5q10 0 67 19q18 6 22 6
q11 2 35.5 12t37.5 19q20 13 36 30.5t16 27.5q0 8 -20 17q-49 21 -125 24q-36 1 -55 -3q-38 -10 -38 -18q0 -3 -2 -3q-5 -2 -5.5 -29.5t1.5 -38.5v-22v-51z" />
    <glyph glyph-name="L_A" horiz-adv-x="843" 
d="M565 591q21 7 61 -13q8 -4 25 -17t17 -15q0 -1 11 -12q41 -43 69 -115q18 -47 23 -67q14 -61 17 -82q12 -78 12 -92q0 -7 2 -29q4 -28 2 -133q0 -4 -4 -8q-4 -2 -4 -5q0 -7 -17 -15t-26 -2q-3 3 -7 3q-8 0 -18 19q-6 11 -4 13q4 7 0.5 94.5t-8.5 114.5l-3 12l-36 -1
q-40 0 -105 -8q-57 -8 -84 -6q-13 2 -13 -1q-1 -3 -2.5 -14.5t-3 -20t-2.5 -10.5l-1 -2v-4t-0.5 -5t-0.5 -5q-2 -16 -13 -92q-2 -19 -5 -22q-3 -6 -3 -9q-1 -5 -10 -19.5t-14 -18.5q-7 -5 -12 -6q-6 -2 -24 10q-13 8 -15.5 11t-4.5 10q-7 19 -2 22q2 1 5 19t2 19t-24 -5
t-32 -11q-53 -25 -125 -39q-19 -4 -51 -1.5t-43 10.5q-2 1 -13 7.5t-15 11.5q-1 2 -5.5 5.5t-7.5 7t-3 6.5t-5 10q-8 13 -15.5 39t-7.5 44q0 14 -1 15q-3 4 1 109q3 83 12 143q13 92 19 100q2 3 11 7l8 5l19 -3q22 -3 29 -16q2 -4 2 -10.5t-1 -14.5t-1 -13q0 -3 -9 -84
q-18 -190 -6 -263q4 -26 21 -36q15 -11 63 1q87 23 103 33q9 6 41 14t46 1l5 -3l9 54q6 33 14 71t11 54q11 57 21 77q2 4 2 6q0 3 3 8q4 7 10 23.5t9 22.5q23 50 28 58q11 17 11 18q0 3 8 9q21 21 27 22q3 0 8.5 3.5t9.5 3.5t10 2zM599 503q-11 8 -15.5 9t-12.5 -3
q-7 -4 -28 -45t-45 -127q-9 -34 -4 -32q2 1 30 3q14 1 51.5 4.5t50.5 3.5q12 0 44 2l29 2q-3 17 -21 61q-7 18 -8 24q-5 20 -29 53t-42 45z" />
    <glyph glyph-name="L_L" horiz-adv-x="772" 
d="M99 -2q-1 0 -10 4.5t-10 4.5q-2 0 -16 14.5t-15 18.5q-18 42 -18 47q0 3 -2 7q-1 3 -5 21q-3 21 -3 64q2 117 7 172q4 55 3 92q0 33 -1 41q-4 26 1 39q5 12 26 17q26 7 32.5 1.5t14.5 -37.5q8 -31 8 -79q0 -46 -2 -49q-4 -6 -6 -36.5t-3 -68.5t-2 -49q-4 -62 6 -109
q7 -30 14.5 -38t29.5 -7q18 1 58.5 11t54.5 17q30 15 70 17q8 0 14 -2q4 -1 4 1q-9 23 -9 35q-4 42 -0.5 131.5t9.5 122.5q3 17 4 30q5 55 8 60q2 2 2 17q1 16 7 23q5 6 21 7q35 2 37 -21q1 -14 1 -59t-2 -53q-3 -15 -5.5 -59t-3.5 -52q-3 -31 -3 -76.5t3 -60.5
q9 -43 31 -56q8 -5 31 -6t37 2q84 12 106 18q26 6 69 10q16 1 25 -4q7 -5 8.5 -7.5t4.5 -16.5q5 -23 -1 -31.5t-29 -12.5q-6 -1 -26.5 -6t-30.5 -6q-11 -2 -61 -10.5t-65 -10.5q-63 -9 -107 15q-27 17 -33 24q-11 12 -11 7q0 -7 -6.5 -15t-11.5 -8q-4 0 -27.5 -7t-25.5 -9
q-13 -9 -41 -13q-7 0 -13 -4q-24 -12 -43 -12q-9 0 -16 -3q-10 -4 -39 -4t-35 4q-4 3 -9 3z" />
    <glyph glyph-name="O_N" horiz-adv-x="855" 
d="M497 58q0 -4 -3 -9t-3 -7t-4 -6t-26 -4q-23 0 -23 1t-4 3q-3 0 -7 6q-4 7 -4 70q0 185 -5 190q-1 -2 -1 -5q0 -16 -21 -73q-23 -61 -63 -101q-7 -7 -7 -9q0 -1 -21 -20t-23 -20q-1 0 -4.5 -2.5t-9 -6.5t-7.5 -6q-5 -4 -22.5 -12.5t-25.5 -10.5q-36 -11 -60 -11
q-19 0 -37 6q-10 3 -16 7.5t-10 6.5q-11 5 -21 17q-29 29 -44 91q-4 20 -5 72q-1 45 3 71q1 4 2 10.5t1 9.5l1 4q2 2 2 7q0 8 9 45t12 41q1 1 9 21q15 39 33 69q15 26 34.5 44.5t31.5 20.5q3 0 8 1.5t7.5 2t8.5 -0.5q2 0 4 -0.5t3 -0.5h1q0 -2 11 -7q10 -5 16 -14q5 -8 9 -8
q11 0 55 -22q14 -7 50 -36q9 -7 27.5 -26t18.5 -21q0 -1 8 -15q24 -38 27 -69q3 -26 3 3l1 70q0 95 2 117t12 42q2 4 10 8t16 5q16 2 27 -7q6 -6 8 -6t8 -12t7 -16q6 -18 45 -102q2 -4 28 -51t29 -56q7 -16 36.5 -64t44.5 -67q6 -7 23 -31t23 -31l-1 31q0 7 -1.5 43t-2.5 56
q-8 164 0 239q5 45 11 56q10 16 21 20q7 3 29 -7q19 -9 23 -16q3 -7 0 -16q-3 -8 -5 -35q-3 -42 -4 -71.5t-1 -43t1.5 -44.5t2.5 -51q0 -16 6 -154q4 -88 -2 -99q-4 -6 -2 -6q4 0 -6 -10l-3 -3q-2 -1 -7 -5.5t-8 -5.5q-4 -2 -14 -2t-15 2q-2 1 -7 1q-3 0 -22 16q-8 5 -8 7
t-18 20q-24 25 -69 88q-25 35 -73 114q-20 32 -54 98l-13 21q-1 0 2 -70t4 -79q2 -32 1.5 -105.5t-2.5 -75.5q-1 -1 -1 -9zM194 458q-2 10 -6 11q-1 0 -13 1l-14 1q-12 -19 -24 -45q-14 -29 -19.5 -50t-15.5 -81q-2 -8 -3 -9q-2 -4 -2 -53v-51l7 -23q7 -23 11 -29
q13 -18 20.5 -23t23.5 -5q14 0 29 5q24 8 80 58q37 32 58 94q2 5 5.5 14.5t5 14t2.5 12.5t0 17.5t-4 22.5q-5 26 -13.5 40.5t-29.5 34.5q-29 27 -45 36q-13 7 -14 3t-13 -7t-18 -1t-8 12z" />
    <glyph glyph-name="C_A" horiz-adv-x="790" 
d="M167 -30q-9 0 -25 7t-28 14l-11 7q0 3 -5 5q-22 12 -44 56q-11 22 -11 27q0 2 -2 4q-2 1 -8 22.5t-8 36.5q0 2 -2 6q-8 21 0 134q4 59 33 124q29 63 62 112q15 18 33 36q28 27 41 34q19 11 41 17q12 4 32.5 4t23.5 -3t7 -3t19.5 -8.5t17.5 -10.5q1 -2 12 -11
q21 -16 39 -60q6 -16 -11 -28q-12 -8 -17 -8.5t-14 8.5q-40 39 -59 48q-19 8 -40 -1q-53 -23 -100 -114q-33 -64 -44 -152t17 -167q22 -49 61 -60q13 -3 29 -1q41 8 70 25q35 21 41 21q4 0 12 10q10 11 18 10t9 4q2 4 0 6q0 7 3 31q8 63 8 68q3 42 9 71q3 11 7 38.5t7 37.5
q19 77 31 105q21 48 46 67q14 11 16 12l4 2q0 4 25.5 6t35.5 -2q7 -3 7 -2t5.5 -2.5t12 -8t8.5 -4.5q3 0 21 -18.5t26 -29.5q5 -7 13 -21.5t13 -20.5q14 -18 22 -47q7 -22 20 -56t22 -67q17 -66 20 -90q2 -17 5 -27q7 -32 8 -78.5t-5 -53.5q-4 -4 -4 -5t-4 -5.5t-4 -6.5
q0 -7 -23.5 -6.5t-28.5 6.5q-10 13 -10 21q0 3 -3 5t-2.5 11t4.5 13q3 3 2 21q-2 34 -12 99q-5 34 -7.5 37.5t-20.5 3.5q-19 0 -43 2q-31 3 -114 -5l-33 -4l1 -13q0 -8 -4.5 -39.5t-4.5 -37.5q-3 -49 -22 -95q-12 -31 -30 -28q-35 7 -37 12q-2 6 -5.5 5.5t-16.5 -9.5
q-18 -13 -49.5 -28t-42.5 -15q-1 0 -15 -1t-23.5 -1.5t-14.5 0.5q-4 2 -12 2zM632 300q-4 7 -10.5 23t-6.5 22q0 9 -28 68q-19 36 -40 55q-15 14 -21 14q-28 0 -52 -95q-17 -75 -17 -87q0 -3 4 -2q8 2 30 2.5t29 1.5q14 2 49.5 1.5t52.5 -2.5z" />
    <glyph glyph-name="P_S" horiz-adv-x="859" 
d="M123 42q-7 -6 -9.5 -7.5t-10.5 -3t-24 -1.5h-20q-2 3 -6.5 8t-6.5 8l1 73q0 70 2 100q5 65 -1 71q-3 3 -1.5 17.5t3.5 18.5q7 10 5 82l-1 38l-10 3q-17 4 -21 21q-4 21 1 41q4 15 9.5 23t28.5 28q17 17 51 29q62 24 131 13q32 -5 69 -24q20 -10 23 -10q2 0 27 -19
q12 -8 13 -8q2 0 19 -19t22 -26q14 -20 14 -28q0 -3 5 9q4 10 9 17q3 4 3 7q0 1 7.5 10.5t7.5 10.5t16.5 15t18.5 14q4 0 9 4q41 27 66 31q5 1 22.5 5.5t35.5 8t31 3.5q45 2 73 -14q22 -13 22 -19q0 -1 1 -10t0 -14q0 -3 -10 -15q-14 -17 -43 -10q-33 7 -59 3
q-19 -3 -62 -16q-12 -3 -30.5 -14t-27.5 -20q-19 -21 -22 -53t-1 -43q4 -20 8 -23q3 -3 7 -3q14 0 45 14q22 10 25 10q2 0 18 7.5t18 7.5q9 2 11 4q5 3 22.5 3t24.5 -4q8 -4 9 -4q6 0 45 -22q22 -13 46 -39q4 -4 12 -20t8 -20q0 -3 3 -7q2 -5 12 -48q5 -28 1 -59
q-6 -37 -24 -74q-9 -16 -9 -19t-16.5 -19t-21.5 -18q-6 -3 -16 -9q-47 -28 -84 -35q-3 -1 -10.5 -3t-19.5 -3q-68 -5 -121 50q-18 18 -32 45l-12 24l-1 22q-1 23 4 32q4 9 10 11.5t22 4.5q15 1 17 -2q3 -3 3 -6q0 -4 2 -4t2 -6q0 -4 2.5 -8t2.5 -6q0 -11 25 -44
q26 -35 69 -35q19 0 43 10q34 14 49 24.5t23 27.5q14 29 18 54q2 17 -6 51.5t-18 44.5q-7 8 -27 20t-28 14q-18 4 -54 -15q-39 -22 -53 -22q-5 0 -5 -2t-5 -2q-7 0 -14 -3q-9 -3 -22 0q-16 3 -21.5 4.5t-14 6t-17.5 13.5q-26 25 -35 74l-6 -12q-9 -16 -15 -23q-9 -11 -9 -12
q0 -2 -17 -17.5t-23 -19.5q-35 -23 -55 -32q-26 -12 -74 -17t-81 3q-12 4 -14 2t-4.5 -70t-1.5 -109v-26zM241 530q-18 5 -52 4.5t-49 -7.5l-11 -4l1 -10v-16t0.5 -38.5t0.5 -44.5l1 -88l11 -3q11 -4 47 -5q34 -1 53 4q45 11 78 42q29 29 29 37q0 3 5 13q8 22 -1 38
q-5 9 -24 27t-30 25q-25 16 -59 26z" />
    <glyph glyph-name="T_O" horiz-adv-x="750" 
d="M219 566q111 19 171 15q16 -1 22 -4.5t11 -12.5q6 -9 4 -23l-2 -15q6 0 18.5 0.5t18.5 0.5q2 -2 5.5 -6.5t5.5 -6.5h18q37 1 77 -17q26 -12 27 -13q17 -15 21 -15q2 0 21 -19.5t23 -24.5q4 -7 12 -19q38 -58 38 -121q0 -24 -3 -39q-11 -56 -20 -65q-3 -3 -7 -13
q-7 -16 -27 -46t-34 -44q-23 -25 -40 -36q-50 -34 -78 -41q-43 -12 -55 -10q-1 0 -20 2t-21 3l-36 18q-32 28 -48 63.5t-24 89.5q-3 21 -1 71t7 72q0 1 1.5 9.5t2.5 12.5q22 104 71 161l12 14q7 6 -99 -8q-6 0 -11 -1q-36 -4 -39 -5l-11 -2q-2 -61 -2 -135q-1 -162 -6 -245
q-5 -88 -11 -93q-5 -5 -24 -4q-37 2 -44 17q-3 6 -2 24q1 20 9 185q1 22 1.5 109.5t-0.5 111.5q-1 16 -13 9q-3 -2 -11 -4t-11 -4q-8 -4 -26 -7q-10 -2 -18 -12q-1 -2 -7 -2q-14 0 -30 19q-16 20 -15 28q1 9 39 38q26 17 46 15q4 -1 17 3q47 15 97 22zM451 429q-16 0 -21 7
q-1 2 -7 -7q-14 -22 -24 -53q-13 -36 -18 -69q-14 -91 0 -162q7 -30 15 -45q13 -22 31 -28q24 -7 54 2q39 13 83 57q35 35 58 102q17 51 3 93q-23 67 -79 98q-23 13 -38 13q-1 -1 -0.5 -7.5t0 -15.5t-1.5 -10q-2 -2 -15 -6q-13 -3 -19 0q-4 2 -6 4.5t-3.5 8.5t-2.5 9
q-3 9 -9 9z" />
    <glyph glyph-name="radical" unicode="&#x221a;" horiz-adv-x="573" 
d="M276 636q1 0 4.5 1.5t5.5 0.5q28 -11 54.5 -14t91.5 -2q60 1 71 -3q8 -3 10 -3q3 0 7 -6t4 -11q0 -6 5 -14q10 -19 -10 -32q-5 -3 -7.5 -5t-5 -3.5t-7.5 -3.5q-8 -4 -17 -1q-27 8 -85 3q-49 -4 -81 4l-10 3l-2 -32q-8 -105 -9 -110q-11 -57 -18 -136q-1 -7 -5 -31t-4 -30
t-10 -62.5t-10 -58.5q-22 -136 -32 -158q-3 -7 -9 -11.5t-10 -3.5q-4 2 -8 -2q-5 -5 -18 -3t-18 9q-3 3 -9 15q-9 16 -23.5 38.5t-24 39.5t-18.5 40q-37 87 -39 89q-1 1 -15 25q-8 14 3 29q14 21 22.5 25.5t19.5 -3.5q16 -10 31.5 -25t15.5 -20l5 -13q4 -6 12 -29
q6 -15 9.5 -22t9.5 -20q8 -17 10 -17q2 7 10 61q1 5 8.5 52t10.5 58q3 15 8 64.5t8 71.5q11 78 16 134q6 64 7 68t13 23q4 5 18 18.5t15 12.5z" />
    <glyph glyph-name="Sigma" unicode="&#x3a3;" horiz-adv-x="547" 
d="M418 58q2 0 11 6.5t11 6.5q15 1 18.5 -0.5t14.5 -11.5l13 -12l1 -15q3 -38 -9 -57q-3 -4 -4.5 -6.5t-3 -3.5t-3.5 -2t-3.5 -1.5t-5 -1.5t-6.5 -2q-8 -3 -17 -3q-8 0 -12 -2q-2 -1 -30.5 1t-29.5 2q-6 -3 -53 -3q-3 0 -9 0.5t-11.5 0.5t-10.5 -1q-8 -2 -46.5 -3t-44.5 -2
q-9 -1 -23.5 1t-25.5 0q-20 -3 -35 -1q-29 3 -52 15q-16 8 -18 16q0 2 -5 7q-7 7 -9 18q-1 10 12 34.5t30 45.5q37 46 65 93q25 42 41 54q5 3 5 7q0 2 16.5 22t16.5 22t19 24.5t19 24.5q0 4 -11.5 25.5t-17.5 27.5t-18 22t-18 23q-37 40 -47 58q-6 11 -14 22.5t-14 21.5
q-10 17 -17 24q-14 15 -15 36q-2 22 5 22q1 0 0 2t1 2q1 0 7 8q4 7 11 9q6 2 7 3q3 5 43 5q5 0 11 -2q2 -1 32 -3t31 -3q3 -2 29 -1.5t33 2.5q5 2 41.5 3t36.5 -1q0 -1 21 -3q20 -1 42 1.5t34 2.5q18 1 25 -6q6 -6 6 -9q0 -4 6 -10q5 -5 10 -30l4 -24l-4 -11
q-2 -4 -3.5 -6.5t-2.5 -3.5t-1.5 -3.5t-0.5 -7.5q0 -18 -20 -18q-38 0 -41 5l-6 4q-14 8 -10 34h-19q-23 0 -35 3q-14 3 -54 2q-19 -1 -40.5 -3.5t-36.5 -2t-44 5.5q-7 2 -6 -1t11 -19q8 -12 24.5 -32t18.5 -20q1 0 16 -19q3 -4 12.5 -16t12.5 -16q10 -12 10 -16q0 -2 4 -8
q10 -11 30 -60q10 -24 5 -49q-2 -17 -12 -17q-1 0 -1 -3q0 -2 -6 -5t-7 -2t-1 0v-3q0 -4 -10 -14q-29 -31 -29 -37q0 -3 -21 -26q-24 -26 -50 -65q-25 -36 -33 -49q-9 -15 -15 -21q-3 -3 -8 -10.5l-9 -13.5l-3 -6q1 -1 6 1t27 2t24 -2t15 -1q73 4 78 5q8 2 19.5 0.5
t19.5 -0.5q12 2 51 2q38 0 39 5q1 4 7 10.5t9 6.5z" />
    <glyph glyph-name="integral" unicode="&#x222b;" horiz-adv-x="593" 
d="M54 -132q0 1 -6.5 11.5t-6.5 11.5q0 2 -9.5 16.5t-9.5 15.5q-2 5 -1 17q0 5 18.5 18.5t27.5 11.5h5l3 -1l3 -3q2 -2 6.5 -8l7.5 -10q5 -6 16 -18.5t12 -13.5l12 -12l12 13q61 64 72 142q2 12 6 32.5t6 34.5q4 30 28 152q21 106 23 126q1 12 4 29q2 12 2 13q-1 1 5 32
q2 13 6.5 45.5t7.5 45.5q1 4 3.5 29t4.5 31t4 36q2 22 13.5 50.5t21.5 38.5q17 17 41 24q6 2 12 0q3 -1 33 -1q40 -1 51 -12q5 -5 7 -5q3 0 17.5 -18t20.5 -29q6 -13 14 -21q6 -6 6 -11q0 -19 -9 -23q-2 -1 -4 -8q-2 -10 -13 -17q-16 -9 -38 5q-14 9 -16 15q-10 22 -21 34
l-9 10q-5 0 -16 0.5t-17 0.5l-4 -14q-14 -41 -18 -97l-8 -64q-4 -38 -7 -42q-2 -5 -1 -6q2 -3 -4 -27q-4 -21 -9 -55.5t-11 -66.5q-1 -3 -8 -47q-3 -20 -6 -28q-2 -3 -3 -16.5t-2 -16.5q-14 -65 -26 -143q-1 -9 -18 -76q-9 -33 -15 -36q-1 -1 -14 -26l-13 -25l-15 -19
q-28 -40 -43 -48l-20 -10q-15 -8 -37 -8t-31 7q-10 6 -13 7q-4 1 -17 13t-13 14z" />
    <glyph glyph-name="approxequal" unicode="&#x2248;" horiz-adv-x="667" 
d="M163 469q7 2 12.5 3.5t7 2.5t5 1.5t8 0.5h13.5q16 0 41 -4.5t27 -7.5q2 -2 13 -5q45 -13 117 -67q22 -17 27.5 -19t21.5 4q22 8 63 53q17 19 22.5 23.5t13.5 4.5q5 0 17 -6.5t18 -12.5t9 -8q11 -10 1 -30q-5 -9 -22 -29t-29 -29q-23 -20 -30 -24l-10 -6
q-4 -4 -25.5 -12.5t-27.5 -7.5q-2 0 -6 -2t-23 1q-31 4 -54 24q-17 15 -48 36t-46 27q-46 18 -77 16q-4 0 -27 -7q-40 -12 -69 -48q-24 -29 -39 -37q-12 -7 -30 8q-18 17 -17.5 29t14.5 33q1 2 3 4.5t3 4.5l1 2q0 3 12.5 18t19.5 19q3 2 17 13q30 24 73 34zM189 300
q20 3 45 -2q18 -4 94 -33q26 -10 34.5 -15t24.5 -21q9 -9 29 -15l19 -6l19 5q21 5 46 19q22 12 45 42q22 28 31 28q6 0 23 -11q27 -18 28 -26q2 -8 -1 -14t-18 -26q-38 -52 -72 -65q-15 -8 -17 -9q-24 -16 -47 -16q-7 0 -16 -3q-18 -5 -43 -1q-37 7 -46 12q-20 11 -31 23
q-14 15 -43 25q-35 14 -37 15q-30 16 -62 14t-43 -27q-3 -8 -12 -16t-17 -8q-7 0 -25 6q-17 6 -19 11t3 27t8.5 29t14.5 18q30 32 85 40z" />
    <glyph glyph-name="notequal" unicode="&#x2260;" horiz-adv-x="554" 
d="M194 439q76 0 86 -3l24 48q21 44 29 52q8 11 18 7q4 -2 11 -2q5 0 8.5 -2t6.5 -2q7 0 14.5 -13.5t5.5 -22.5q-3 -14 -16 -41l-11 -23l20 -1h41.5h31.5q20 1 27 -0.5t15 -10.5l9 -9v-21v-10.5v-8.5l-1 -4q0 -3 -6 -7t-11 -5q-45 -8 -138 -5h-29l-17 -35q-18 -34 -18 -37
l34 -1q35 0 79 0.5t67 0.5q23 1 34.5 -21.5t-4.5 -38.5q-5 -5 -13 -17q-4 -5 -63 -4q-74 2 -152 -3l-19 -1l-5 -11q-49 -114 -67 -142q-8 -11 -17 -12t-29 9q-14 8 -18 14q-2 6 -2 8t1.5 6.5t1.5 8.5t1 7.5t2.5 7.5t2.5 6l36 87q-53 -7 -64 -7q-4 0 -8 -0.5t-7 -1.5h-3
q-2 0 -9 0.5t-13 1.5l-6 2q0 1 -4 3q-9 3 -13 31q-3 16 0 21q4 6 6 8q13 11 114 22l44 5q5 10 10 22q11 27 20 43q11 20 11 22q-1 1 -36.5 1t-62.5 -2q-41 -2 -59 0q-42 3 -53 9t-11 26q0 35 23 39q37 7 151 7z" />
    <glyph glyph-name="lessequal" unicode="&#x2264;" horiz-adv-x="473" 
d="M312 548q1 0 17.5 14t17.5 14q10 4 31 -15q18 -16 17 -24q-2 -14 -9 -20q-2 -1 -2 -4q1 -1 -9 -13t-10 -13q0 -3 -68.5 -70.5t-99.5 -95.5q-29 -25 -26 -26q2 -1 10 0q7 1 40.5 4.5t49.5 4.5q5 0 14.5 1t17 1.5t11.5 0.5q18 2 41.5 2t25.5 -2q0 -1 11 -4t12 -4
q0 -1 3.5 -5.5t3.5 -9.5q0 -8 -5 -25.5t-9 -22.5l-4 -4q0 3 -7 -2q-6 -2 -22 -1q-15 1 -77.5 -3.5t-71.5 -7.5q-3 -1 -37 -4t-37 -4q-7 -2 -40 -4q-37 -2 -49 1.5t-25 21.5q-15 21 -2 38q5 5 5 7t15.5 17t35 33.5t21.5 20.5q9 8 22.5 19.5t24.5 22.5l35 32.5t40 38.5
q31 31 47 45q15 15 15 16q0 2 12 15.5t14 13.5zM394 157q8 5 14 2t8 -6.5t5.5 -10.5t6.5 -10q5 -6 5 -19t-7 -20q-14 -13 -38.5 -17t-75.5 -1q-103 6 -176 -3q-69 -9 -87 4q-7 5 -11 29q-2 13 1 21q6 12 19 12q3 0 6 3t41 8q83 12 239 6q42 -1 50 2z" />
    <glyph glyph-name="greaterequal" unicode="&#x2265;" horiz-adv-x="492" 
d="M95 580q13 15 21 15q11 0 37 -20q12 -9 45.5 -42.5t44.5 -46.5q9 -11 23.5 -25.5t21.5 -22.5q16 -18 17 -18q2 0 24 -22q47 -45 56 -45q2 0 17 -12q16 -14 21 -15q4 -1 6 -4t3.5 -7t3.5 -6q4 -4 5 -19t-3 -21q-6 -9 -35.5 -21.5t-50.5 -13.5q-10 -1 -65 -8q-21 -4 -25 -2
q-5 1 -78 -7q-18 -2 -68 -1.5t-53 2.5q-3 4 -11 5q-22 5 -27 15q-5 11 1 36q3 15 5.5 19t9.5 8q7 3 34 -2q21 -4 51.5 -4t55 2t59 5.5t49.5 4.5q17 1 18 3l-5 4q-8 4 -75.5 72t-80.5 86q-5 6 -10 9t-25.5 26t-24.5 30q-5 8 -5 18t13 25zM156 182q2 1 62 1t74 -2q9 -1 79 -3
q61 -1 66 -6q2 -2 4 -10q1 -5 5.5 -12t5 -11t-1.5 -16q-4 -14 -21 -21q-10 -4 -44 -4q-51 0 -109 4q-22 2 -91.5 1t-81.5 -3q-57 -9 -69 0q-7 6 -12 34q-4 24 10 32q22 12 90 14z" />
    <glyph glyph-name="bar_greater" horiz-adv-x="538" 
d="M216 533q-2 0 -9 4.5t-8 4.5q-2 0 -6 8q-4 7 -2 27q2 16 4 20.5t11 8.5q4 2 23 1t27 -3q7 -2 13 -8q5 -5 7 -3q3 1 27 -24t24 -30q0 -2 25 -33.5t36 -42.5q42 -44 42 -49q0 -2 13 -17t15 -15t6 -4t9 -6q7 -3 21 -24q1 -2 3 -4t2 -15t-1 -24q-2 -20 -14 -20q-1 0 -9 -9
t-9 -9q-3 0 -41 -39t-52 -56q-31 -39 -77 -109q-29 -44 -38 -47q-15 -4 -35 10q-22 15 -22 30q0 9 8 20q2 2 35 53q34 52 61 86q4 5 10.5 13t7.5 9q5 8 36.5 40t39.5 38l7 6l-8 7q-18 16 -40.5 45.5t-32.5 39.5q-22 24 -31 36q-39 51 -54 67.5t-24 16.5zM43 596q9 4 42 10
q3 0 7 -4t4 -6t2 -2t9 -36q2 -12 4 -14q1 -16 0 -67t-3 -134.5t-2 -108.5q0 -169 -15 -183q-19 -17 -35 -8q-3 1 -9 2.5t-10.5 3t-6.5 3.5q-2 4 -4 6q-8 8 -5 31q2 15 4 155q1 52 3.5 148.5t2.5 146.5q-1 49 12 57z" />
    <glyph glyph-name="less_bar" horiz-adv-x="553" 
d="M286 629q8 5 28 -2q16 -6 20 -10.5t4 -15.5q0 -23 -32 -72q-20 -31 -62 -75q-20 -20 -57 -60q-59 -62 -74 -91q-4 -8 0 -8q9 0 47 -40q24 -26 24 -30q0 -1 5 -8q41 -56 59 -83q27 -39 37 -58q8 -15 14 -19q10 -4 13 -17.5t-2 -23.5t-5 -12q0 -4 -5.5 -10t-9.5 -6
q-2 0 -2 -2q0 -6 -16 -6q-5 0 -16.5 5.5t-16.5 10.5q-3 3 -15 25q-20 39 -67 105.5t-77 91.5q-46 38 -46 43q0 3 -7 10q-8 10 -7 18t13 32q22 44 40 65q2 2 6.5 7.5t6.5 7.5q16 24 79 87q58 58 89 109q14 22 32 32zM470 625q22 3 28.5 -1t10.5 -25q5 -25 5 -35
q1 -32 -4 -86.5t-5 -57.5q-18 -272 -18 -277q-3 -32 -5 -84q-2 -45 -4 -45t-2 -9q0 -14 -11 -23t-24 -6q-41 9 -44 25q-1 4 0.5 30.5t3.5 54t2 30.5q5 92 7 99q1 4 3 43q1 25 2 36.5t2 35.5q1 21 3 44t3 31q0 15 4 65t5 69q2 38 3 40q2 4 2 14q1 27 33 32z" />
    <glyph glyph-name="u1F382" unicode="&#x1f382;" horiz-adv-x="683" 
d="M75 325q-8 0 -23.5 4t-15.5 7q0 1 -6 7q-9 8 -10.5 26t6.5 26q1 1 6 15t7 15l3 6q3 7 19 11q6 2 18 12q3 2 9 8q13 12 35 16t37 -3q10 -3 12 -7q4 -5 15 2q5 3 16 5q10 2 10 3h2q3 -3 10 -2q13 2 14.5 3.5t0.5 14.5q0 9 0.5 14t3.5 11t4 9q2 7 4 7t2 2q0 5 15.5 17.5
t25.5 14.5q16 4 25 5q7 1 9.5 3t4 6.5t3.5 7.5q4 6 4 7q0 8 10 18q1 0 6 10l5 10l2 2l3 3l4 4q19 23 49 36q17 8 21 8q3 0 5 2q1 1 11 3q3 0 17.5 5t19.5 4q12 -1 21 6q15 13 27 1q5 -5 6 -5t2 -13.5t0 -19.5q-2 -16 0 -19q2 -5 -2 -9.5t-4 -5.5q-1 -4 -5 -4q-3 0 -6.5 -0.5
t-5.5 -1t-4.5 0.5t-5.5 4q-6 6 -18.5 11.5t-18.5 4.5q-7 -2 -16 -3.5t-16 -4t-18 -7.5q-8 -4 -21 -14.5t-16 -15.5q-4 -6 -5 -6q-2 0 -2 -4t-1 -4q-2 -1 -6.5 -7.5t-4.5 -8.5q0 -4 6 -4q11 0 28 -6.5t19 -11.5q0 -1 3 -1q2 0 6 -4q11 -13 11 -18l3 -6q8 -10 6 -34
q-2 -16 -1.5 -19.5t7.5 -4.5q3 0 16 1.5t21.5 2t11.5 -2.5q2 -8 39 -8q21 0 34 -7t40 -33q15 -13 15 -19q0 -3 3 -6q2 -2 2 -16t-2 -17q-1 -1 -2.5 -12.5t-2.5 -12.5q-2 0 -2 -3q0 -6 -21 -17q-8 -3 -8 -6q0 -2 -5 -2q-4 0 -8 -2q-3 -2 -16 -3q-5 0 -6 -15q-1 -16 -30 -134
q-9 -36 -9 -37q0 -6 -3 -17q-3 -12 -5.5 -41.5t-0.5 -31.5q1 -2 1 -9t-1 -9q-2 -2 -11.5 -6.5t-13.5 -4.5h-36q-7 -2 -19 3q-3 1 -5.5 2t-3.5 1h-2q0 -2 -14 -4q-13 -2 -18 2q-11 8 -22 1q-5 -3 -17 -3t-14 3q-1 1 -3.5 2t-4.5 0.5t-2 -1.5q0 -2 -12 -7t-18 -5t-14 7
q-9 9 -18 4q-7 -4 -22 -4t-15 4q0 8 -23 -3t-36 -3q-5 4 -9 1q-15 -7 -20 -5q-1 1 -3.5 2t-4.5 2t-3.5 2t-1.5 3l-6 8q-15 17 -22 57q-1 5 -3.5 13.5t-2.5 14.5q0 11 -2 17q-2 7 -3.5 21t-3.5 31.5t-3 25.5q-7 62 -14 114zM143 431q0 5 -12 2q-22 -7 -25 -24q-2 -11 -6 -11
q-2 0 -3 -3t-11 -3t-13 -7q-7 -12 1 -15q4 -2 14 -2t15 2q5 1 7 -2t7 -17q4 -7 6 -4l8 10q15 15 25 5q3 -3 4 -3q2 0 7 -7q4 -6 7 -6.5t11 4.5q8 4 17 3q4 0 4 -3q0 -4 4.5 -4.5t9 1.5t4.5 4t4 2q3 0 8 3q4 2 15 2t12 -3q0 -2 3 -2q1 0 6 -5q8 -8 36 3.5t35 4.5q3 -3 5 -3
q3 0 3 -2q0 -3 3 -4q5 -2 14 3l10 4q-10 5 -11.5 6.5t1.5 13.5q7 13 15 8q15 -9 15 -11l-6 -9q13 2 19 0q13 -6 13 -12q0 -2 1 -3t3.5 -0.5t4.5 1t5 2t4 1.5q4 1 10.5 3.5t11 3.5t10 0.5t9.5 -5.5q6 -6 6 -8q0 -1 3.5 -1t8 1.5t6.5 3.5q3 2 9.5 3.5t11 1t4.5 -2.5
q1 -9 10 -9t15 6q1 1 4 3t4 3q20 6 23 15q4 10 2.5 14.5t-11.5 14.5q-11 11 -18 14t-23 4q-6 0 -25.5 3.5t-34.5 2.5q-19 -1 -33 3q-26 9 -39 5q-17 -5 -35 1q-10 3 -23 1q-7 -1 -17.5 -1t-15.5 -2q-17 -6 -29 0q-7 3 -12 0q-6 -3 -15.5 -3.5t-14.5 3.5q-5 3 -21 3t-19 -3
q-2 -3 -5 -3t-3 -2t-11 -7t-15 -4q-13 3 -13 5t-3 2q-2 0 -6.5 4.5t-4.5 6.5zM154 239q-3 25 -4.5 51.5t-1.5 39.5v13q-3 -3 -5 -6q-3 -4 -10 -9q-6 -4 -5 -12q1 -10 6 -33.5t6 -35.5q12 -84 15 -101q2 -14 5.5 -37.5t6.5 -37.5q4 -14 4 -20l1 -5q0 2 4 2q3 3 2 13t-4 27.5
t-3 21.5q0 9 -3.5 24.5t-4.5 22.5q-7 51 -9 82zM465 243q0 4 3 13.5t3 14.5q0 7 2.5 16.5t3.5 15.5q2 14 -4 19q-5 6 -7 10q-2 6 -10 2q-3 -2 -4 -2q-3 -1 -5.5 -2.5t-3.5 -2.5t-4.5 -1.5t-9.5 -0.5q-12 0 -19 8q-11 11 -12 2q-1 -5 -1 -24q0 -20 -3.5 -55t-3.5 -40
q-9 -113 -11 -129.5t-8 -29.5q-2 -6 0 -6q2 -1 11 3q8 3 22 0q14 -4 20 -2t7.5 5t3.5 17q10 60 10 74q0 4 9 49l7 28q4 14 4 18zM243 195q0 144 -1 144t-7 -4q-20 -11 -34 -5q-7 3 -16 -2q-8 -5 -14 -5q-4 0 -3 -3t3 -23t3 -23q3 -12 3 -19q1 -11 2.5 -26t2.5 -26
q3 -33 10 -72q2 -11 5 -35q1 -10 3.5 -18.5t3.5 -20.5v-9q0 -8 1.5 -8.5t7.5 3.5l4 2q12 5 19 5h7v145zM336 334q-4 4 -29 -8q-26 -9 -36 -4l-5 1q0 -1 2 -3l2 -123q0 -35 0.5 -57t1 -40t0.5 -27.5t1 -16t2 -8t2 -1.5q7 2 16.5 1t9.5 -4q0 -1 7 -1t7 1q0 2 13 7t19 5h7
l-1 25q-2 65 7 126q0 3 0.5 8t1.5 12t1 10q1 12 3 19t3 16q1 16 9 48l1 8l-9 -2q-20 -6 -28 2q-2 3 -4 3q-1 0 -4 3zM519 266q0 2 4 14.5t5.5 20.5t-1.5 10q-2 0 -9 9l-6 9l-8 -5q-6 -4 -8.5 -12.5t-3.5 -21t-3 -18.5q-9 -42 -9 -44q-5 -12 -21 -105q-1 -3 -2.5 -15
t-3.5 -29.5t-4 -28.5l10 1q11 2 11 4q1 2 1 8q0 5 3 24t3 24t4 23q5 20 8 31.5t6.5 22.5t6.5 23q2 6 5 14t4 16q0 4 4 12.5t4 12.5zM317 410q0 4 7 9t11 5q2 0 8 -7.5t6 -9.5q0 -3 -8 -9t-12 -6q-3 0 -7.5 7t-4.5 11zM269 411q7 9 9 9q3 0 11 -6t8 -8t-8 -12l-7 -8
q-12 7 -15 11q-4 5 2 14zM416 410q6 9 19 1q7 -4 7.5 -9t-1.5 -7.5t-8 -8.5l-9 5q-14 8 -8 19zM220 407q9 7 12 7q2 0 10 -11t8 -13t-11 -9q-10 -6 -14.5 -5t-9.5 9t-4 12t9 10zM537 407q10 2 13.5 0t4.5 -13q1 -6 -1 -7t-12 -3q-10 -1 -12 11q-1 10 7 12zM104 395
q4 10 16 4l7 -4l-4 -8q-3 -7 -5 -7.5t-9 2.5q-6 2 -7 3.5t2 9.5zM154 395q9 2 11 -5q1 -6 -1.5 -9t-8.5 -2q-7 1 -7 8t6 8zM499 393q4 6 9 1q3 -4 1 -6q-2 -3 -5.5 -3t-5 2.5t0.5 5.5zM495 375l1 1q3 6 9 3q2 -1 7 -4q1 -1 2 -1q9 -6 1 -15l-6 -6l-7 4q-13 8 -7 18z" />
    <glyph glyph-name="quoteright" unicode="&#x2019;" horiz-adv-x="204" 
d="M109 754q8 5 14 5q3 0 19.5 -10.5t20.5 -14.5q2 -2 2 -9q2 -20 -10 -36q-7 -10 -13.5 -23t-15 -33t-12.5 -28q-15 -35 -17 -46q-1 -12 -2.5 -14.5t-6.5 -4.5q-8 -3 -26 -1q-30 4 -34 14q-2 4 -4 4q-4 0 -4 20q1 22 44 109q28 59 45 68z" />
    <glyph glyph-name="quoteleft" unicode="&#x2018;" horiz-adv-x="202" 
d="M38 747q6 3 33 -4q36 -10 43 -33q5 -16 14 -23q3 -2 10 -21.5t8 -27.5q0 -3 6 -27q12 -47 10 -77q-2 -18 -3.5 -22.5t-11.5 -12.5q-3 -3 -25 -3t-29 6q-9 7 -10.5 12t-3.5 28q-1 37 -10.5 71t-20.5 46q-12 13 -10 15q1 1 -1 1q-3 0 -3 2q0 3 -4 5q-3 1 -7 10q-4 7 1 25
q8 26 14 30z" />
  </font>
</defs>
</svg>
